<?xml version="1.0" encoding="utf-8"?>
<!-- Generator: Adobe Illustrator 16.0.0, SVG Export Plug-In . SVG Version: 6.00 Build 0)  -->
<!DOCTYPE svg PUBLIC "-//W3C//DTD SVG 1.1//EN" "http://www.w3.org/Graphics/SVG/1.1/DTD/svg11.dtd">
<svg version="1.1" id="Layer_1" xmlns="http://www.w3.org/2000/svg" xmlns:xlink="http://www.w3.org/1999/xlink" x="0px" y="0px"
	 width="396.717px" height="301.847px" viewBox="3.283 0 396.717 301.847" enable-background="new 3.283 0 396.717 301.847"
	 xml:space="preserve">
<g>
	<g id="c84_landscape">
		<path d="M39.307,266.411V42.509H10.266c-3.84,0-6.983,2.696-6.983,6.025v247.267c0,3.332,3.144,6.046,6.983,6.046h331.505
			c3.856,0,6.992-2.714,6.992-6.046v-23.361H46.32C42.413,272.439,39.307,269.718,39.307,266.411z"/>
		<path d="M392.987,0H61.526c-3.87,0-6.983,2.71-6.983,6.021v247.256c0,3.333,3.129,6.07,6.983,6.07h331.48
			c3.854,0,6.993-2.722,6.993-6.07V6.02C399.98,2.71,396.861,0,392.987,0z M147.398,22.477c20.504,0,37.163,14.354,37.163,32.064
			c0,17.735-16.659,32.03-37.163,32.03c-20.533,0-37.177-14.295-37.177-32.03C110.221,36.831,126.865,22.477,147.398,22.477z
			 M377.259,184.666h-0.446h-273.77H81.11v-2.462l58.438-57.56l32.883,19.12l38.315-56.612l44.525,27.212l40.241-71.9l81.746,139.53
			V184.666L377.259,184.666z"/>
	</g>
	<g id="Capa_1_147_">
	</g>
</g>
</svg>
