<?xml version="1.0" encoding="utf-8"?>
<!-- Generator: Adobe Illustrator 16.0.0, SVG Export Plug-In . SVG Version: 6.00 Build 0)  -->
<!DOCTYPE svg PUBLIC "-//W3C//DTD SVG 1.1//EN" "http://www.w3.org/Graphics/SVG/1.1/DTD/svg11.dtd">
<svg version="1.1" id="Capa_1" xmlns="http://www.w3.org/2000/svg" xmlns:xlink="http://www.w3.org/1999/xlink" x="0px" y="0px"
	 width="560.631px" height="479px" viewBox="-24.5 16.315 560.631 479" enable-background="new -24.5 16.315 560.631 479"
	 xml:space="preserve">
<g>
	<g>
		<path d="M516.105,274.088H-4.475c-5.426,0-10.118,1.812-14.082,5.429c-3.959,3.612-5.943,7.9-5.943,12.846v36.545
			c0,4.947,1.983,9.236,5.944,12.847c3.967,3.617,8.662,5.433,14.082,5.433h520.581c5.417,0,10.115-1.814,14.08-5.433
			c3.96-3.61,5.944-7.897,5.944-12.847v-36.545c0-4.945-1.984-9.233-5.944-12.848C526.222,275.896,521.522,274.088,516.105,274.088z
			"/>
		<path d="M516.105,383.722H-4.475c-5.426,0-10.118,1.81-14.082,5.426c-3.959,3.615-5.943,7.898-5.943,12.847v36.546
			c0,4.948,1.983,9.231,5.944,12.854c3.967,3.61,8.662,5.422,14.082,5.422h520.581c5.417,0,10.115-1.812,14.08-5.422
			c3.96-3.62,5.944-7.904,5.944-12.854v-36.546c0-4.948-1.984-9.231-5.944-12.847C526.222,385.53,521.522,383.722,516.105,383.722z"
			/>
		<path d="M530.185,60.241c-3.963-3.612-8.661-5.424-14.08-5.424H-4.475c-5.426,0-10.118,1.812-14.082,5.424
			c-3.959,3.617-5.943,7.902-5.943,12.85v36.547c0,4.948,1.983,9.229,5.944,12.847c3.967,3.616,8.662,5.424,14.082,5.424h520.581
			c5.417,0,10.115-1.809,14.08-5.424c3.96-3.617,5.944-7.898,5.944-12.847V73.091C536.129,68.143,534.147,63.861,530.185,60.241z"/>
		<path d="M516.105,164.456H-4.475c-5.426,0-10.118,1.807-14.082,5.424c-3.959,3.615-5.943,7.898-5.943,12.847v36.547
			c0,4.947,1.983,9.233,5.944,12.845c3.967,3.617,8.662,5.429,14.082,5.429h520.581c5.417,0,10.115-1.812,14.08-5.429
			c3.96-3.612,5.944-7.898,5.944-12.845v-36.547c0-4.952-1.984-9.231-5.944-12.847C526.222,166.263,521.522,164.456,516.105,164.456
			z"/>
	</g>
</g>
</svg>
