<?xml version="1.0" encoding="utf-8"?>
<!-- Generator: Adobe Illustrator 16.0.0, SVG Export Plug-In . SVG Version: 6.00 Build 0)  -->
<!DOCTYPE svg PUBLIC "-//W3C//DTD SVG 1.1//EN" "http://www.w3.org/Graphics/SVG/1.1/DTD/svg11.dtd">
<svg version="1.1" id="Capa_1" xmlns="http://www.w3.org/2000/svg" xmlns:xlink="http://www.w3.org/1999/xlink" x="0px" y="0px"
	 width="399.748px" height="382.01px" viewBox="0.257 8.998 399.748 382.01" enable-background="new 0.257 8.998 399.748 382.01"
	 xml:space="preserve">
<g>
	<path fill="#FFAFC0" d="M130.322,113.693L200,209.597l69.676-95.903c12.488-17.188,12.488-40.462,0-57.65L240.34,15.666
		c-5.967-8.213-17.938-8.963-24.881-1.561l-8.017,8.54c-4.03,4.299-10.857,4.298-14.895,0l-8.013-8.54
		c-6.946-7.403-18.915-6.652-24.882,1.561L130.32,56.044C117.835,73.231,117.835,96.505,130.322,113.693z"/>
	<path opacity="0.3" fill="#FFFFFF" enable-background="new    " d="M173.709,150.268L200,209.597l26.292-59.329
		c4.27-9.628,4.449-20.575,0.504-30.34l-10.748-26.602c-1.521-3.773-6.643-4.321-8.93-0.957l-3.201,4.703
		c-1.879,2.762-5.951,2.762-7.831,0l-3.2-4.703c-2.289-3.365-7.405-2.816-8.93,0.957l-10.748,26.603
		C169.261,129.693,169.443,140.64,173.709,150.268z"/>
	<path fill="#F0BDD5" d="M200,328.14V209.597L87.26,246.229c-20.206,6.562-33.886,25.396-33.886,46.643v49.908
		c0,10.15,9.242,17.795,19.212,15.889l11.502-2.199c5.79-1.104,11.312,2.906,12.048,8.754l1.463,11.619
		c1.268,10.072,11.392,16.5,21.047,13.363l47.467-15.426C186.32,368.213,200,349.383,200,328.14z"/>
	<path fill="#FFB8C5" d="M200,328.14V209.597L87.26,246.229c-20.206,6.562-33.886,25.396-33.886,46.643v49.908
		c0,10.15,9.242,17.795,19.212,15.889l11.502-2.199c5.79-1.104,11.312,2.906,12.048,8.754l1.463,11.619
		c1.268,10.072,11.392,16.5,21.047,13.363l47.467-15.426C186.32,368.213,200,349.383,200,328.14z"/>
	<path opacity="0.3" fill="#FFFFFF" enable-background="new    " d="M186.398,273.047L200,209.597l-56.143,32.545
		c-9.111,5.278-15.692,14.028-18.24,24.25l-6.94,27.84c-0.984,3.949,2.832,7.397,6.662,6.021l5.354-1.924
		c3.144-1.129,6.438,1.264,6.335,4.604l-0.175,5.688c-0.126,4.066,4.336,6.631,7.787,4.479l24.333-15.205
		C177.903,292.31,184.19,283.347,186.398,273.047z"/>
	<path fill="#F0BDD5" d="M312.741,246.229L200,209.597l69.676-95.903c12.488-17.188,34.623-24.38,54.83-17.814l47.467,15.422
		c9.654,3.137,14.066,14.289,9.178,23.182l-5.646,10.26c-2.844,5.165-0.734,11.656,4.604,14.164l10.598,4.981
		c9.188,4.319,12.172,15.934,6.205,24.147l-29.336,40.376C355.083,245.603,332.948,252.792,312.741,246.229z"/>
	<path fill="#FFB8C5" d="M312.741,246.229L200,209.597l69.676-95.903c12.488-17.188,34.623-24.38,54.83-17.814l47.467,15.422
		c9.654,3.137,14.066,14.289,9.178,23.182l-5.646,10.26c-2.844,5.165-0.734,11.656,4.604,14.164l10.598,4.981
		c9.188,4.319,12.172,15.934,6.205,24.147l-29.336,40.376C355.083,245.603,332.948,252.792,312.741,246.229z"/>
	<path opacity="0.3" fill="#FFFFFF" enable-background="new    " d="M264.549,216.269L200,209.597l48.299-43.338
		c7.841-7.034,18.193-10.588,28.699-9.854l28.623,2.001c4.059,0.284,6.162,4.979,3.67,8.197l-3.484,4.497
		c-2.047,2.642-0.787,6.513,2.42,7.448l5.467,1.59c3.902,1.138,4.967,6.173,1.848,8.789l-21.979,18.445
		C285.493,214.142,275.024,217.351,264.549,216.269z"/>
	<path fill="#FFAFC0" d="M200,328.14V209.597l112.741,36.633c20.205,6.563,33.887,25.396,33.887,46.645v49.91
		c0,10.146-9.242,17.793-19.213,15.887l-11.502-2.199c-5.791-1.104-11.312,2.906-12.049,8.756l-1.463,11.617
		c-1.271,10.072-11.396,16.5-21.049,13.363l-47.471-15.426C213.683,368.213,200,349.383,200,328.14z"/>
	<path opacity="0.3" fill="#FFFFFF" enable-background="new    " d="M213.604,273.047L200,209.597l56.144,32.545
		c9.11,5.278,15.69,14.028,18.237,24.25l6.941,27.84c0.981,3.949-2.832,7.397-6.662,6.021l-5.354-1.924
		c-3.146-1.129-6.438,1.264-6.336,4.604l0.176,5.688c0.125,4.066-4.336,6.631-7.787,4.479l-24.332-15.205
		C222.099,292.31,215.812,283.347,213.604,273.047z"/>
	<g opacity="0.05">
		<path d="M200,72.85c-3.236,0-5.859-2.623-5.859-5.859v-18.19c0-3.236,2.624-5.859,5.859-5.859c3.233,0,5.858,2.624,5.858,5.859
			V66.99C205.858,70.227,203.235,72.85,200,72.85z"/>
		<path d="M105.482,345.542c-1.193,0-2.399-0.361-3.439-1.119c-2.618-1.9-3.198-5.562-1.296-8.188l10.692-14.715
			c1.902-2.619,5.566-3.197,8.185-1.297c2.618,1.901,3.198,5.565,1.296,8.188l-10.692,14.715
			C109.081,344.706,107.294,345.542,105.482,345.542z"/>
		<path d="M294.519,345.542c-1.812,0-3.599-0.838-4.744-2.416l-10.69-14.715c-1.899-2.619-1.319-6.283,1.297-8.188
			c2.619-1.9,6.283-1.318,8.187,1.297l10.69,14.715c1.902,2.619,1.322,6.283-1.297,8.188
			C296.918,345.181,295.713,345.542,294.519,345.542z"/>
		<path d="M335.625,171.39c-2.471,0-4.768-1.574-5.572-4.051c-1-3.078,0.688-6.383,3.768-7.383l17.299-5.621
			c3.076-1.001,6.383,0.684,7.383,3.762c1,3.077-0.684,6.383-3.762,7.383l-17.305,5.621
			C336.834,171.297,336.225,171.39,335.625,171.39z"/>
		<path d="M41.551,173.515c-0.174-0.574-0.262-1.186-0.25-1.818l0.355-18.188c0.063-3.236,2.737-5.809,5.972-5.744
			c3.235,0.062,5.808,2.736,5.744,5.972l-0.355,18.188c-0.063,3.235-2.737,5.808-5.972,5.743
			C44.443,177.62,42.269,175.878,41.551,173.515z"/>
	</g>
	<g>
		<path fill="#FFB7C8" d="M87.492,246.229l112.755-36.597l-69.646-95.923C118.12,96.52,95.986,89.32,75.778,95.878l-47.472,15.407
			c-9.655,3.134-14.071,14.284-9.182,23.178l5.643,10.264c2.841,5.164,0.728,11.656-4.607,14.163l-10.6,4.979
			c-9.189,4.316-12.177,15.93-6.213,24.145l29.324,40.385C45.153,245.588,67.285,252.79,87.492,246.229z"/>
		<path opacity="0.3" fill="#FFFFFF" enable-background="new    " d="M135.696,216.288l64.551-6.65l-48.285-43.354
			c-7.837-7.036-18.192-10.596-28.697-9.864l-28.623,1.993c-4.059,0.28-6.163,4.978-3.671,8.195l3.482,4.498
			c2.044,2.642,0.786,6.514-2.423,7.447l-5.462,1.589c-3.907,1.135-4.969,6.17-1.852,8.787l21.972,18.451
			C114.752,214.149,125.219,217.366,135.696,216.288z"/>
	</g>
	<path opacity="0.05" enable-background="new    " d="M61.891,170.357c-0.6-0.01-1.209-0.112-1.808-0.317l-17.21-5.889
		c-3.062-1.048-4.696-4.379-3.647-7.44c1.048-3.062,4.379-4.695,7.44-3.647l17.211,5.889c3.061,1.048,4.695,4.379,3.646,7.44
		C66.682,168.856,64.36,170.396,61.891,170.357z"/>
</g>
</svg>
