<?xml version="1.0" encoding="utf-8"?>
<!-- Generator: Adobe Illustrator 16.0.0, SVG Export Plug-In . SVG Version: 6.00 Build 0)  -->
<!DOCTYPE svg PUBLIC "-//W3C//DTD SVG 1.1//EN" "http://www.w3.org/Graphics/SVG/1.1/DTD/svg11.dtd">
<svg version="1.1" id="Layer_1" xmlns="http://www.w3.org/2000/svg" xmlns:xlink="http://www.w3.org/1999/xlink" x="0px" y="0px"
	 width="442.402px" height="203px" viewBox="39.34 0 442.402 203" enable-background="new 39.34 0 442.402 203"
	 xml:space="preserve">
<g>
	<g>
		<g>
			<path fill="#020304" stroke="#FFFFFF" stroke-width="3" stroke-miterlimit="10" d="M40.868,59.419l-0.028,85.938
				c-0.002,8.076,6.566,14.646,14.646,14.648l170.704,0.061c8.078,0.004,14.648-6.566,14.653-14.646l0.028-85.936
				c0.002-8.077-6.566-14.651-14.645-14.653L55.522,44.776C47.444,44.772,40.87,51.343,40.868,59.419z M199.856,50.682
				l-0.027,83.009c0,1.617,1.311,2.93,2.929,2.93c1.618,0,2.93-1.311,2.931-2.928l0.027-83.009l20.509,0.007
				c4.846,0.001,8.787,3.945,8.787,8.792l-0.029,85.938c-0.002,4.847-3.942,8.785-8.793,8.785l-20.504-0.006l0.002-8.791
				c0.001-1.617-1.311-2.934-2.929-2.934c-1.618-0.002-2.93,1.312-2.931,2.934l-0.002,8.789l-129.687-0.043L70.169,50.64
				L199.856,50.682z M64.31,50.639l-0.034,103.513l-8.789-0.002c-4.847,0-8.788-3.943-8.786-8.791l0.028-85.938
				c0.001-4.847,3.943-8.788,8.792-8.787L64.31,50.639z"/>
		</g>
	</g>
	<g>
		<g>
			<path fill="#020304" stroke="#FFFFFF" stroke-width="3" stroke-miterlimit="10" d="M52.577,90.673l-0.004,11.72
				c0,1.616,1.311,2.933,2.929,2.933c1.619,0,2.93-1.312,2.931-2.931l0.003-11.72c0-1.619-1.312-2.929-2.928-2.931
				C53.89,87.744,52.577,89.055,52.577,90.673z"/>
		</g>
	</g>
	<g>
		<g>
			<path fill="#020304" stroke="#FFFFFF" stroke-width="3" stroke-miterlimit="10" d="M211.557,102.445
				c-0.001,4.846,3.94,8.789,8.787,8.791c4.845,0.002,8.79-3.939,8.792-8.785c0-4.848-3.941-8.792-8.791-8.792
				C215.502,93.657,211.559,97.597,211.557,102.445z M223.275,102.449c0,1.615-1.313,2.928-2.929,2.928
				c-1.616-0.002-2.93-1.312-2.929-2.932c0-1.615,1.315-2.928,2.931-2.929C221.963,99.517,223.277,100.833,223.275,102.449z"/>
		</g>
	</g>
	<g>
		<g>
			<circle fill="#020304" stroke="#FFFFFF" stroke-width="3" stroke-miterlimit="10" cx="55.5" cy="114.112" r="2.929"/>
		</g>
	</g>
</g>
<g>
	<g>
		<g>
			<path fill="#020304" stroke="#FFFFFF" stroke-width="3" stroke-miterlimit="10" d="M465.596,1.5h-85.938
				c-8.076,0-14.646,6.571-14.646,14.648v170.704c0,8.075,6.57,14.647,14.646,14.647h85.938c8.078,0,14.646-6.572,14.646-14.647
				V16.148C480.247,8.071,473.674,1.5,465.596,1.5z M474.385,160.484h-83.01c-1.615,0-2.93,1.312-2.93,2.93
				c0,1.619,1.311,2.93,2.93,2.93h83.01v20.513c0,4.849-3.938,8.789-8.789,8.789h-85.938c-4.846,0-8.789-3.938-8.789-8.789v-20.513
				h8.789c1.619,0,2.93-1.311,2.93-2.93c0-1.617-1.311-2.93-2.93-2.93h-8.789V30.797h103.516V160.484L474.385,160.484z
				 M474.385,24.938H370.872v-8.789c0-4.847,3.941-8.789,8.789-8.789h85.938c4.852,0,8.789,3.94,8.789,8.789v8.789H474.385z"/>
		</g>
	</g>
	<g>
		<g>
			<path fill="#020304" stroke="#FFFFFF" stroke-width="3" stroke-miterlimit="10" d="M434.346,13.219h-11.721
				c-1.615,0-2.93,1.312-2.93,2.93c0,1.618,1.311,2.93,2.93,2.93h11.721c1.619,0,2.936-1.312,2.936-2.93
				C437.278,14.531,435.965,13.219,434.346,13.219z"/>
		</g>
	</g>
	<g>
		<g>
			<path fill="#020304" stroke="#FFFFFF" stroke-width="3" stroke-miterlimit="10" d="M422.629,172.203
				c-4.848,0-8.789,3.941-8.789,8.789s3.941,8.789,8.789,8.789s8.789-3.941,8.789-8.789S427.475,172.203,422.629,172.203z
				 M422.629,183.921c-1.613,0-2.932-1.313-2.932-2.93c0-1.615,1.312-2.934,2.932-2.934c1.615,0,2.932,1.312,2.932,2.934
				C425.559,182.607,424.245,183.921,422.629,183.921z"/>
		</g>
	</g>
	<g>
		<g>
			<circle fill="#020304" stroke="#FFFFFF" stroke-width="3" stroke-miterlimit="10" cx="410.911" cy="16.148" r="2.93"/>
		</g>
	</g>
</g>
<g>
	<g>
		<path fill="#79D199" stroke="#FFFFFF" stroke-width="8" stroke-miterlimit="10" d="M361.585,178.381
			c-3.292,3.48-8.624,3.48-11.903,0l-18.444-19.52c-3.287-3.476-3.287-9.117,0-12.595c3.291-3.478,8.623-3.478,11.903,0
			l10.992,11.626c0.832,0.881,2.175,0.881,3.001,0l29.751-31.48c3.286-3.479,8.616-3.479,11.902,0
			c1.583,1.668,2.466,3.931,2.466,6.294c0,2.369-0.883,4.629-2.466,6.305L361.585,178.381z"/>
	</g>
</g>
<rect x="115.855" y="146.5" fill="#FFFFFF" width="43.946" height="21.74"/>
<g>
	<g>
		<g>
			<path fill="#FF99CC" d="M142.708,157.366l19.116-18.317c1.339-1.297,1.339-3.39,0-4.681c-1.346-1.294-3.542-1.294-4.881,0
				l-19.116,18.322l-19.109-18.324c-1.347-1.292-3.535-1.292-4.881,0c-1.346,1.291-1.346,3.388,0,4.678l19.109,18.32L113.837,175.7
				c-1.346,1.282-1.346,3.389,0,4.68c1.346,1.284,3.535,1.284,4.881,0l19.106-18.334l19.116,18.334c1.339,1.284,3.535,1.284,4.88,0
				c1.339-1.291,1.339-3.397,0-4.68L142.708,157.366z"/>
		</g>
	</g>
</g>
</svg>
