<?xml version="1.0" encoding="utf-8"?>
<!-- Generator: Adobe Illustrator 16.0.0, SVG Export Plug-In . SVG Version: 6.00 Build 0)  -->
<!DOCTYPE svg PUBLIC "-//W3C//DTD SVG 1.1//EN" "http://www.w3.org/Graphics/SVG/1.1/DTD/svg11.dtd">
<svg version="1.1" id="Layer_1" xmlns="http://www.w3.org/2000/svg" xmlns:xlink="http://www.w3.org/1999/xlink" x="0px" y="0px"
	 width="525.945px" height="521.025px" viewBox="0 -25.975 525.945 521.025" enable-background="new 0 -25.975 525.945 521.025"
	 xml:space="preserve">
<g>
	<g>
		<g>
			<path fill="#FFB0CA" stroke="#000000" stroke-width="3" stroke-miterlimit="10" d="M1.543,59.634l-0.028,85.938
				c-0.002,8.077,6.566,14.646,14.646,14.652l170.704,0.057c8.077,0.003,14.646-6.566,14.653-14.646l0.028-85.937
				c0.002-8.077-6.566-14.651-14.644-14.653L16.197,44.991C8.119,44.987,1.545,51.558,1.543,59.634z M160.531,50.897l-0.027,83.008
				c0,1.618,1.311,2.93,2.929,2.931c1.618,0,2.93-1.311,2.931-2.929l0.027-83.008l20.508,0.007c4.847,0.001,8.788,3.945,8.787,8.792
				l-0.029,85.938c-0.001,4.847-3.945,8.786-8.792,8.786l-20.508-0.007l0.002-8.79c0.001-1.617-1.311-2.929-2.929-2.93
				c-1.618-0.001-2.93,1.311-2.931,2.929l-0.002,8.789L30.81,154.37l0.034-103.515L160.531,50.897z M24.984,50.854L24.95,154.367
				l-8.789-0.002c-4.847,0-8.788-3.944-8.786-8.791l0.028-85.938c0.001-4.847,3.938-8.788,8.792-8.787L24.984,50.854z"/>
		</g>
	</g>
	<g>
		<g>
			<path fill="#FFB0CA" stroke="#000000" stroke-width="3" stroke-miterlimit="10" d="M13.252,90.888l-0.004,11.719
				c0,1.618,1.311,2.93,2.929,2.93c1.619,0,2.93-1.31,2.931-2.928l0.003-11.719c0-1.619-1.312-2.929-2.928-2.931
				C14.565,87.959,13.252,89.27,13.252,90.888z"/>
		</g>
	</g>
	<g>
		<g>
			<path fill="#FFB0CA" stroke="#000000" stroke-width="3" stroke-miterlimit="10" d="M172.232,102.659
				c-0.001,4.847,3.94,8.79,8.787,8.792c4.846,0.002,8.79-3.939,8.792-8.786c0-4.847-3.94-8.791-8.787-8.792
				S172.234,97.812,172.232,102.659z M183.951,102.663c0,1.616-1.314,2.929-2.93,2.928s-2.93-1.312-2.929-2.931
				c0-1.615,1.315-2.928,2.931-2.929C182.638,99.732,183.952,101.048,183.951,102.663z"/>
		</g>
	</g>
	<g>
		<g>
			<circle fill="#FFB0CA" stroke="#000000" stroke-width="3" stroke-miterlimit="10" cx="16.174" cy="114.327" r="2.929"/>
		</g>
	</g>
</g>
<g>
	<path fill="#FFB0CA" stroke="#000000" stroke-width="4" stroke-miterlimit="10" d="M197.882,293.335H5.177
		c-1.754,0-3.177,1.422-3.177,3.178V470.16c0,1.754,1.422,3.176,3.177,3.176h192.705c1.755,0,3.177-1.422,3.177-3.176v-33.885
		c0-1.754-1.422-3.176-3.177-3.176c-1.754,0-3.177,1.422-3.177,3.176v30.707H8.353v-141.88h186.352v98.478
		c0,1.754,1.423,3.176,3.177,3.176c1.755,0,3.177-1.422,3.177-3.176V296.513C201.059,294.757,199.637,293.335,197.882,293.335z
		 M8.353,299.688h117.529v19.062H8.353V299.688z M132.235,318.748v-19.061h62.47v19.061H132.235z"/>
	<path fill="#FFB0CA" stroke="#000000" stroke-width="4" stroke-miterlimit="10" d="M163.576,305.83
		c-1.868,0-3.388,1.521-3.388,3.389c0,1.869,1.52,3.394,3.388,3.394c1.869,0,3.389-1.521,3.389-3.394
		C166.965,307.352,165.445,305.83,163.576,305.83z"/>
	<path fill="#FFB0CA" stroke="#000000" stroke-width="4" stroke-miterlimit="10" d="M146.212,305.83
		c-1.868,0-3.388,1.521-3.388,3.389c0,1.869,1.52,3.394,3.388,3.394c1.868,0,3.388-1.521,3.388-3.394
		C149.6,307.352,148.08,305.83,146.212,305.83z"/>
	<path fill="#FFB0CA" stroke="#000000" stroke-width="4" stroke-miterlimit="10" d="M180.941,305.83
		c-1.868,0-3.389,1.521-3.389,3.389c0,1.869,1.521,3.394,3.389,3.394c1.867,0,3.388-1.521,3.388-3.394
		C184.329,307.352,182.809,305.83,180.941,305.83z"/>
</g>
<g>
	<g>
		<g>
			<path fill="#FFB0CA" stroke="#000000" stroke-width="3" stroke-miterlimit="10" d="M465.612,1.5h-85.938
				c-8.077,0-14.647,6.571-14.647,14.648v170.703c0,8.077,6.57,14.648,14.647,14.648h85.938c8.077,0,14.646-6.571,14.646-14.648
				V16.148C480.261,8.071,473.689,1.5,465.612,1.5z M474.4,160.484h-83.009c-1.616,0-2.938,1.312-2.938,2.93s1.312,2.93,2.938,2.93
				H474.4v20.508c0,4.847-3.941,8.789-8.788,8.789h-85.938c-4.847,0-8.789-3.938-8.789-8.789v-20.508h8.789
				c1.618,0,2.93-1.312,2.93-2.93s-1.312-2.93-2.93-2.93h-8.789V30.797H474.4V160.484z M474.4,24.938H370.886v-8.789
				c0-4.847,3.942-8.789,8.789-8.789h85.938c4.847,0,8.789,3.938,8.789,8.789v8.789H474.4z"/>
		</g>
	</g>
	<g>
		<g>
			<path fill="#FFB0CA" stroke="#000000" stroke-width="3" stroke-miterlimit="10" d="M434.362,13.219h-11.721
				c-1.616,0-2.938,1.312-2.938,2.93c0,1.618,1.312,2.93,2.938,2.93h11.721c1.618,0,2.93-1.312,2.93-2.93
				C437.292,14.531,435.98,13.219,434.362,13.219z"/>
		</g>
	</g>
	<g>
		<g>
			<path fill="#FFB0CA" stroke="#000000" stroke-width="3" stroke-miterlimit="10" d="M422.645,172.203
				c-4.848,0-8.788,3.942-8.788,8.789c0,4.847,3.94,8.789,8.788,8.789c4.854,0,8.789-3.942,8.789-8.789
				C431.434,176.145,427.49,172.203,422.645,172.203z M422.645,183.922c-1.604,0-2.931-1.314-2.931-2.93
				c0-1.616,1.314-2.93,2.931-2.93c1.615,0,2.938,1.314,2.938,2.93C425.574,182.608,424.259,183.922,422.645,183.922z"/>
		</g>
	</g>
	<g>
		<g>
			<circle fill="#FFB0CA" stroke="#000000" stroke-width="3" stroke-miterlimit="10" cx="410.925" cy="16.148" r="2.93"/>
		</g>
	</g>
</g>
<g>
	<g>
		<path fill="#FFB0CA" stroke="#000000" stroke-width="4" stroke-miterlimit="10" d="M476.03,292.136H370.754
			c-0.958,0-1.734,1.425-1.734,3.179V468.96c0,1.754,0.776,3.176,1.734,3.176H476.03c0.958,0,1.729-1.422,1.729-3.176v-33.883
			c0-1.754-0.771-3.184-1.729-3.184s-1.735,1.43-1.735,3.184v30.707H372.49V323.902h101.805v98.471c0,1.754,0.777,3.176,1.735,3.176
			s1.729-1.422,1.729-3.176V295.312C477.766,293.561,476.988,292.136,476.03,292.136z M372.49,298.49h64.206v19.059H372.49V298.49z
			 M440.167,317.548V298.49h34.127v19.059H440.167L440.167,317.548z"/>
		<path fill="#FFB0CA" stroke="#000000" stroke-miterlimit="10" d="M457.289,305.664c-1.021,0-1.852,1.053-1.852,2.349
			c0,1.293,0.829,2.354,1.852,2.354c1.021,0,1.852-1.062,1.852-2.354C459.139,306.716,458.309,305.664,457.289,305.664z"/>
		<path fill="#FFB0CA" stroke="#000000" stroke-miterlimit="10" d="M447.802,305.664c-1.021,0-1.852,1.053-1.852,2.349
			c0,1.293,0.831,2.354,1.852,2.354c1.021,0,1.854-1.062,1.854-2.354C449.653,306.716,448.823,305.664,447.802,305.664z"/>
		<path fill="#FFB0CA" stroke="#000000" stroke-miterlimit="10" d="M466.775,305.664c-1.021,0-1.854,1.053-1.854,2.349
			c0,1.293,0.83,2.354,1.854,2.354c1.021,0,1.851-1.062,1.851-2.354C468.626,306.716,467.795,305.664,466.775,305.664z"/>
	</g>
	
		<line fill="none" stroke="#FFB0CA" stroke-width="2.5" stroke-miterlimit="10" x1="476.03" y1="294.158" x2="475.445" y2="470.052"/>
	
		<line fill="none" stroke="#FFB0CA" stroke-width="2.5" stroke-miterlimit="10" x1="371.076" y1="294.408" x2="370.491" y2="470.302"/>
</g>
<g>
	<path fill="#FFB0CA" d="M340.38,379.15c-0.545-0.562-1.452-0.562-2.016,0c-0.545,0.547-0.545,1.451,0,1.994l10.221,10.225h-33.729
		c-0.774,0.002-1.399,0.625-1.399,1.412c0,0.785,0.625,1.432,1.399,1.432h33.729l-10.221,10.203c-0.545,0.562-0.545,1.474,0,2.017
		c0.562,0.563,1.473,0.563,2.016,0l12.643-12.644c0.562-0.545,0.562-1.451,0-1.994L340.38,379.15z"/>
</g>
<g>
	<g>
		<g>
			<path fill="#FFB0CA" d="M524.531,392.994h-32.172c-0.781,0-1.414,0.633-1.414,1.412s0.633,1.414,1.414,1.414h32.172
				c0.778,0,1.414-0.635,1.414-1.414S525.311,392.994,524.531,392.994z"/>
		</g>
	</g>
	<g>
		<g>
			<path fill="#FFB0CA" d="M494.357,394.406l11.062-11.064c0.554-0.553,0.554-1.44,0-2c-0.553-0.551-1.446-0.551-2,0l-12.062,12.066
				c-0.56,0.551-0.56,1.443,0,1.998l12.062,12.062c0.277,0.275,0.642,0.414,1,0.414c0.362,0,0.729-0.139,1-0.414
				c0.554-0.553,0.554-1.444,0-2L494.357,394.406z"/>
		</g>
	</g>
</g>
<g>
	<g>
		<g>
			<path fill="#FF5F93" stroke="#000000" stroke-width="2" stroke-miterlimit="10" d="M105.02,159.092l19.116-19.104
				c1.339-1.354,1.339-3.535,0-4.881c-1.346-1.347-3.542-1.347-4.881,0l-19.116,19.107l-19.104-19.11
				c-1.347-1.347-3.535-1.347-4.881,0c-1.352,1.346-1.352,3.535,0,4.881l19.104,19.104L76.15,178.205
				c-1.348,1.339-1.348,3.535,0,4.881c1.346,1.34,3.535,1.34,4.881,0l19.104-19.116l19.116,19.116c1.339,1.34,3.535,1.34,4.88,0
				c1.339-1.346,1.339-3.542,0-4.881L105.02,159.092z"/>
		</g>
	</g>
</g>
<g>
	<g>
		<g>
			<path fill="#FF5F93" stroke="#000000" stroke-width="2" stroke-miterlimit="10" d="M106.41,470.05l19.116-19.104
				c1.339-1.355,1.339-3.535,0-4.893c-1.346-1.352-3.542-1.352-4.881,0l-19.116,19.105l-19.109-19.1
				c-1.347-1.354-3.535-1.354-4.881,0c-1.346,1.348-1.346,3.527,0,4.881l19.109,19.105l-19.109,19.117
				c-1.346,1.338-1.346,3.535,0,4.881c1.346,1.34,3.535,1.34,4.881,0l19.108-19.113l19.116,19.113c1.339,1.34,3.535,1.34,4.88,0
				c1.339-1.346,1.339-3.543,0-4.881L106.41,470.05z"/>
		</g>
	</g>
</g>
<g>
	<g>
		<path fill="#00DFAE" stroke="#000000" stroke-width="7" stroke-miterlimit="10" d="M367.65,180.606
			c-2.729,2.722-7.146,2.722-9.855,0L342.53,165.34c-2.721-2.719-2.721-7.132,0-9.851c2.719-2.721,7.133-2.721,9.852,0l9.1,9.094
			c0.688,0.685,1.812,0.685,2.485,0l24.628-24.628c2.721-2.721,7.134-2.721,9.854,0c1.306,1.306,2.041,3.077,2.041,4.925
			c0,1.849-0.735,3.621-2.041,4.926L367.65,180.606z"/>
	</g>
</g>
<g>
	<g>
		<path fill="#00DFAE" stroke="#000000" stroke-width="7" stroke-miterlimit="10" d="M367.623,480.884
			c-2.721,2.721-7.135,2.721-9.855,0l-15.265-15.268c-2.72-2.727-2.72-7.139,0-9.855c2.719-2.727,7.133-2.727,9.853,0l9.104,9.094
			c0.688,0.689,1.801,0.689,2.479,0l24.629-24.627c2.727-2.727,7.141-2.727,9.854,0c1.309,1.312,2.041,3.076,2.041,4.932
			c0,1.848-0.732,3.613-2.041,4.926L367.623,480.884z"/>
	</g>
</g>
<g>
	<g>
		<g>
			<path fill="#FFB0CA" stroke="#000000" stroke-miterlimit="10" d="M120.127,407.8l-29.164-29.164
				c-0.42-0.414-1.044-0.541-1.589-0.311c-0.545,0.225-0.901,0.758-0.901,1.346v40.381c0,0.562,0.318,1.064,0.819,1.312
				c0.502,0.246,1.1,0.186,1.535-0.16l7.404-5.789l6.463,11.631c0.268,0.479,0.764,0.75,1.271,0.75c0.219,0,0.444-0.051,0.655-0.154
				l8.75-4.373c0.355-0.18,0.624-0.488,0.74-0.873c0.116-0.381,0.074-0.795-0.116-1.141l-6.09-10.957h9.187
				c0.589,0,1.121-0.354,1.354-0.901C120.67,408.847,120.544,408.218,120.127,407.8z M107.431,407.378
				c-0.516,0-0.994,0.274-1.256,0.719c-0.263,0.445-0.271,0.996-0.021,1.449l6.554,11.791l-6.14,3.07l-6.611-11.904
				c-0.208-0.375-0.569-0.64-0.986-0.726c-0.099-0.021-0.196-0.028-0.292-0.028c-0.321,0-0.642,0.104-0.896,0.312l-6.396,4.998
				V383.19l24.189,24.188H107.431L107.431,407.378z"/>
		</g>
	</g>
	<g>
		<g>
			<path fill="#FFB0CA" stroke="#000000" stroke-miterlimit="10" d="M89.931,357.791c-0.805,0-1.458,0.654-1.458,1.457v8.75
				c0,0.808,0.653,1.459,1.458,1.459c0.812,0,1.458-0.651,1.458-1.459v-8.75C91.388,358.445,90.735,357.791,89.931,357.791z"/>
		</g>
	</g>
	<g>
		<g>
			<path fill="#FFB0CA" stroke="#000000" stroke-miterlimit="10" d="M78.265,378.207h-8.75c-0.805,0-1.458,0.65-1.458,1.457
				c0,0.805,0.653,1.457,1.458,1.457h8.75c0.812,0,1.458-0.652,1.458-1.457C79.723,378.857,79.07,378.207,78.265,378.207z"/>
		</g>
	</g>
	<g>
		<g>
			<path fill="#FFB0CA" stroke="#000000" stroke-miterlimit="10" d="M110.345,378.207h-8.749c-0.805,0-1.458,0.65-1.458,1.457
				c0,0.805,0.654,1.457,1.458,1.457h8.749c0.805,0,1.459-0.652,1.459-1.457C111.805,378.857,111.15,378.207,110.345,378.207z"/>
		</g>
	</g>
	<g>
		<g>
			<path fill="#FFB0CA" stroke="#000000" stroke-miterlimit="10" d="M82.712,370.382l-6.188-6.187c-0.568-0.567-1.493-0.567-2.062,0
				c-0.568,0.562-0.568,1.487,0,2.062l6.189,6.188c0.286,0.275,0.659,0.427,1.032,0.427s0.747-0.146,1.029-0.427
				C83.281,371.876,83.281,370.953,82.712,370.382z"/>
		</g>
	</g>
	<g>
		<g>
			<path fill="#FFB0CA" stroke="#000000" stroke-miterlimit="10" d="M82.712,386.884c-0.568-0.564-1.493-0.564-2.062,0l-6.189,6.188
				c-0.568,0.562-0.568,1.49,0,2.062c0.287,0.281,0.66,0.427,1.032,0.427c0.374,0,0.747-0.146,1.03-0.427l6.188-6.188
				C83.281,388.376,83.281,387.455,82.712,386.884z"/>
		</g>
	</g>
	<g>
		<g>
			<path fill="#FFB0CA" stroke="#000000" stroke-miterlimit="10" d="M105.399,364.197c-0.569-0.57-1.494-0.57-2.064,0l-6.189,6.186
				c-0.568,0.57-0.568,1.494,0,2.062c0.286,0.281,0.66,0.426,1.033,0.426c0.373,0,0.746-0.143,1.032-0.426l6.188-6.188
				C105.969,365.688,105.969,364.771,105.399,364.197z"/>
		</g>
	</g>
</g>
<g>
	<g>
		<g>
			<path fill="#FFB0CA" stroke="#000000" stroke-miterlimit="10" d="M449.213,408.003l-29.164-29.164
				c-0.42-0.414-1.045-0.543-1.59-0.313s-0.9,0.765-0.9,1.353v40.381c0,0.562,0.317,1.062,0.818,1.312
				c0.503,0.242,1.1,0.186,1.535-0.16l7.404-5.789l6.463,11.631c0.269,0.48,0.764,0.75,1.276,0.75c0.22,0,0.438-0.051,0.646-0.152
				l8.75-4.371c0.354-0.184,0.623-0.492,0.739-0.873c0.105-0.383,0.062-0.797-0.116-1.145l-6.09-10.957h9.188
				c0.597,0,1.12-0.354,1.354-0.896C449.756,409.048,449.63,408.419,449.213,408.003z M436.518,407.582
				c-0.516,0-0.993,0.271-1.256,0.719c-0.264,0.443-0.271,0.994-0.021,1.447l6.555,11.791l-6.141,3.07l-6.611-11.902
				c-0.207-0.375-0.567-0.643-0.985-0.727c-0.099-0.021-0.188-0.027-0.291-0.027c-0.312,0-0.642,0.105-0.896,0.31l-6.396,4.997
				v-33.862l24.188,24.188h-8.146V407.582L436.518,407.582z"/>
		</g>
	</g>
	<g>
		<g>
			<path fill="#FFB0CA" stroke="#000000" stroke-miterlimit="10" d="M419.018,357.994c-0.807,0-1.459,0.65-1.459,1.455v8.75
				c0,0.807,0.652,1.459,1.459,1.459c0.812,0,1.457-0.652,1.457-1.459v-8.75C420.475,358.646,419.821,357.994,419.018,357.994z"/>
		</g>
	</g>
	<g>
		<g>
			<path fill="#FFB0CA" stroke="#000000" stroke-miterlimit="10" d="M407.352,378.408h-8.75c-0.805,0-1.457,0.65-1.457,1.457
				s0.652,1.459,1.457,1.459h8.75c0.812,0,1.457-0.652,1.457-1.459C408.809,379.062,408.156,378.408,407.352,378.408z"/>
		</g>
	</g>
	<g>
		<g>
			<path fill="#FFB0CA" stroke="#000000" stroke-miterlimit="10" d="M439.432,378.408h-8.75c-0.805,0-1.457,0.65-1.457,1.457
				s0.652,1.459,1.457,1.459h8.75c0.812,0,1.459-0.652,1.459-1.459C440.891,379.062,440.236,378.408,439.432,378.408z"/>
		</g>
	</g>
	<g>
		<g>
			<path fill="#FFB0CA" stroke="#000000" stroke-miterlimit="10" d="M411.798,370.585l-6.188-6.188
				c-0.568-0.563-1.492-0.563-2.062,0c-0.566,0.565-0.566,1.494,0,2.062l6.189,6.188c0.286,0.276,0.656,0.429,1.031,0.429
				c0.373,0,0.746-0.146,1.021-0.429C412.367,372.078,412.367,371.156,411.798,370.585z"/>
		</g>
	</g>
	<g>
		<g>
			<path fill="#FFB0CA" stroke="#000000" stroke-miterlimit="10" d="M411.798,387.085c-0.566-0.565-1.493-0.565-2.062,0
				l-6.189,6.188c-0.565,0.566-0.565,1.494,0,2.062c0.287,0.281,0.66,0.424,1.033,0.424s0.746-0.143,1.029-0.424l6.188-6.188
				C412.367,388.58,412.367,387.656,411.798,387.085z"/>
		</g>
	</g>
	<g>
		<g>
			<path fill="#FFB0CA" stroke="#000000" stroke-miterlimit="10" d="M434.484,364.396c-0.568-0.568-1.492-0.568-2.063,0
				l-6.188,6.188c-0.562,0.57-0.562,1.492,0,2.062c0.284,0.277,0.657,0.428,1.032,0.428c0.372,0,0.744-0.143,1.031-0.428
				l6.188-6.188C435.055,365.893,435.055,364.972,434.484,364.396z"/>
		</g>
	</g>
</g>
<g>
	<path fill="#FAB6D6" d="M278.455,236.458c2.443-2.534,3.791-5.87,3.791-9.395c0-7.464-6.07-13.534-13.534-13.534
		c-7.462,0-13.533,6.069-13.533,13.534c0,3.523,1.347,6.86,3.793,9.395c0.431,0.45,0.42,1.163-0.028,1.597
		c-0.22,0.21-0.5,0.316-0.782,0.316c-0.296,0-0.589-0.115-0.811-0.346c-2.854-2.957-4.427-6.852-4.427-10.962
		c0-8.708,7.083-15.791,15.791-15.791c8.707,0,15.791,7.083,15.791,15.791c0,4.11-1.572,8.005-4.426,10.962
		c-0.434,0.45-1.145,0.46-1.596,0.029C278.033,237.621,278.02,236.909,278.455,236.458z M252.035,244.958
		c0.443-0.435,0.453-1.148,0.018-1.595c-4.288-4.382-6.65-10.169-6.65-16.3c0-12.853,10.457-23.309,23.309-23.309
		c12.853,0,23.31,10.457,23.31,23.309c0,6.132-2.361,11.92-6.65,16.301c-0.434,0.445-0.428,1.159,0.02,1.597
		c0.221,0.213,0.504,0.322,0.789,0.322c0.291,0,0.584-0.115,0.805-0.339c4.703-4.805,7.293-11.156,7.293-17.881
		c0-14.097-11.467-25.565-25.563-25.565s-25.564,11.468-25.564,25.565c0,6.725,2.59,13.072,7.292,17.88
		C250.875,245.386,251.59,245.395,252.035,244.958z M299.113,293.353l-1.295,4.166c-0.146,0.475-0.588,0.799-1.086,0.799l0,0
		l-24.119-0.035c-0.475,0-0.896-0.296-1.064-0.738c-0.166-0.442-0.041-0.941,0.317-1.254c-0.003,0,0.19-0.215,0.177-0.604
		c-0.018-0.38-0.256-1.2-1.662-2.404c-0.439-0.418-9.898-9.391-13.928-16.41c-1.113-1.567-9.352-13.418-7.378-18.631
		c0.467-1.236,1.438-2.064,2.817-2.398c0.622-0.223,1.255-0.334,1.887-0.334c3.619,0,6.303,3.553,8.263,6.146
		c0.433,0.574,0.976,1.292,1.383,1.74c0.177-0.79,0.367-2.56,0.349-6.531c0-0.04,0-0.082,0.006-0.124
		c0.006-0.06,0.602-6.001,0.637-24.976c-0.23-0.047-0.454-0.147-0.621-0.336c-1.07-1.204-1.658-2.753-1.658-4.366
		c0-3.628,2.951-6.58,6.578-6.58c3.628,0,6.578,2.952,6.578,6.58c0,1.433-0.484,2.797-1.338,3.932
		c0.023,0.229,0.049,0.468,0.076,0.725c0.222,2.191,0.459,5.061,0.709,8.097c0.328,3.991,0.756,9.159,1.089,11.543
		c0.983-0.504,2.384-1.04,3.901-1.04c1.674,0,3.924,0.649,5.592,3.562c0.775-0.295,1.895-0.614,3.121-0.614
		c1.979,0,4.604,0.81,6.139,4.552c1.393,0.247,4.467,1.044,6.471,3.441c1.404,1.68,2.008,3.789,1.804,6.275
		C303.027,269.096,304.426,283.108,299.113,293.353z M264.389,227.064c0,0.458,0.086,0.904,0.226,1.332
		c0.692-4.083,2.442-5.004,3.87-5.004c1.927,0,3.709,1.793,4.525,3.44c-0.123-2.274-1.992-4.091-4.299-4.091
		C266.326,222.74,264.389,224.68,264.389,227.064z M300.578,267.691c-0.01-0.081-0.01-0.163-0.004-0.245
		c0.18-1.905-0.246-3.493-1.265-4.717c-1.981-2.392-5.624-2.743-5.661-2.748c-0.445-0.041-0.832-0.34-0.976-0.762
		c-0.854-2.479-2.241-3.681-4.237-3.681c-1.623,0-3.062,0.808-3.076,0.813c-0.275,0.157-0.611,0.194-0.916,0.094
		c-0.305-0.1-0.555-0.321-0.685-0.614c-0.979-2.18-2.299-3.24-4.032-3.24c-2.015,0-3.92,1.424-3.939,1.438
		c-0.288,0.223-0.668,0.292-1.014,0.188c-1.049-0.311-1.16-0.342-2.305-14.214c-0.261-3.13-0.56-6.77-0.812-9.078
		c-0.016-0.076-0.027-0.145-0.026-0.22c-0.103-0.908-0.196-1.591-0.276-1.904c-0.073-0.114-0.125-0.242-0.155-0.378
		c-0.235-1.09-1.734-2.76-2.718-2.76c-0.643,0-1.498,1.146-1.799,4.374c-0.002,19.65-0.572,26.142-0.645,26.879
		c0.025,6.189-0.413,7.853-1.182,8.621c-0.324,0.328-0.729,0.502-1.172,0.502c-1.188,0-2.093-1.199-3.463-3.012
		c-1.672-2.215-3.961-5.244-6.449-5.244c-0.386,0-0.781,0.072-1.171,0.217c-0.044,0.018-0.089,0.029-0.135,0.041
		c-0.867,0.199-1.134,0.642-1.273,1.004c-1.181,3.123,3.75,11.812,7.136,16.553c0.023,0.029,0.042,0.062,0.062,0.098
		c3.847,6.732,13.412,15.811,13.506,15.898c1.582,1.354,2.406,2.757,2.414,4.125c0,0.101-0.004,0.197-0.013,0.293l21.595,0.029
		l1.078-3.463c0.02-0.063,0.045-0.127,0.075-0.188C302.291,282.388,300.598,267.837,300.578,267.691z"/>
</g>
</svg>
