<?xml version="1.0" encoding="utf-8"?>
<!-- Generator: Adobe Illustrator 21.1.0, SVG Export Plug-In . SVG Version: 6.00 Build 0)  -->
<svg version="1.1" id="Layer_1" xmlns="http://www.w3.org/2000/svg" xmlns:xlink="http://www.w3.org/1999/xlink" x="0px" y="0px"
	 viewBox="0 0 108.1 105.4" style="enable-background:new 0 0 108.1 105.4;" xml:space="preserve">
<style type="text/css">
	.st0{fill:#FFFFFF;stroke:#222222;stroke-width:3.5;stroke-miterlimit:10;}
	.st1{fill:#EEEEEE;}
</style>
<path class="st0" d="M93.8,103.9H14.3c-7.1,0-12.8-5.6-12.8-12.5V14c0-6.9,5.7-12.5,12.8-12.5h79.4c7.1,0,12.8,5.6,12.8,12.5v77.3
	C106.6,98.3,100.9,103.9,93.8,103.9z"/>
<path class="st1" d="M90.3,102H13.8c-5.8,0-10.4-4.7-10.4-10.4V16.6c0-5.8,4.7-10.4,10.4-10.4h76.5c5.8,0,10.4,4.7,10.4,10.4v74.9
	C100.7,97.3,96.1,102,90.3,102z"/>
<g>
	<path d="M29.5,42.4c-0.5,0-0.9-0.4-0.9-1c0-0.6,0.3-1,0.9-1H52c0.5,0,0.9,0.4,0.9,1c0,0.5-0.3,1-0.9,1H39c0,1.6-0.1,3.2-0.3,4.8
		h8.8c1.7,0,2.5,0.7,2.5,2.3c-0.1,4.4-0.6,8-1.3,10.3c-0.6,2-1.8,2.6-4.2,2.6c-1.5,0-2.9-0.2-4-0.5c-0.4-0.1-0.7-0.4-0.7-0.9
		c0-0.1,0-0.2,0.1-0.4c0.1-0.5,0.5-0.8,0.9-0.8c0.1,0,0.2,0,0.2,0c0.9,0.3,2.3,0.5,3.3,0.5c1.5,0,2.1-0.3,2.4-1.3
		c0.6-2.1,1-5.4,1.1-9.2c0-0.6-0.3-0.8-0.8-0.8h-8.6c-0.4,2.4-1.1,4.5-2,6.4c-1.4,2.8-3.4,5.2-5.9,7c-0.2,0.2-0.5,0.3-0.8,0.3
		c-0.3,0-0.7-0.1-0.9-0.4c-0.2-0.2-0.3-0.5-0.3-0.7c0-0.3,0.2-0.6,0.5-0.8c2.3-1.7,4.2-3.7,5.5-6.4c1.5-3.2,2.2-7,2.2-11.9H29.5z"/>
	<path d="M60,52c-1.6,0-2.5-0.6-2.5-2.2V42c0-1.6,0.8-2.2,2.5-2.2h14.6c1.6,0,2.5,0.6,2.5,2.2v7.7c0,1.6-0.8,2.2-2.5,2.2h-6.5v2.8h9
		c0.5,0,0.7,0.4,0.7,0.9c0,0.5-0.3,0.9-0.7,0.9h-9V60h10.6c0.5,0,0.7,0.4,0.7,0.9s-0.3,0.9-0.7,0.9H56c-0.5,0-0.8-0.4-0.8-0.9
		S55.5,60,56,60h10.2v-3.4h-8.7c-0.5,0-0.7-0.4-0.7-0.9c0-0.5,0.3-0.9,0.7-0.9h8.7V52H60z M60.5,41.6c-0.6,0-1,0.2-1,0.8V45h6.6
		v-3.4H60.5z M59.5,46.7v2.8c0,0.6,0.3,0.8,1,0.8h5.6v-3.5H59.5z M68.1,45H75v-2.6c0-0.6-0.3-0.8-1-0.8h-6V45z M68.1,50.2h6
		c0.6,0,1-0.2,1-0.8v-2.8h-6.9V50.2z"/>
</g>
</svg>
