<?xml version="1.0" encoding="utf-8"?>
<!-- Generator: Adobe Illustrator 21.1.0, SVG Export Plug-In . SVG Version: 6.00 Build 0)  -->
<svg version="1.1" id="Layer_1" xmlns="http://www.w3.org/2000/svg" xmlns:xlink="http://www.w3.org/1999/xlink" x="0px" y="0px"
	 viewBox="0 0 108.1 105.4" style="enable-background:new 0 0 108.1 105.4;" xml:space="preserve">
<style type="text/css">
	.st0{fill:#FFFFFF;stroke:#222222;stroke-width:3.5;stroke-miterlimit:10;}
	.st1{fill:#EEEEEE;}
</style>
<path class="st0" d="M93.8,103.9H14.3c-7.1,0-12.8-5.6-12.8-12.5V14c0-6.9,5.7-12.5,12.8-12.5h79.4c7.1,0,12.8,5.6,12.8,12.5v77.3
	C106.6,98.3,100.9,103.9,93.8,103.9z"/>
<path class="st1" d="M90.3,102H13.8c-5.8,0-10.4-4.7-10.4-10.4V16.6c0-5.8,4.7-10.4,10.4-10.4h76.5c5.8,0,10.4,4.7,10.4,10.4v74.9
	C100.7,97.3,96.1,102,90.3,102z"/>
<g>
	<path d="M29.4,50.7c-0.5,0-0.8-0.4-0.8-1c0-0.6,0.3-1,0.8-1h10V43c-2.7,0.4-5.5,0.6-8.2,0.7c-0.6,0-1-0.5-1-1c0-0.6,0.3-1,0.9-1
		c6.2-0.2,12.3-1.1,17.2-2.8c0.1-0.1,0.3-0.1,0.4-0.1c0.4,0,0.7,0.2,0.9,0.6c0.1,0.2,0.1,0.4,0.1,0.5c0,0.4-0.2,0.7-0.6,0.9
		c-2.3,0.7-4.8,1.3-7.4,1.8v6H52c0.5,0,0.8,0.5,0.8,1c0,0.6-0.3,1-0.8,1H41.7V62c0,0.6-0.5,0.9-1.1,0.9s-1.1-0.3-1.1-0.9V50.7H29.4z
		"/>
	<path d="M60,47.1c-1.5,0-2.3-0.6-2.3-2.1v-3.5c0-1.5,0.7-2.1,2.3-2.1h14.6c1.5,0,2.3,0.6,2.3,2.1V45c0,1.5-0.7,2.1-2.3,2.1h-6.5
		v1.5h10.8c0.4,0,0.7,0.3,0.7,0.8c0,0.5-0.2,0.8-0.7,0.8H55.7c-0.4,0-0.7-0.3-0.7-0.8c0-0.5,0.2-0.8,0.7-0.8h10.5v-1.5H60z
		 M62.9,58.4c0,0.2-0.1,0.5-0.3,0.7c-1.4,1.4-3.6,2.6-5.5,3.3c-0.2,0.1-0.4,0.1-0.6,0.1c-0.4,0-0.6-0.2-0.8-0.5
		c-0.1-0.2-0.1-0.4-0.1-0.5c0-0.4,0.3-0.7,0.7-0.8c1.8-0.7,3.7-1.7,5-2.9c0.2-0.2,0.4-0.2,0.6-0.2c0.3,0,0.5,0.1,0.7,0.3
		C62.8,57.9,62.9,58.1,62.9,58.4z M60.4,56.8c-1.4,0-2.1-0.5-2.1-1.8v-1.6c0-1.3,0.7-1.8,2.1-1.8h13.6c1.5,0,2.2,0.5,2.2,1.8V55
		c0,1.3-0.7,1.8-2.1,1.8h-5.9v3.7c0,1.6-0.7,2.3-2.7,2.3c-1,0-1.8-0.1-2.5-0.2c-0.4-0.1-0.6-0.4-0.6-0.8c0-0.1,0-0.2,0-0.3
		c0.2-0.5,0.4-0.7,0.8-0.7c0.1,0,0.1,0,0.2,0c0.6,0.2,1.3,0.2,1.9,0.2c0.7,0,1-0.2,1-1v-3.2H60.4z M75,42.6v-1
		c0-0.5-0.3-0.6-0.7-0.6H60.4c-0.5,0-0.7,0.2-0.7,0.6v1H75z M59.6,45c0,0.5,0.3,0.6,0.7,0.6h13.9c0.5,0,0.7-0.1,0.7-0.6v-1H59.6V45z
		 M73.6,55.3c0.5,0,0.8-0.1,0.8-0.6v-1c0-0.5-0.3-0.6-0.8-0.6H61c-0.5,0-0.8,0.1-0.8,0.6v1c0,0.5,0.3,0.6,0.8,0.6H73.6z M78.3,60.5
		c0.4,0.2,0.6,0.5,0.6,0.8c0,0.2,0,0.3-0.1,0.5c-0.2,0.4-0.5,0.7-1,0.7c-0.2,0-0.3,0-0.5-0.1c-1.7-0.6-4-1.9-5.5-3.2
		c-0.3-0.2-0.4-0.5-0.4-0.8c0-0.2,0.1-0.4,0.3-0.6c0.2-0.2,0.5-0.3,0.7-0.3c0.2,0,0.5,0.1,0.7,0.3C74.5,58.8,76.4,59.8,78.3,60.5z"
		/>
</g>
</svg>
