<?xml version="1.0" encoding="utf-8"?>
<!-- Generator: Adobe Illustrator 21.1.0, SVG Export Plug-In . SVG Version: 6.00 Build 0)  -->
<svg version="1.1" id="Layer_1" xmlns="http://www.w3.org/2000/svg" xmlns:xlink="http://www.w3.org/1999/xlink" x="0px" y="0px"
	 viewBox="0 0 108.1 105.4" style="enable-background:new 0 0 108.1 105.4;" xml:space="preserve">
<style type="text/css">
	.st0{fill:#FFFFFF;stroke:#222222;stroke-width:3.5;stroke-miterlimit:10;}
	.st1{fill:#EEEEEE;}
</style>
<path class="st0" d="M93.8,103.9H14.3c-7.1,0-12.8-5.6-12.8-12.5V14c0-6.9,5.7-12.5,12.8-12.5h79.4c7.1,0,12.8,5.6,12.8,12.5v77.3
	C106.6,98.3,100.9,103.9,93.8,103.9z"/>
<path class="st1" d="M90.3,102H13.8c-5.8,0-10.4-4.7-10.4-10.4V16.6c0-5.8,4.7-10.4,10.4-10.4h76.5c5.8,0,10.4,4.7,10.4,10.4v74.9
	C100.7,97.3,96.1,102,90.3,102z"/>
<g>
	<path d="M48.8,46c0-0.5,0.3-0.8,0.9-0.8c0.6,0,1,0.3,1,0.8v4.4c3.1-1.6,5.8-3.7,7.6-5.9c0.2-0.3,0.5-0.4,0.8-0.4
		c0.2,0,0.4,0.1,0.6,0.2c0.3,0.2,0.5,0.5,0.5,0.8c0,0.2-0.1,0.3-0.2,0.5c-2.3,2.6-5.3,4.7-8.6,6.4c0.5,0.1,1.3,0.1,2.8,0.1
		c3.9,0,4.2-0.2,4.6-0.7c0.3-0.4,0.3-1.1,0.4-1.6c0-0.4,0.3-0.7,0.8-0.7c0.1,0,0.1,0,0.2,0c0.5,0.1,0.8,0.4,0.8,0.9
		c0,0.1,0,0.1,0,0.2c0,0.7-0.2,1.8-0.6,2.4c-0.4,0.5-0.9,1-2.2,1.1c-1.1,0.1-2.4,0.2-3.7,0.2c-1.3,0-2.6-0.1-3.6-0.1
		c-0.8-0.1-1.3-0.2-1.6-0.5c-2,0.9-4,1.7-6.1,2.2c-0.1,0-0.2,0.1-0.3,0.1c-0.4,0-0.8-0.2-0.9-0.7c0-0.1-0.1-0.2-0.1-0.3
		c0-0.4,0.3-0.7,0.7-0.8c2-0.5,4.2-1.2,6.2-2.1V46z M63.3,41.3c1.6,0,2.3,0.7,2.3,2.1v2.4c0,0.5-0.4,0.8-1,0.8c-0.6,0-1-0.3-1-0.8
		v-2c0-0.5-0.3-0.7-0.8-0.7H45.3c-0.6,0-0.8,0.2-0.8,0.7v2c0,0.5-0.3,0.8-1,0.8s-1-0.3-1-0.8v-2.4c0-1.4,0.7-2.1,2.3-2.1h8.1v-1.8
		c0-0.5,0.3-0.7,1-0.7c0.7,0,1,0.2,1,0.7v1.8H63.3z M47.6,46.8c0,0.1,0,0.3-0.1,0.4c-0.7,1.3-1.8,2.9-3,3.8
		c-0.2,0.2-0.5,0.3-0.8,0.3c-0.2,0-0.5-0.1-0.7-0.3c-0.2-0.2-0.3-0.4-0.3-0.6s0.1-0.5,0.4-0.7c1.1-0.9,2-2.2,2.7-3.4
		c0.2-0.3,0.4-0.4,0.7-0.4c0.2,0,0.3,0,0.5,0.1C47.4,46.3,47.6,46.5,47.6,46.8z M60.8,60.4c0.5,0,0.8-0.1,0.8-0.7v-3.3
		c0-0.4,0.4-0.8,1-0.8c0.6,0,1,0.3,1,0.8v3.7c0,1.5-0.7,2.1-2.3,2.1H46.6c-1.5,0-2.2-0.6-2.2-2.1v-3.5c0-0.5,0.4-0.8,1-0.8
		c0.6,0,1,0.3,1,0.8v3.2c0,0.5,0.2,0.7,0.8,0.7h5.6v-5.3c0-0.4,0.4-0.7,1-0.7c0.6,0,1,0.3,1,0.7v5.3H60.8z M55.3,45.3
		c0.2,0.1,0.2,0.3,0.2,0.5s-0.1,0.4-0.3,0.6c-0.2,0.2-0.5,0.3-0.7,0.3c-0.2,0-0.4-0.1-0.5-0.2c-0.7-0.6-1.6-1.3-2.5-1.7
		c-0.3-0.2-0.5-0.4-0.5-0.6c0-0.2,0.1-0.3,0.2-0.5c0.2-0.2,0.5-0.3,0.7-0.3c0.2,0,0.3,0,0.5,0.1C53.4,44,54.5,44.7,55.3,45.3z
		 M61.6,46.3c0.3,0,0.5,0.1,0.7,0.3c1.2,1.2,2.3,2.5,3.1,3.7c0.2,0.2,0.2,0.4,0.2,0.6c0,0.3-0.1,0.6-0.4,0.8
		c-0.2,0.2-0.4,0.2-0.7,0.2c-0.3,0-0.5-0.1-0.6-0.3c-0.8-1.3-1.8-2.7-3-3.8c-0.2-0.2-0.3-0.4-0.3-0.6c0-0.2,0.1-0.4,0.3-0.6
		C61.1,46.4,61.4,46.3,61.6,46.3z"/>
</g>
</svg>
