<?xml version="1.0" encoding="utf-8"?>
<!-- Generator: Adobe Illustrator 21.1.0, SVG Export Plug-In . SVG Version: 6.00 Build 0)  -->
<svg version="1.1" id="Layer_1" xmlns="http://www.w3.org/2000/svg" xmlns:xlink="http://www.w3.org/1999/xlink" x="0px" y="0px"
	 viewBox="0 0 108.1 105.4" style="enable-background:new 0 0 108.1 105.4;" xml:space="preserve">
<style type="text/css">
	.st0{fill:#FFFFFF;stroke:#222222;stroke-width:3.5;stroke-miterlimit:10;}
	.st1{fill:#EEEEEE;}
</style>
<path class="st0" d="M93.8,103.9H14.3c-7.1,0-12.8-5.6-12.8-12.5V14c0-6.9,5.7-12.5,12.8-12.5h79.4c7.1,0,12.8,5.6,12.8,12.5v77.3
	C106.6,98.3,100.9,103.9,93.8,103.9z"/>
<path class="st1" d="M90.3,102H13.8c-5.8,0-10.4-4.7-10.4-10.4V16.6c0-5.8,4.7-10.4,10.4-10.4h76.5c5.8,0,10.4,4.7,10.4,10.4v74.9
	C100.7,97.3,96.1,102,90.3,102z"/>
<g>
	<path d="M65.4,42.8c0.5,0,0.7,0.3,0.7,0.8s-0.3,0.9-0.7,0.9h-6.3c1.7,2.4,4.4,4.5,6.9,5.7c0.4,0.2,0.6,0.5,0.6,0.8
		c0,0.2-0.1,0.4-0.2,0.6C66.3,51.9,66,52,65.7,52c-0.2,0-0.4-0.1-0.6-0.2c-1.1-0.6-2.2-1.3-3.3-2.2c0,0.4-0.3,0.6-0.6,0.6H46.6
		c-0.4,0-0.6-0.2-0.7-0.6c-1.1,0.8-2.1,1.6-3,2.1c-0.2,0.1-0.5,0.2-0.6,0.2c-0.3,0-0.6-0.2-0.8-0.5c-0.1-0.2-0.2-0.4-0.2-0.5
		c0-0.3,0.2-0.6,0.5-0.7c2.4-1.2,5.1-3.2,6.6-5.7h-5.7c-0.5,0-0.7-0.3-0.7-0.9s0.3-0.8,0.7-0.8h15.9c0.8-1.1,1.6-2.3,2.1-3.3
		c0.2-0.4,0.5-0.6,0.9-0.6c0.2,0,0.3,0,0.5,0.1c0.5,0.1,0.7,0.4,0.7,0.7c0,0.1-0.1,0.3-0.1,0.4c-0.5,0.9-1.1,1.8-1.8,2.7H65.4z
		 M61,57.1c1.4,0,2.2,0.6,2.2,1.8v1.8c0,1.3-0.7,1.8-2.2,1.8H47.1c-1.4,0-2.2-0.5-2.2-1.8V59c0-1.3,0.7-1.8,2.2-1.8H61z M48.5,41.5
		c0,0.3-0.1,0.5-0.4,0.7c-0.2,0.1-0.4,0.2-0.6,0.2c-0.3,0-0.7-0.2-0.8-0.5c-0.3-0.5-0.9-1.2-1.3-1.7c-0.2-0.2-0.2-0.4-0.2-0.5
		c0-0.3,0.2-0.5,0.5-0.7c0.2-0.1,0.4-0.2,0.6-0.2c0.3,0,0.5,0.1,0.7,0.3c0.5,0.5,1.1,1.2,1.4,1.8C48.4,41.2,48.5,41.4,48.5,41.5z
		 M46.6,53.1c-0.4,0-0.6-0.3-0.6-0.8s0.2-0.7,0.6-0.7h14.8c0.4,0,0.6,0.3,0.6,0.7s-0.2,0.8-0.6,0.8H46.6z M46.6,55.8
		c-0.4,0-0.6-0.3-0.6-0.8s0.2-0.7,0.6-0.7h14.8c0.4,0,0.6,0.3,0.6,0.7s-0.2,0.8-0.6,0.8H46.6z M60.4,61c0.6,0,0.8-0.1,0.8-0.6v-1.2
		c0-0.5-0.2-0.6-0.8-0.6H47.7c-0.6,0-0.8,0.1-0.8,0.6v1.2c0,0.5,0.2,0.6,0.8,0.6H60.4z M50.6,44.5c-0.9,1.6-2.1,3-3.5,4.3h13.6
		c-1.4-1.2-2.7-2.7-3.6-4.3H50.6z M50.6,47.4c-0.4,0-0.6-0.4-0.6-0.8c0-0.4,0.2-0.7,0.6-0.7H57c0.4,0,0.6,0.3,0.6,0.7
		c0,0.4-0.2,0.8-0.6,0.8H50.6z M54.9,41.5c0,0.3-0.2,0.6-0.5,0.7c-0.2,0.1-0.3,0.1-0.5,0.1c-0.3,0-0.7-0.2-0.8-0.5
		c-0.3-0.5-0.7-1.4-1.1-1.9c-0.1-0.1-0.2-0.3-0.2-0.5c0-0.3,0.1-0.5,0.4-0.7c0.2-0.1,0.4-0.2,0.6-0.2c0.3,0,0.6,0.2,0.8,0.4
		c0.5,0.6,1,1.5,1.2,2C54.8,41.2,54.9,41.4,54.9,41.5z"/>
</g>
</svg>
