<?xml version="1.0" encoding="utf-8"?>
<!-- Generator: Adobe Illustrator 21.1.0, SVG Export Plug-In . SVG Version: 6.00 Build 0)  -->
<svg version="1.1" id="Layer_1" xmlns="http://www.w3.org/2000/svg" xmlns:xlink="http://www.w3.org/1999/xlink" x="0px" y="0px"
	 viewBox="0 0 108.1 105.4" style="enable-background:new 0 0 108.1 105.4;" xml:space="preserve">
<style type="text/css">
	.st0{fill:#FFFFFF;stroke:#222222;stroke-width:3.5;stroke-miterlimit:10;}
	.st1{fill:#EEEEEE;}
</style>
<path class="st0" d="M93.8,103.9H14.3c-7.1,0-12.8-5.6-12.8-12.5V14c0-6.9,5.7-12.5,12.8-12.5h79.4c7.1,0,12.8,5.6,12.8,12.5v77.3
	C106.6,98.3,100.9,103.9,93.8,103.9z"/>
<path class="st1" d="M90.3,102H13.8c-5.8,0-10.4-4.7-10.4-10.4V16.6c0-5.8,4.7-10.4,10.4-10.4h76.5c5.8,0,10.4,4.7,10.4,10.4v74.9
	C100.7,97.3,96.1,102,90.3,102z"/>
<g>
	<path d="M29.4,50.3c-0.5,0-0.9-0.5-0.9-1c0-0.6,0.3-1.1,0.9-1.1h9.9v-8.6c0-0.5,0.5-0.8,1.1-0.8s1.1,0.3,1.1,0.8v8.6h10.5
		c0.5,0,0.9,0.5,0.9,1.1c0,0.5-0.3,1-0.9,1H41.6v11.8c0,0.5-0.5,0.8-1.1,0.8s-1.1-0.3-1.1-0.8V50.3H29.4z"/>
	<path d="M78.6,41.2c0.6,0,0.8,0.4,0.8,0.9c0,0.5-0.2,1-0.8,1H60.3c-0.9,0-1.2,0.3-1.2,1.1c0,3.2-0.1,7.3-0.5,10.3
		c-0.2,2.3-0.9,5.1-1.9,7.2c-0.2,0.5-0.6,0.7-0.9,0.7c-0.2,0-0.3-0.1-0.5-0.1c-0.4-0.2-0.6-0.5-0.6-0.9c0-0.2,0.1-0.4,0.2-0.6
		c0.9-1.9,1.6-4.2,1.8-6.7c0.3-3.1,0.4-7,0.4-10.2c0-1.7,0.9-2.6,2.7-2.6H67v-1.9c0-0.4,0.4-0.7,1-0.7c0.6,0,1,0.2,1,0.7v1.9H78.6z
		 M78.9,60.3c0.5,0,0.7,0.3,0.7,0.9c0,0.5-0.3,1-0.7,1H59.3c-0.5,0-0.8-0.4-0.8-1c0-0.5,0.3-0.9,0.8-0.9h8.5v-3.6h-6.5
		c-0.5,0-0.8-0.3-0.8-0.9c0-0.6,0.3-0.9,0.8-0.9h6.5V44.6c0-0.5,0.4-0.8,1-0.8c0.6,0,1,0.3,1,0.8v10.2h7.3c0.5,0,0.8,0.3,0.8,0.9
		c0,0.5-0.3,0.9-0.8,0.9h-7.3v3.6H78.9z M61,53.1c-0.2,0.3-0.5,0.4-0.7,0.4c-0.2,0-0.4-0.1-0.6-0.2c-0.2-0.2-0.3-0.5-0.3-0.7
		c0-0.2,0.1-0.4,0.2-0.5c1.5-1.7,2.8-4.2,3.2-7.1c0.1-0.4,0.4-0.6,0.8-0.6c0.1,0,0.2,0,0.3,0c0.5,0.1,0.8,0.3,0.8,0.7
		c0,0.1,0,0.1,0,0.2c-0.2,0.8-0.4,1.6-0.7,2.3c0.8,1.5,1.9,2.8,2.9,3.7c0.2,0.2,0.3,0.4,0.3,0.6c0,0.2-0.1,0.4-0.2,0.6
		c-0.2,0.2-0.5,0.4-0.7,0.4c-0.2,0-0.4-0.1-0.6-0.2c-0.9-0.8-1.7-2.1-2.4-3.2C62.6,50.9,61.8,52.1,61,53.1z M72.1,52.9
		c-0.2,0.2-0.5,0.4-0.7,0.4c-0.2,0-0.4-0.1-0.6-0.2c-0.2-0.2-0.3-0.4-0.3-0.6c0-0.2,0.1-0.4,0.2-0.6c1.5-1.8,2.7-4.2,3.1-6.8
		c0.1-0.4,0.4-0.6,0.8-0.6c0.1,0,0.2,0,0.3,0c0.5,0.1,0.7,0.4,0.7,0.7c0,0.1,0,0.2,0,0.2c-0.2,0.9-0.4,1.7-0.7,2.5
		c1.1,1.8,2.5,2.9,3.8,3.9c0.2,0.2,0.3,0.5,0.3,0.8c0,0.2-0.1,0.4-0.2,0.6c-0.2,0.3-0.5,0.4-0.7,0.4c-0.2,0-0.4-0.1-0.6-0.2
		c-1.2-1-2.5-2.3-3.4-3.7C73.5,50.8,72.9,51.9,72.1,52.9z"/>
</g>
</svg>
