<?xml version="1.0" encoding="utf-8"?>
<!-- Generator: Adobe Illustrator 21.1.0, SVG Export Plug-In . SVG Version: 6.00 Build 0)  -->
<svg version="1.1" id="Layer_1" xmlns="http://www.w3.org/2000/svg" xmlns:xlink="http://www.w3.org/1999/xlink" x="0px" y="0px"
	 viewBox="0 0 108.1 105.4" style="enable-background:new 0 0 108.1 105.4;" xml:space="preserve">
<style type="text/css">
	.st0{fill:#FFFFFF;stroke:#222222;stroke-width:3.5;stroke-miterlimit:10;}
	.st1{fill:#EEEEEE;}
</style>
<path class="st0" d="M93.8,103.9H14.3c-7.1,0-12.8-5.6-12.8-12.5V14c0-6.9,5.7-12.5,12.8-12.5h79.4c7.1,0,12.8,5.6,12.8,12.5v77.3
	C106.6,98.3,100.9,103.9,93.8,103.9z"/>
<path class="st1" d="M90.3,102H13.8c-5.8,0-10.4-4.7-10.4-10.4V16.6c0-5.8,4.7-10.4,10.4-10.4h76.5c5.8,0,10.4,4.7,10.4,10.4v74.9
	C100.7,97.3,96.1,102,90.3,102z"/>
<g>
	<path d="M29.5,52c-0.6,0-0.9-0.6-0.9-1.1c0-0.6,0.3-1.1,0.9-1.1h22.4c0.6,0,0.9,0.5,0.9,1.1c0,0.5-0.3,1.1-0.9,1.1H29.5z"/>
	<path d="M70.6,44.7c0.2,3.1,0.5,5.7,1.2,8c0.1,0.4,0.3,0.9,0.5,1.3c1.3-1.9,2.4-4,3.1-6.4c0.1-0.4,0.4-0.6,0.8-0.6
		c0.2,0,0.3,0,0.5,0.1c0.5,0.1,0.7,0.4,0.7,0.8c0,0.1,0,0.3-0.1,0.4c-0.9,2.8-2.3,5.4-4.1,7.7c0.8,1.6,1.8,2.9,2.8,3.7
		c0.3,0.2,0.6,0.3,0.7,0.3c0.2,0,0.4-0.2,0.5-0.5c0.2-0.4,0.4-1.4,0.5-2.5c0.1-0.5,0.4-0.8,1-0.8c0,0,0.1,0,0.1,0
		c0.6,0,0.9,0.4,0.9,0.9c0,0,0,0,0,0.1c-0.1,1.4-0.5,3-1.1,4c-0.5,0.7-1,1.1-1.7,1.1c-0.6,0-1.2-0.3-2-0.8c-1.1-0.9-2.2-2.2-3.2-3.9
		c-1.9,2-4.1,3.5-6.5,4.7c-0.2,0.1-0.4,0.2-0.6,0.2c-0.3,0-0.6-0.2-0.8-0.5c-0.1-0.2-0.2-0.4-0.2-0.6c0-0.3,0.2-0.6,0.6-0.8
		c2.6-1.2,4.8-2.8,6.7-4.9c-0.3-0.7-0.6-1.5-0.8-2.2c-0.7-2.4-1.2-5.3-1.4-8.8h-8.3c-0.7,0-1,0.3-1,1v3.1h4.9c1.5,0,2.2,0.7,2.2,2.1
		c0,1.9-0.3,4.5-0.7,5.9c-0.4,1.6-1.3,2-3,2c-0.7,0-1.7-0.1-2.4-0.3c-0.5-0.1-0.7-0.4-0.7-0.8c0-0.1,0-0.2,0.1-0.3
		c0.1-0.5,0.4-0.6,0.7-0.6c0.1,0,0.2,0,0.3,0.1c0.5,0.1,1.2,0.2,1.8,0.2c0.9,0,1.2-0.1,1.3-0.8c0.3-1.3,0.5-3.2,0.5-4.9
		c0-0.5-0.2-0.7-0.8-0.7h-4.3c-0.1,4.5-0.8,8.1-2.4,11.3c-0.2,0.4-0.5,0.6-0.9,0.6c-0.2,0-0.5-0.1-0.7-0.2c-0.3-0.2-0.5-0.4-0.5-0.7
		c0-0.2,0.1-0.4,0.2-0.6c1.8-3.4,2.3-7.1,2.3-12.7v-3c0-1.6,0.8-2.4,2.4-2.4h8.8c0-1-0.1-2.1-0.1-3.2c0-0.5,0.4-0.8,1-0.8
		c0.6,0,1,0.3,1,0.8c0,1.1,0,2.2,0.1,3.2h8.1c0.5,0,0.7,0.4,0.7,0.9c0,0.5-0.2,0.9-0.7,0.9H70.6z M76.8,40.9
		c0.3,0.2,0.4,0.5,0.4,0.7c0,0.2-0.1,0.4-0.2,0.6c-0.2,0.2-0.5,0.4-0.7,0.4c-0.2,0-0.4-0.1-0.6-0.2c-0.8-0.6-1.9-1.4-2.7-1.8
		c-0.3-0.2-0.4-0.4-0.4-0.7c0-0.2,0.1-0.4,0.2-0.5c0.2-0.3,0.5-0.4,0.7-0.4c0.2,0,0.3,0.1,0.5,0.1C74.8,39.5,76,40.2,76.8,40.9z"/>
</g>
</svg>
