<?xml version="1.0" encoding="utf-8"?>
<!-- Generator: Adobe Illustrator 21.1.0, SVG Export Plug-In . SVG Version: 6.00 Build 0)  -->
<svg version="1.1" id="Layer_1" xmlns="http://www.w3.org/2000/svg" xmlns:xlink="http://www.w3.org/1999/xlink" x="0px" y="0px"
	 viewBox="0 0 108.1 105.4" style="enable-background:new 0 0 108.1 105.4;" xml:space="preserve">
<style type="text/css">
	.st0{fill:#FFFFFF;stroke:#222222;stroke-width:3.5;stroke-miterlimit:10;}
	.st1{fill:#EEEEEE;}
</style>
<path class="st0" d="M93.8,103.9H14.3c-7.1,0-12.8-5.6-12.8-12.5V14c0-6.9,5.7-12.5,12.8-12.5h79.4c7.1,0,12.8,5.6,12.8,12.5v77.3
	C106.6,98.3,100.9,103.9,93.8,103.9z"/>
<path class="st1" d="M90.3,102H13.8c-5.8,0-10.4-4.7-10.4-10.4V16.6c0-5.8,4.7-10.4,10.4-10.4h76.5c5.8,0,10.4,4.7,10.4,10.4v74.9
	C100.7,97.3,96.1,102,90.3,102z"/>
<g>
	<path d="M30.2,61c-0.5,0-0.9-0.5-0.9-1.1c0-0.5,0.3-1.1,0.9-1.1h22.1c0.5,0,0.9,0.5,0.9,1.1c0,0.5-0.3,1.1-0.9,1.1H30.2z
		 M32.1,42.8c-0.5,0-0.9-0.5-0.9-1.1c0-0.6,0.3-1.1,0.9-1.1h18.3c0.5,0,0.9,0.5,0.9,1.1s-0.3,1.1-0.9,1.1H32.1z M33.7,51.5
		c-0.5,0-0.9-0.5-0.9-1.1s0.3-1.1,0.9-1.1h15.1c0.5,0,0.9,0.5,0.9,1.1s-0.3,1.1-0.9,1.1H33.7z"/>
	<path d="M58.7,47.8c0-0.7,0.3-1.3,0.7-1.7c-0.7,0.6-1.5,1.1-2.3,1.6c-0.2,0.1-0.5,0.2-0.7,0.2c-0.3,0-0.6-0.2-0.8-0.5
		c-0.1-0.2-0.2-0.4-0.2-0.6c0-0.3,0.2-0.6,0.5-0.8c2.8-1.6,5.6-4.2,7.2-6.9c0.2-0.4,0.5-0.5,0.9-0.5c0.1,0,0.3,0,0.5,0.1
		c0.5,0.1,0.7,0.4,0.7,0.7c0,0.1,0,0.3-0.1,0.4c-0.1,0.2-0.3,0.4-0.4,0.6h6c1.1,0,1.8,0.6,1.8,1.3c0,0.3-0.1,0.7-0.4,1
		c-0.6,0.9-1.4,1.6-2.2,2.3H75c1.6,0,2.5,0.7,2.5,2.2V60c0,1.8-1.1,2.5-3.1,2.5c-1.2,0-2.2-0.1-3-0.3c-0.4-0.1-0.7-0.4-0.7-0.8
		c0-0.1,0-0.2,0.1-0.3c0.1-0.5,0.4-0.7,0.8-0.7c0.1,0,0.2,0,0.2,0c0.8,0.2,1.6,0.3,2.4,0.3c1,0,1.3-0.2,1.3-1.2v-3.3H60.3
		c-0.5,2.4-1.4,4.3-2.8,6.1c-0.3,0.3-0.6,0.5-0.9,0.5c-0.2,0-0.5-0.1-0.7-0.2c-0.3-0.2-0.5-0.5-0.5-0.9c0-0.2,0.1-0.4,0.3-0.6
		c2.3-2.7,3-5.2,3-10.9V47.8z M63.5,42.1c-1.1,1.2-2.2,2.4-3.5,3.5c0.5-0.3,1.2-0.5,1.8-0.5h5.8c0.9-0.8,1.7-1.6,2.2-2.3
		c0.1-0.2,0.2-0.3,0.2-0.4c0-0.2-0.2-0.2-0.5-0.2H63.5z M60.8,51.4c0,1-0.1,2-0.2,2.9h6.4v-2.9H60.8z M61.6,46.8
		c-0.5,0-0.8,0.1-0.8,0.7v2.2h6.2v-2.8H61.6z M75.4,47.5c0-0.5-0.3-0.7-0.8-0.7h-5.7v2.8h6.5V47.5z M68.9,51.4v2.9h6.5v-2.9H68.9z"
		/>
</g>
</svg>
