<?xml version="1.0" encoding="utf-8"?>
<!-- Generator: Adobe Illustrator 21.1.0, SVG Export Plug-In . SVG Version: 6.00 Build 0)  -->
<svg version="1.1" id="Layer_1" xmlns="http://www.w3.org/2000/svg" xmlns:xlink="http://www.w3.org/1999/xlink" x="0px" y="0px"
	 viewBox="0 0 108.1 105.4" style="enable-background:new 0 0 108.1 105.4;" xml:space="preserve">
<style type="text/css">
	.st0{fill:#FFFFFF;stroke:#222222;stroke-width:3.5;stroke-miterlimit:10;}
	.st1{fill:#EEEEEE;}
</style>
<path class="st0" d="M93.8,103.9H14.3c-7.1,0-12.8-5.6-12.8-12.5V14c0-6.9,5.7-12.5,12.8-12.5h79.4c7.1,0,12.8,5.6,12.8,12.5v77.3
	C106.6,98.3,100.9,103.9,93.8,103.9z"/>
<path class="st1" d="M90.3,102H13.8c-5.8,0-10.4-4.7-10.4-10.4V16.6c0-5.8,4.7-10.4,10.4-10.4h76.5c5.8,0,10.4,4.7,10.4,10.4v74.9
	C100.7,97.3,96.1,102,90.3,102z"/>
<g>
	<path d="M49.6,43.8c0.5,0,0.7,0.4,0.7,0.9c0,0.5-0.3,0.9-0.7,0.9h-2c0.7,1.8,1.8,3.4,3,4.7c0.2,0.2,0.3,0.5,0.3,0.7
		s-0.1,0.5-0.3,0.6s-0.4,0.2-0.6,0.2c-0.3,0-0.6-0.1-0.7-0.4c-0.8-1-1.6-2.6-2.2-4.2c0.2,1.6,0.5,3.5,0.5,4.7v10.3
		c0,0.5-0.3,0.8-1,0.8s-1-0.3-1-0.8v-9.1c0-1.2,0.2-3.1,0.4-4.9c-0.8,2.7-1.9,5.4-3,6.9c-0.2,0.3-0.5,0.4-0.7,0.4
		c-0.2,0-0.4-0.1-0.6-0.3c-0.2-0.2-0.3-0.5-0.3-0.7c0-0.2,0.1-0.5,0.3-0.7c1.6-2.2,3-5.4,3.8-8.4h-2.8c-0.5,0-0.7-0.4-0.7-0.9
		c0-0.5,0.2-0.9,0.7-0.9h3.1v-4.4c0-0.5,0.4-0.7,1-0.7c0.6,0,0.9,0.3,0.9,0.7v4.4H49.6z M54.3,55.2c0,0.1,0,0.2-0.1,0.3
		c-0.7,2.1-2.1,4.4-3.5,5.8c-0.2,0.2-0.5,0.3-0.8,0.3c-0.2,0-0.5-0.1-0.7-0.3C49.1,61.2,49,61,49,60.7c0-0.2,0.1-0.5,0.3-0.7
		c1.2-1.2,2.5-3.3,3.1-5.1c0.1-0.4,0.4-0.6,0.8-0.6c0.1,0,0.2,0,0.4,0.1C54.1,54.5,54.3,54.8,54.3,55.2z M65.7,42
		c0.5,0,0.8,0.3,0.8,0.9c0,0.5-0.3,0.9-0.8,0.9H51.2c-0.5,0-0.8-0.4-0.8-0.9c0-0.5,0.3-0.9,0.8-0.9h5.7v-2.5c0-0.5,0.4-0.7,1-0.7
		c0.6,0,1,0.2,1,0.7V42H65.7z M53.9,53.1c-1.5,0-2.2-0.6-2.2-2v-3.4c0-1.5,0.7-2,2.2-2h8.5c1.5,0,2.2,0.6,2.2,2v3.4
		c0,1.5-0.7,2-2.2,2h-3.5v7c0,1.7-0.7,2.4-2.6,2.4c-1,0-1.7-0.1-2.3-0.2c-0.3-0.1-0.6-0.4-0.6-0.8c0-0.1,0-0.2,0-0.3
		c0.1-0.5,0.4-0.7,0.7-0.7c0.1,0,0.1,0,0.1,0c0.5,0.1,1.2,0.2,1.7,0.2c0.7,0,0.9-0.2,0.9-1v-6.6H53.9z M61.9,51.5
		c0.5,0,0.8-0.1,0.8-0.6v-2.8c0-0.5-0.2-0.6-0.8-0.6h-7.5c-0.5,0-0.8,0.1-0.8,0.6v2.8c0,0.5,0.3,0.6,0.8,0.6H61.9z M62.3,54.4
		c0.3,0,0.7,0.2,0.9,0.6c0.7,1.6,1.8,3.3,3.1,4.8c0.2,0.2,0.3,0.5,0.3,0.7c0,0.3-0.1,0.5-0.3,0.7c-0.2,0.2-0.4,0.3-0.7,0.3
		c-0.3,0-0.6-0.1-0.8-0.3c-1.3-1.4-2.7-3.6-3.4-5.5c-0.1-0.2-0.1-0.3-0.1-0.4c0-0.4,0.2-0.7,0.6-0.8C62.1,54.4,62.2,54.4,62.3,54.4z
		"/>
</g>
</svg>
