<?xml version="1.0" encoding="utf-8"?>
<!-- Generator: Adobe Illustrator 21.1.0, SVG Export Plug-In . SVG Version: 6.00 Build 0)  -->
<svg version="1.1" id="Layer_1" xmlns="http://www.w3.org/2000/svg" xmlns:xlink="http://www.w3.org/1999/xlink" x="0px" y="0px"
	 viewBox="0 0 108.1 105.4" style="enable-background:new 0 0 108.1 105.4;" xml:space="preserve">
<style type="text/css">
	.st0{fill:#FFFFFF;stroke:#222222;stroke-width:3.5;stroke-miterlimit:10;}
	.st1{fill:#EEEEEE;}
</style>
<path class="st0" d="M93.8,103.9H14.3c-7.1,0-12.8-5.6-12.8-12.5V14c0-6.9,5.7-12.5,12.8-12.5h79.4c7.1,0,12.8,5.6,12.8,12.5v77.3
	C106.6,98.3,100.9,103.9,93.8,103.9z"/>
<path class="st1" d="M90.3,102H13.8c-5.8,0-10.4-4.7-10.4-10.4V16.6c0-5.8,4.7-10.4,10.4-10.4h76.5c5.8,0,10.4,4.7,10.4,10.4v74.9
	C100.7,97.3,96.1,102,90.3,102z"/>
<g>
	<path d="M65.2,60c0.5,0,0.8,0.4,0.8,1c0,0.6-0.3,0.9-0.8,0.9H46.2c-1.6,0-2.4-0.7-2.4-2.3V42.1c0-1.6,0.9-2.3,2.4-2.3h18.6
		c0.5,0,0.8,0.3,0.8,0.9c0,0.6-0.3,1-0.8,1h-9.1v4.5h6.1c1.6,0,2.2,0.7,2.2,2.2v4.2c0,1.6-0.6,2.3-2.2,2.3h-6.1V60H65.2z M46.7,41.6
		c-0.6,0-0.9,0.2-0.9,0.8v3.8h7.8v-4.5H46.7z M45.8,53.1h15.4c0.6,0,0.7-0.3,0.7-0.8v-3.5c0-0.5-0.1-0.8-0.7-0.8H45.8V53.1z
		 M53.6,54.9h-7.8v4.3c0,0.6,0.3,0.8,0.9,0.8h6.9V54.9z"/>
</g>
</svg>
