<?xml version="1.0" encoding="utf-8"?>
<!-- Generator: Adobe Illustrator 21.1.0, SVG Export Plug-In . SVG Version: 6.00 Build 0)  -->
<svg version="1.1" id="Layer_1" xmlns="http://www.w3.org/2000/svg" xmlns:xlink="http://www.w3.org/1999/xlink" x="0px" y="0px"
	 viewBox="0 0 108.1 105.4" style="enable-background:new 0 0 108.1 105.4;" xml:space="preserve">
<style type="text/css">
	.st0{fill:#FFFFFF;stroke:#222222;stroke-width:3.5;stroke-miterlimit:10;}
	.st1{fill:#EEEEEE;}
</style>
<path class="st0" d="M93.8,103.9H14.3c-7.1,0-12.8-5.6-12.8-12.5V14c0-6.9,5.7-12.5,12.8-12.5h79.4c7.1,0,12.8,5.6,12.8,12.5v77.3
	C106.6,98.3,100.9,103.9,93.8,103.9z"/>
<path class="st1" d="M90.3,102H13.8c-5.8,0-10.4-4.7-10.4-10.4V16.6c0-5.8,4.7-10.4,10.4-10.4h76.5c5.8,0,10.4,4.7,10.4,10.4v74.9
	C100.7,97.3,96.1,102,90.3,102z"/>
<g>
	<path d="M35.7,52c-1.4,3.2-3.4,6.4-5.6,8.6c-0.3,0.3-0.6,0.4-0.9,0.4c-0.3,0-0.5-0.1-0.7-0.3c-0.3-0.3-0.4-0.5-0.4-0.8
		c0-0.2,0.1-0.4,0.3-0.6c2.3-2.2,4.3-5.3,5.7-8.7c0.7-1.7,1.3-3.7,1.8-5.7h-6.2c-0.5,0-0.9-0.5-0.9-1s0.3-1,0.9-1h6.6
		c0.2-1.1,0.3-2.1,0.4-3.2c0.1-0.6,0.5-0.9,1-0.9c0.1,0,0.1,0,0.2,0c0.6,0.1,1,0.3,1,0.9c0,0.1,0,0.1,0,0.2c-0.1,1-0.3,2-0.5,3h13.2
		c0.5,0,0.9,0.4,0.9,1s-0.3,1-0.9,1H38c-0.4,1.8-1,3.6-1.6,5.3h13.7c0.5,0,0.7,0.4,0.7,0.9c0,0.5-0.3,0.9-0.7,0.9h-6.6v8.2h8.2
		c0.5,0,0.7,0.4,0.7,0.9c0,0.6-0.3,1-0.7,1H33.3c-0.5,0-0.7-0.4-0.7-1c0-0.5,0.3-0.9,0.7-0.9h8V52H35.7z"/>
	<path d="M78.6,41.8c0.5,0,0.7,0.4,0.7,0.9c0,0.5-0.3,0.9-0.7,0.9H55.9c-0.5,0-0.7-0.4-0.7-0.9c0-0.5,0.3-0.9,0.7-0.9H66v-2.4
		c0-0.5,0.5-0.8,1.1-0.8c0.6,0,1.1,0.3,1.1,0.8v2.4H78.6z M62.6,55.4c0,0.2-0.1,0.3-0.2,0.5c-1.2,2.1-3.4,4.2-5.3,5.5
		c-0.2,0.1-0.4,0.2-0.6,0.2c-0.3,0-0.7-0.2-0.9-0.4c-0.1-0.2-0.2-0.4-0.2-0.6c0-0.3,0.2-0.6,0.5-0.8c2-1.3,3.7-3,4.8-4.8
		c0.2-0.2,0.4-0.3,0.7-0.3c0.2,0,0.4,0.1,0.6,0.2C62.4,54.9,62.6,55.1,62.6,55.4z M60.7,53.2c-1.5,0-2.2-0.6-2.2-2.1v-3.2
		c0-1.5,0.7-2.1,2.2-2.1h13c1.5,0,2.2,0.6,2.2,2.1v3.2c0,1.5-0.7,2.1-2.2,2.1h-5.3V60c0,1.7-0.9,2.4-2.9,2.4c-0.9,0-1.9-0.1-2.7-0.3
		c-0.4-0.1-0.6-0.4-0.6-0.9c0-0.1,0-0.2,0-0.3c0.1-0.5,0.4-0.7,0.8-0.7c0.1,0,0.2,0,0.2,0c0.5,0.1,1.4,0.2,1.9,0.2
		c0.9,0,1.2-0.3,1.2-1.1v-6.3H60.7z M73.1,51.4c0.5,0,0.7-0.1,0.7-0.7v-2.5c0-0.5-0.2-0.7-0.7-0.7H61.3c-0.5,0-0.7,0.1-0.7,0.7v2.5
		c0,0.5,0.2,0.7,0.7,0.7H73.1z M72.7,54.5c0.3,0,0.6,0.1,0.7,0.4c1.2,1.8,3.2,3.6,5,4.8c0.3,0.2,0.5,0.5,0.5,0.9
		c0,0.2-0.1,0.4-0.2,0.6c-0.2,0.3-0.6,0.5-0.9,0.5c-0.2,0-0.4-0.1-0.6-0.2c-1.8-1.2-4.3-3.5-5.5-5.5c-0.1-0.1-0.1-0.3-0.1-0.4
		c0-0.3,0.2-0.6,0.5-0.8C72.3,54.5,72.5,54.5,72.7,54.5z"/>
</g>
</svg>
