<?xml version="1.0" encoding="utf-8"?>
<!-- Generator: Adobe Illustrator 21.1.0, SVG Export Plug-In . SVG Version: 6.00 Build 0)  -->
<svg version="1.1" id="Layer_1" xmlns="http://www.w3.org/2000/svg" xmlns:xlink="http://www.w3.org/1999/xlink" x="0px" y="0px"
	 viewBox="0 0 108.1 105.4" style="enable-background:new 0 0 108.1 105.4;" xml:space="preserve">
<style type="text/css">
	.st0{fill:#FFFFFF;stroke:#222222;stroke-width:3.5;stroke-miterlimit:10;}
	.st1{fill:#EEEEEE;}
	.st2{enable-background:new    ;}
</style>
<path class="st0" d="M93.8,103.9H14.3c-7.1,0-12.8-5.6-12.8-12.5V14c0-6.9,5.7-12.5,12.8-12.5h79.4c7.1,0,12.8,5.6,12.8,12.5v77.3
	C106.6,98.3,100.9,103.9,93.8,103.9z"/>
<path class="st1" d="M90.3,102H13.8C8,102,3.4,97.3,3.4,91.6v-75c0-5.8,4.7-10.4,10.4-10.4h76.5c5.8,0,10.4,4.7,10.4,10.4v74.9
	C100.7,97.3,96.1,102,90.3,102z"/>
<g class="st2">
	<path d="M49.2,47.2c-0.2,7.7-3.9,13.1-10.8,15.6c-0.2,0.1-0.4,0.1-0.5,0.1c-0.5,0-0.9-0.2-1-0.6c-0.1-0.2-0.1-0.4-0.1-0.5
		c0-0.4,0.3-0.8,0.8-1c5.8-2.1,9.1-6.3,9.4-13.5h-8.1c-1.3,2.1-2.8,3.9-4.5,5.2c-0.3,0.2-0.6,0.3-0.8,0.3c-0.3,0-0.6-0.1-0.8-0.3
		c-0.2-0.2-0.3-0.5-0.3-0.8c0-0.3,0.1-0.6,0.5-0.9c2.4-2,4-4.4,5.4-7.5c0.3-0.7,0.6-1.5,0.7-1.9c0.2-0.5,0.6-0.8,1-0.8
		c0.1,0,0.2,0,0.3,0.1c0.6,0.2,0.9,0.5,0.9,1c0,0.1,0,0.2,0,0.3c-0.3,1.1-1,2.6-1.4,3.5h14.8c0.7,0,1,0.4,1,1c0,0.6-0.3,1-1,1H49.2z
		"/>
	<path d="M79.4,45.8c0,0.2,0,0.3-0.1,0.5c-1.1,4.4-3.6,8.6-7.3,11.4c-3.2,2.4-8.1,3.9-12.3,4.1c0,0,0,0-0.1,0c-0.7,0-1.2-0.4-1.2-1
		c0-0.1,0-0.1,0-0.1c0-0.6,0.4-1.1,1.1-1.1c3.9-0.2,8.5-1.7,11.1-3.7c3.1-2.4,5.4-6.2,6.4-10c0.2-0.7,0.6-1,1.1-1
		c0.1,0,0.3,0,0.4,0.1C79,44.9,79.4,45.3,79.4,45.8z M66.6,47.8c0.2,0.3,0.3,0.5,0.3,0.8c0,0.3-0.1,0.6-0.4,0.9
		c-0.2,0.2-0.5,0.4-0.8,0.4s-0.7-0.2-1-0.5c-1.5-1.6-3.6-3.5-5.6-4.8c-0.3-0.2-0.4-0.5-0.4-0.8c0-0.3,0.1-0.5,0.3-0.8
		c0.2-0.3,0.5-0.4,0.9-0.4c0.3,0,0.6,0.1,0.8,0.3C62.6,44.1,65,45.9,66.6,47.8z"/>
</g>
</svg>
