<?xml version="1.0" encoding="utf-8"?>
<!-- Generator: Adobe Illustrator 21.1.0, SVG Export Plug-In . SVG Version: 6.00 Build 0)  -->
<svg version="1.1" id="Layer_1" xmlns="http://www.w3.org/2000/svg" xmlns:xlink="http://www.w3.org/1999/xlink" x="0px" y="0px"
	 viewBox="0 0 108.1 105.4" style="enable-background:new 0 0 108.1 105.4;" xml:space="preserve">
<style type="text/css">
	.st0{fill:#FFFFFF;stroke:#222222;stroke-width:3.5;stroke-miterlimit:10;}
	.st1{fill:#EEEEEE;}
</style>
<path class="st0" d="M93.8,103.9H14.3c-7.1,0-12.8-5.6-12.8-12.5V14c0-6.9,5.7-12.5,12.8-12.5h79.4c7.1,0,12.8,5.6,12.8,12.5v77.3
	C106.6,98.3,100.9,103.9,93.8,103.9z"/>
<path class="st1" d="M90.3,102H13.8c-5.8,0-10.4-4.7-10.4-10.4V16.6c0-5.8,4.7-10.4,10.4-10.4h76.5c5.8,0,10.4,4.7,10.4,10.4v74.9
	C100.7,97.3,96.1,102,90.3,102z"/>
<g>
	<path d="M41.6,49.7c1.8,5,5.4,8.3,10.6,10.3c0.5,0.2,0.7,0.5,0.7,1c0,0.2,0,0.4-0.1,0.5c-0.2,0.4-0.6,0.6-1,0.6
		c-0.2,0-0.4-0.1-0.6-0.1c-5.3-2.2-9.1-6-10.9-10.9c-0.6,2.2-1.5,3.9-2.8,5.5c-2,2.5-4.5,4.2-7.4,5.5c-0.2,0.1-0.5,0.2-0.7,0.2
		c-0.4,0-0.7-0.2-0.9-0.6c-0.1-0.2-0.2-0.4-0.2-0.6c0-0.4,0.2-0.7,0.7-0.9c2.7-1.1,5.1-2.7,6.9-4.9c1.3-1.6,2.1-3.4,2.6-5.6h-8.1
		c-0.5,0-0.8-0.4-0.8-1c0-0.5,0.3-0.9,0.8-0.9H39c0.3-1.8,0.3-3.6,0.3-5.4h-9.8c-0.5,0-0.9-0.4-0.9-1c0-0.5,0.3-0.9,0.9-0.9H52
		c0.5,0,0.9,0.4,0.9,0.9c0,0.5-0.3,1-0.9,1H41.4c0,1.8-0.1,3.6-0.3,5.4H51c0.5,0,0.9,0.4,0.9,0.9c0,0.5-0.3,1-0.9,1H41.6z"/>
	<path d="M59.8,56.2c0,0.1,0,0.2,0,0.3c-0.6,1.8-1.7,3.9-2.7,5.2c-0.2,0.3-0.5,0.4-0.9,0.4c-0.2,0-0.4-0.1-0.6-0.2
		c-0.3-0.2-0.5-0.5-0.5-0.8c0-0.2,0.1-0.4,0.2-0.6c0.9-1.1,2-3.1,2.5-4.6c0.2-0.4,0.5-0.6,0.9-0.6c0.2,0,0.3,0,0.5,0.1
		C59.6,55.6,59.8,55.9,59.8,56.2z M76.1,52.5c1.6,0,2.4,0.8,2.4,2.2c0,0.1,0,0.2,0,0.2c-0.1,2.1-0.5,4.3-1,5.8
		c-0.5,1.4-1.5,2.1-3.1,2.1c-0.9,0-1.9-0.1-2.7-0.3c-0.3-0.1-0.6-0.4-0.6-0.8c0-0.1,0-0.2,0-0.3c0.1-0.5,0.4-0.8,0.8-0.8
		c0.1,0,0.1,0,0.2,0c0.6,0.2,1.3,0.3,2,0.3c0.9,0,1.3-0.3,1.6-1c0.4-1.2,0.7-3.1,0.8-4.7c0-0.1,0-0.1,0-0.1c0-0.6-0.2-0.8-1-0.8
		H60.2c-1.4,0-2.2-0.6-2.2-2V41.9c0-1.4,0.8-2,2.2-2h16.5c0.5,0,0.7,0.4,0.7,0.9s-0.2,0.9-0.7,0.9h-8.1v2.5h6.9
		c0.5,0.1,0.7,0.4,0.7,0.9c0,0.4-0.2,0.9-0.7,0.9h-6.9v2.3h6.8c0.5,0,0.7,0.4,0.7,0.9c0,0.4-0.2,0.9-0.7,0.9h-6.8v2.5H76.1z
		 M66.8,44.1v-2.5h-6c-0.5,0-0.7,0.1-0.7,0.6v1.8H66.8z M60,48.2h6.8v-2.3H60V48.2z M60,51.8c0,0.5,0.2,0.6,0.7,0.6h6v-2.5H60V51.8z
		 M63,55.6c0.4,0,0.7,0.2,0.8,0.7c0.3,1.2,0.6,3,0.7,4.4c0,0,0,0.1,0,0.1c0,0.5-0.2,0.8-0.9,0.9c-0.1,0-0.2,0-0.2,0
		c-0.6,0-0.9-0.3-0.9-0.8c-0.1-1.2-0.3-2.8-0.6-4.2c0-0.1,0-0.1,0-0.2c0-0.4,0.3-0.7,0.8-0.8C62.8,55.6,62.9,55.6,63,55.6z
		 M67.4,55.5c0.3,0,0.6,0.2,0.8,0.5c0.6,1.1,1.1,2.6,1.4,3.7c0,0.1,0,0.1,0,0.2c0,0.4-0.2,0.7-0.7,0.9c-0.1,0-0.2,0.1-0.4,0.1
		c-0.4,0-0.7-0.2-0.8-0.6c-0.3-1.2-0.8-2.6-1.3-3.6c0-0.1-0.1-0.2-0.1-0.3c0-0.4,0.3-0.6,0.6-0.7C67.1,55.5,67.3,55.5,67.4,55.5z
		 M71.8,55.2c0.3,0,0.5,0.1,0.7,0.4c0.6,0.9,1.2,1.9,1.5,2.8c0,0.1,0.1,0.2,0.1,0.3c0,0.3-0.2,0.6-0.6,0.8c-0.2,0.1-0.3,0.1-0.5,0.1
		c-0.3,0-0.6-0.1-0.7-0.5c-0.3-0.8-0.9-1.9-1.4-2.8c-0.1-0.1-0.1-0.2-0.1-0.3c0-0.3,0.2-0.5,0.5-0.7C71.4,55.2,71.6,55.2,71.8,55.2z
		"/>
</g>
</svg>
