<?xml version="1.0" encoding="utf-8"?>
<!-- Generator: Adobe Illustrator 21.1.0, SVG Export Plug-In . SVG Version: 6.00 Build 0)  -->
<svg version="1.1" id="Layer_1" xmlns="http://www.w3.org/2000/svg" xmlns:xlink="http://www.w3.org/1999/xlink" x="0px" y="0px"
	 viewBox="0 0 108.1 105.4" style="enable-background:new 0 0 108.1 105.4;" xml:space="preserve">
<style type="text/css">
	.st0{fill:#FFFFFF;stroke:#222222;stroke-width:3.5;stroke-miterlimit:10;}
	.st1{fill:#EEEEEE;}
	.st2{enable-background:new    ;}
</style>
<path class="st0" d="M93.8,103.9H14.3c-7.1,0-12.8-5.6-12.8-12.5V14c0-6.9,5.7-12.5,12.8-12.5h79.4c7.1,0,12.8,5.6,12.8,12.5v77.3
	C106.6,98.3,100.9,103.9,93.8,103.9z"/>
<path class="st1" d="M90.3,102H13.8C8,102,3.4,97.3,3.4,91.6v-75c0-5.8,4.7-10.4,10.4-10.4h76.5c5.8,0,10.4,4.7,10.4,10.4v74.9
	C100.7,97.3,96.1,102,90.3,102z"/>
<g class="st2">
	<path d="M41,44.2c0.3,0.2,0.5,0.5,0.5,0.8c0,0.2-0.1,0.4-0.2,0.6c-0.2,0.2-0.5,0.4-0.8,0.4c-0.2,0-0.5-0.1-0.7-0.2
		c-1.1-0.9-2.2-2.2-3-3.3c-0.1-0.2-0.2-0.3-0.3-0.3s-0.2,0.1-0.3,0.2c-1.1,1.7-2.7,3.3-4.2,4.6c-0.2,0.2-0.5,0.2-0.7,0.2
		c-0.3,0-0.6-0.1-0.8-0.4c-0.1-0.2-0.2-0.3-0.2-0.5c0-0.3,0.1-0.5,0.3-0.7c1.6-1.2,3.3-2.9,4.6-4.8c0.3-0.5,0.8-0.7,1.2-0.7
		c0.5,0,1,0.2,1.3,0.7C38.7,42.1,39.9,43.3,41,44.2z M33.6,48.1c-0.5,0-0.7-0.4-0.7-0.8c0-0.5,0.2-0.8,0.7-0.8h5.5
		c0.5,0,0.7,0.4,0.7,0.8c0,0.5-0.2,0.8-0.7,0.8h-1.9v2.5h2.8c0.5,0,0.7,0.3,0.7,0.8c0,0.5-0.2,0.8-0.7,0.8h-2.8v7.5
		c1.1-0.3,2.2-0.7,3.1-1c0.1,0,0.2-0.1,0.3-0.1c0.3,0,0.6,0.2,0.7,0.6c0,0.1,0,0.2,0,0.3c0,0.4-0.2,0.7-0.7,0.9
		c-2.4,0.9-6.1,1.9-8.9,2.4c-0.1,0-0.2,0-0.2,0c-0.4,0-0.7-0.3-0.8-0.8c0-0.1,0-0.1,0-0.2c0-0.5,0.2-0.8,0.7-0.9
		c1.2-0.2,2.6-0.5,4-0.8v-8h-3.9c-0.5,0-0.7-0.3-0.7-0.8c0-0.5,0.2-0.8,0.7-0.8h3.9v-2.5H33.6z M32.2,53.7c0.3,0,0.6,0.2,0.8,0.5
		c0.5,1.2,0.9,2.5,1.1,3.7c0,0.1,0,0.2,0,0.3c0,0.5-0.3,0.8-0.7,0.9c-0.1,0-0.2,0-0.3,0c-0.4,0-0.7-0.3-0.8-0.8
		c-0.2-1-0.7-2.5-1.1-3.6c0-0.1-0.1-0.2-0.1-0.3c0-0.4,0.2-0.6,0.6-0.7C32,53.7,32.1,53.7,32.2,53.7z M41.1,54.2
		c0,0.1,0,0.2-0.1,0.3c-0.2,1-0.6,2.2-1.1,3.2c-0.2,0.4-0.5,0.5-0.8,0.5c-0.1,0-0.2,0-0.4-0.1c-0.3-0.1-0.5-0.4-0.5-0.7
		c0-0.1,0-0.3,0.1-0.4c0.4-0.9,0.7-2,1-3.1c0.1-0.3,0.4-0.5,0.7-0.5c0.1,0,0.2,0,0.3,0.1C40.9,53.6,41.1,53.8,41.1,54.2z M48.9,52.8
		c1.2,4.2,3.2,6.8,6.1,8.7c0.3,0.2,0.5,0.5,0.5,0.9c0,0.2-0.1,0.4-0.2,0.6c-0.2,0.3-0.5,0.5-0.9,0.5c-0.2,0-0.5-0.1-0.7-0.3
		c-2.7-1.9-4.7-4.8-5.8-8.3c-1.2,3.6-3.5,6.6-6.5,8.5c-0.2,0.1-0.4,0.2-0.6,0.2c-0.3,0-0.7-0.2-0.9-0.5c-0.1-0.2-0.2-0.4-0.2-0.6
		c0-0.3,0.2-0.6,0.5-0.8c3.2-1.9,5.5-4.9,6.3-8.9h-4.4c-0.5,0-0.9-0.3-0.9-0.9c0-0.5,0.3-0.9,0.7-0.9h4.8c0.2-1.6,0.2-3.1,0.3-4.7
		h-3.3c-0.3,1-0.8,2-1.2,2.8c-0.2,0.3-0.5,0.5-0.9,0.5c-0.2,0-0.3,0-0.5-0.1c-0.3-0.2-0.5-0.4-0.5-0.7c0-0.2,0.1-0.3,0.1-0.5
		c1-1.7,1.9-4.4,2.2-6.6c0.1-0.5,0.4-0.8,0.8-0.8c0.1,0,0.2,0,0.2,0c0.5,0.1,0.7,0.4,0.7,0.8c0,0.1,0,0.1,0,0.2
		c-0.1,0.8-0.3,1.7-0.5,2.5h2.7c0-1.2,0-2.5,0-3.9c0-0.5,0.4-0.8,1-0.8c0.6,0,1,0.3,1,0.8c0,1.4,0,2.7,0,3.9h4.8
		c0.5,0,0.8,0.4,0.8,0.9s-0.3,0.9-0.8,0.9H49c0,1.6-0.1,3.1-0.3,4.7h5.8c0.5,0,0.7,0.4,0.7,0.9c0,0.6-0.3,0.9-0.7,0.9H48.9z"/>
	<path d="M60.8,60.2c1.9-0.5,3.7-1.1,5.5-1.8c-0.5-0.7-0.9-1.4-1.3-2c-0.1-0.1-0.1-0.3-0.1-0.4c0-0.3,0.2-0.6,0.5-0.7
		c0.2-0.1,0.4-0.1,0.5-0.1c0.3,0,0.6,0.2,0.8,0.4c1.2,1.5,2.5,3.6,3.4,5.5c0.1,0.2,0.1,0.3,0.1,0.5c0,0.3-0.2,0.6-0.6,0.8
		c-0.2,0.1-0.4,0.2-0.6,0.2c-0.3,0-0.6-0.2-0.7-0.5c-0.3-0.6-0.7-1.3-1.1-2c-2.8,1.1-6.4,2.3-9.1,3c-0.1,0-0.2,0-0.3,0
		c-0.4,0-0.8-0.2-0.9-0.8c0-0.1,0-0.2,0-0.3c0-0.4,0.2-0.7,0.7-0.8c0.4-0.1,0.8-0.2,1.2-0.3V44.9c0-1.5,0.7-2,2.3-2h2v-2.2
		c0-0.4,0.4-0.7,1-0.7c0.6,0,1,0.3,1,0.7v2.2h2.2c1.5,0,2.2,0.5,2.2,1.9v7.5c0,1.4-0.7,1.9-2.2,1.9h-6.3V60.2z M67.4,45.2
		c0-0.5-0.2-0.6-0.8-0.6h-5c-0.6,0-0.8,0.1-0.8,0.6v2.4h6.6V45.2z M66.6,52.5c0.5,0,0.8-0.2,0.8-0.6v-2.5h-6.6v3.2H66.6z M71.6,42.7
		c0-1.5,0.7-2.1,2.3-2.1h5.1c1.4,0,2.2,0.7,2.2,1.7c0,0.3-0.1,0.6-0.2,1c-0.6,1.8-1.8,4-2.8,5.6c-0.1,0.2-0.2,0.3-0.2,0.5
		c0,0.2,0.1,0.3,0.3,0.5c1.8,1.8,3.1,3.7,3.1,6.3c0,3-1.7,4.1-4,4.1c-0.7,0-1.8-0.1-2.3-0.2c-0.5-0.1-0.7-0.4-0.7-0.9
		c0-0.1,0-0.2,0-0.3c0.1-0.5,0.4-0.7,0.8-0.7c0.1,0,0.1,0,0.2,0c0.5,0.1,1.3,0.2,1.8,0.2c1.1,0,2.1-0.5,2.1-2.3c0-1.8-1.3-3.8-3-5.5
		c-0.4-0.4-0.5-0.8-0.5-1.1c0-0.3,0.1-0.7,0.3-1c1.1-1.6,2.2-3.6,2.7-5.3c0-0.1,0.1-0.2,0.1-0.3c0-0.3-0.2-0.4-0.7-0.4h-3.9
		c-0.5,0-0.8,0.2-0.8,0.6v20.1c0,0.5-0.4,0.8-1,0.8c-0.7,0-1-0.3-1-0.8V42.7z"/>
</g>
</svg>
