<?xml version="1.0" encoding="utf-8"?>
<!-- Generator: Adobe Illustrator 21.1.0, SVG Export Plug-In . SVG Version: 6.00 Build 0)  -->
<svg version="1.1" id="Layer_1" xmlns="http://www.w3.org/2000/svg" xmlns:xlink="http://www.w3.org/1999/xlink" x="0px" y="0px"
	 viewBox="0 0 108.1 105.4" style="enable-background:new 0 0 108.1 105.4;" xml:space="preserve">
<style type="text/css">
	.st0{fill:#FFFFFF;stroke:#222222;stroke-width:3.5;stroke-miterlimit:10;}
	.st1{fill:#EEEEEE;}
</style>
<path class="st0" d="M93.8,103.9H14.3c-7.1,0-12.8-5.6-12.8-12.5V14c0-6.9,5.7-12.5,12.8-12.5h79.4c7.1,0,12.8,5.6,12.8,12.5v77.3
	C106.6,98.3,100.9,103.9,93.8,103.9z"/>
<path class="st1" d="M90.3,102H13.8c-5.8,0-10.4-4.7-10.4-10.4V16.6c0-5.8,4.7-10.4,10.4-10.4h76.5c5.8,0,10.4,4.7,10.4,10.4v74.9
	C100.7,97.3,96.1,102,90.3,102z"/>
<g>
	<path d="M45.4,51.8c-1.1,0.1-2.2,0.2-3.2,0.3c0,0-0.1,0-0.1,0c-0.5,0-0.9-0.3-0.9-0.9c0,0,0-0.1,0-0.1c0-0.5,0.3-0.8,0.8-0.8
		c0.3,0,0.6,0,1,0c0.6-0.8,1.2-1.6,1.8-2.4c-0.9-1.4-2.1-2.8-3.1-3.7c-0.2-0.2-0.3-0.4-0.3-0.7c0-0.2,0.1-0.4,0.3-0.6
		c0.2-0.2,0.5-0.3,0.7-0.3c0.2,0,0.4,0.1,0.5,0.2c0.2,0.2,0.4,0.4,0.6,0.6c0.8-1.3,1.6-2.8,2.1-4.1c0.1-0.3,0.4-0.4,0.7-0.4
		c0.2,0,0.3,0,0.5,0.1c0.3,0.2,0.6,0.4,0.6,0.7c0,0.1,0,0.3-0.1,0.4c-0.6,1.4-1.6,3.2-2.7,4.7c0.5,0.5,0.9,1.1,1.3,1.7
		c1-1.4,1.8-2.9,2.5-4.1c0.2-0.3,0.4-0.4,0.7-0.4c0.2,0,0.3,0.1,0.5,0.1c0.3,0.2,0.5,0.4,0.5,0.7c0,0.2-0.1,0.3-0.1,0.4
		c-1.3,2.3-3.3,5-4.9,7.1c1.1-0.1,2.3-0.2,3.5-0.3c-0.2-0.6-0.5-1.1-0.7-1.6c0-0.1-0.1-0.2-0.1-0.2c0-0.2,0.2-0.4,0.5-0.6
		c0.1-0.1,0.2-0.1,0.4-0.1c0.3,0,0.5,0.1,0.6,0.4c0.6,1.2,1.2,2.9,1.6,4.2c0,0.1,0,0.2,0,0.2c0,0.3-0.2,0.5-0.6,0.6
		c-0.1,0-0.2,0.1-0.3,0.1c-0.3,0-0.6-0.2-0.6-0.5c-0.1-0.3-0.2-0.7-0.3-1c-0.6,0.1-1.1,0.2-1.7,0.2v10.7c0,0.4-0.4,0.7-1,0.7
		c-0.5,0-0.9-0.3-0.9-0.7V51.8z M44.2,54.1C44.2,54.1,44.2,54.1,44.2,54.1c-0.1,2.1-0.6,4.9-1.1,6.6c-0.1,0.4-0.5,0.6-0.8,0.6
		c-0.1,0-0.2,0-0.3,0c-0.4-0.1-0.7-0.4-0.7-0.8c0-0.1,0-0.2,0.1-0.3c0.6-1.7,1-4.2,1.1-6.2c0-0.4,0.4-0.6,0.9-0.6c0,0,0.1,0,0.1,0
		C43.8,53.5,44.2,53.7,44.2,54.1z M49.1,53.3c0.3,0,0.6,0.2,0.7,0.5c0.3,1.1,0.7,2.5,0.9,4c0,0.1,0,0.2,0,0.3c0,0.5-0.3,0.7-0.7,0.8
		c-0.1,0-0.1,0-0.2,0c-0.3,0-0.6-0.2-0.7-0.7c-0.2-1.2-0.5-2.7-0.9-3.9c0-0.1,0-0.2,0-0.2c0-0.3,0.2-0.6,0.6-0.7
		C48.9,53.3,49,53.3,49.1,53.3z M55.7,50.8c1.2,0,1.7,0.6,1.7,1.5c0,0.2,0,0.5-0.1,0.8c-0.3,1.4-0.8,2.8-1.5,4
		c0.6,0.6,1.1,1.3,1.6,1.9c0.1,0.2,0.2,0.3,0.2,0.5c0,0.2-0.1,0.5-0.3,0.7c-0.2,0.2-0.4,0.3-0.6,0.3c-0.2,0-0.5-0.1-0.6-0.3
		c-0.4-0.5-0.8-1-1.2-1.5c-1.1,1.5-2.5,2.9-4.1,4c-0.2,0.1-0.4,0.2-0.6,0.2c-0.3,0-0.5-0.1-0.7-0.4c-0.1-0.2-0.2-0.4-0.2-0.5
		c0-0.3,0.1-0.5,0.4-0.7c1.7-1.1,3-2.4,4-3.9c-0.7-0.8-1.5-1.5-2.2-2.1c-0.2-0.2-0.3-0.4-0.3-0.6s0.1-0.4,0.2-0.6
		c0.2-0.2,0.4-0.3,0.6-0.3c0.2,0,0.4,0.1,0.6,0.2c0.6,0.5,1.2,1.1,1.9,1.8c0.5-0.9,0.8-1.8,1-2.8c0-0.1,0.1-0.2,0.1-0.3
		c0-0.2-0.1-0.3-0.5-0.3h-3.1c-0.5,0-0.7-0.3-0.7-0.8c0-0.5,0.2-0.8,0.7-0.8H55.7z M55.9,39.5c1.1,0,1.7,0.5,1.7,1.4
		c0,0.2,0,0.5-0.1,0.8c-0.4,1.4-1,2.7-1.8,3.9c0.5,0.5,1,1,1.4,1.5c0.2,0.2,0.2,0.4,0.2,0.5c0,0.2-0.1,0.4-0.3,0.6
		c-0.2,0.2-0.4,0.3-0.6,0.3c-0.2,0-0.5-0.1-0.6-0.3c-0.3-0.4-0.7-0.8-1.1-1.2c-0.9,1.1-1.9,2-3,2.8c-0.2,0.1-0.3,0.2-0.5,0.2
		c-0.3,0-0.5-0.1-0.7-0.4c-0.1-0.2-0.2-0.3-0.2-0.5c0-0.3,0.1-0.5,0.3-0.7c1.1-0.7,2-1.6,2.8-2.6c-0.8-0.8-1.5-1.5-2.3-2.1
		c-0.2-0.2-0.3-0.3-0.3-0.5c0-0.2,0.1-0.4,0.3-0.6c0.2-0.2,0.4-0.3,0.6-0.3c0.2,0,0.4,0.1,0.7,0.3c0.6,0.5,1.4,1.1,2.1,1.8
		c0.5-0.9,0.9-1.7,1.2-2.6c0-0.1,0.1-0.2,0.1-0.3c0-0.2-0.1-0.3-0.4-0.3h-4.4c-0.5,0-0.7-0.4-0.7-0.8c0-0.5,0.3-0.8,0.7-0.8H55.9z
		 M64.1,50.8c1.1,0,1.7,0.6,1.7,1.5c0,0.3-0.1,0.5-0.2,0.8c-0.6,1.8-1.5,3.6-2.8,5.2c1,1,2.1,1.9,3.5,2.7c0.2,0.1,0.4,0.4,0.4,0.7
		c0,0.2-0.1,0.4-0.2,0.6c-0.2,0.3-0.5,0.5-0.8,0.5c-0.1,0-0.3,0-0.4-0.1c-1.4-0.8-2.6-1.8-3.6-3c-1.1,1.1-2.4,2.2-3.9,3
		c-0.1,0.1-0.3,0.1-0.5,0.1c-0.3,0-0.6-0.2-0.8-0.4c-0.1-0.2-0.1-0.3-0.1-0.5c0-0.3,0.2-0.6,0.4-0.7c1.4-0.7,2.7-1.7,3.8-2.8
		c-0.8-1.2-1.5-2.4-2-3.8c-0.1-0.2-0.1-0.3-0.1-0.5c0-0.4,0.2-0.6,0.6-0.7c0.1,0,0.2-0.1,0.3-0.1c0.3,0,0.6,0.2,0.8,0.7
		c0.4,1.1,1,2.2,1.5,3.1c0.9-1.2,1.6-2.5,2.1-3.8c0.1-0.2,0.1-0.3,0.1-0.4c0-0.2-0.2-0.3-0.6-0.3h-4.9c-0.5,0-0.7-0.4-0.7-0.8
		c0-0.5,0.2-0.9,0.7-0.9H64.1z M64.2,39.5c1.1,0,1.7,0.6,1.7,1.5c0,0.2-0.1,0.5-0.2,0.8c-0.5,1.5-1.4,3-2.5,4.3
		c0.8,0.8,1.8,1.4,2.8,1.9c0.3,0.2,0.5,0.5,0.5,0.8c0,0.1,0,0.3-0.1,0.4c-0.2,0.4-0.5,0.6-0.9,0.6c-0.1,0-0.3-0.1-0.4-0.1
		c-1.1-0.6-2.1-1.4-3.1-2.3c-1,1-2.1,1.8-3.3,2.5C58.6,50,58.4,50,58.2,50c-0.3,0-0.5-0.1-0.7-0.4c-0.1-0.2-0.2-0.4-0.2-0.5
		c0-0.3,0.2-0.5,0.4-0.7c1.1-0.6,2.2-1.4,3.1-2.3c-0.8-0.9-1.5-2-1.9-3c-0.1-0.2-0.1-0.4-0.1-0.6c0-0.3,0.2-0.5,0.5-0.6
		c0.2-0.1,0.3-0.1,0.5-0.1c0.3,0,0.6,0.2,0.7,0.5c0.5,0.9,1,1.8,1.6,2.5c0.8-0.9,1.4-2,1.8-3.1c0.1-0.1,0.1-0.2,0.1-0.3
		c0-0.2-0.1-0.3-0.5-0.3h-4.7c-0.5,0-0.7-0.4-0.7-0.8c0-0.5,0.3-0.8,0.7-0.8H64.2z"/>
</g>
</svg>
