<?xml version="1.0" encoding="utf-8"?>
<!-- Generator: Adobe Illustrator 21.1.0, SVG Export Plug-In . SVG Version: 6.00 Build 0)  -->
<svg version="1.1" id="Layer_1" xmlns="http://www.w3.org/2000/svg" xmlns:xlink="http://www.w3.org/1999/xlink" x="0px" y="0px"
	 viewBox="0 0 108.1 105.4" style="enable-background:new 0 0 108.1 105.4;" xml:space="preserve">
<style type="text/css">
	.st0{fill:#FFFFFF;stroke:#222222;stroke-width:3.5;stroke-miterlimit:10;}
	.st1{fill:#EEEEEE;}
</style>
<path class="st0" d="M93.8,103.9H14.3c-7.1,0-12.8-5.6-12.8-12.5V14c0-6.9,5.7-12.5,12.8-12.5h79.4c7.1,0,12.8,5.6,12.8,12.5v77.3
	C106.6,98.3,100.9,103.9,93.8,103.9z"/>
<path class="st1" d="M90.3,102H13.8c-5.8,0-10.4-4.7-10.4-10.4V16.6c0-5.8,4.7-10.4,10.4-10.4h76.5c5.8,0,10.4,4.7,10.4,10.4v74.9
	C100.7,97.3,96.1,102,90.3,102z"/>
<g>
	<path d="M44.7,43.1c-0.5,0-0.7-0.4-0.7-0.9c0-0.6,0.3-0.9,0.7-0.9h8.1v-1.9c0-0.5,0.4-0.8,1-0.8c0.6,0,1,0.3,1,0.8v1.9h8.5
		c0.5,0,0.7,0.4,0.7,0.9c0,0.5-0.3,0.9-0.7,0.9h-8.5v2.6h10.4c0.5,0,0.8,0.3,0.8,0.9c0,0.5-0.3,0.9-0.8,0.9H42.8
		c-0.5,0-0.8-0.4-0.8-0.9c0-0.6,0.3-0.9,0.8-0.9h10v-2.6H44.7z M44.3,58.2c-0.5,0-0.7-0.4-0.7-0.9c0-0.6,0.3-0.9,0.7-0.9h8.5v-2.6
		H43c-0.5,0-0.7-0.4-0.7-0.9c0-0.6,0.3-0.9,0.7-0.9h13.2c0.9-1.2,1.6-2.5,2-3.5c0.2-0.4,0.5-0.6,0.9-0.6c0.1,0,0.3,0,0.4,0.1
		c0.4,0.1,0.7,0.4,0.7,0.8c0,0.1,0,0.3-0.1,0.4c-0.4,0.9-1,2-1.7,2.9H65c0.5,0,0.8,0.3,0.8,0.9c0,0.5-0.3,0.9-0.8,0.9H54.9v2.6h8.9
		c0.5,0,0.7,0.3,0.7,0.9s-0.3,0.9-0.7,0.9h-8.9v4.1c0,0.5-0.4,0.8-1,0.8c-0.6,0-1-0.3-1-0.8v-4.1H44.3z M48.7,47.8
		c0.3,0,0.6,0.2,0.8,0.5c0.4,0.6,1,1.6,1.2,2.2c0,0.1,0.1,0.2,0.1,0.3c0,0.4-0.2,0.7-0.7,0.8c-0.2,0.1-0.3,0.1-0.5,0.1
		c-0.3,0-0.6-0.2-0.8-0.5c-0.3-0.6-0.7-1.5-1.1-2.1c-0.1-0.2-0.1-0.3-0.1-0.4c0-0.3,0.2-0.6,0.6-0.7C48.4,47.8,48.5,47.8,48.7,47.8z
		"/>
</g>
</svg>
