<?xml version="1.0" encoding="utf-8"?>
<!-- Generator: Adobe Illustrator 16.0.0, SVG Export Plug-In . SVG Version: 6.00 Build 0)  -->
<!DOCTYPE svg PUBLIC "-//W3C//DTD SVG 1.1//EN" "http://www.w3.org/Graphics/SVG/1.1/DTD/svg11.dtd">
<svg version="1.1" id="Capa_1" xmlns="http://www.w3.org/2000/svg" xmlns:xlink="http://www.w3.org/1999/xlink" x="0px" y="0px"
	 width="500px" height="500px" viewBox="2250 2250 500 500" enable-background="new 2250 2250 500 500" xml:space="preserve">
<g>
	<path fill="#FFAFCA" d="M2610.391,2351.969C2600.25,2374.484,2520.109,2509.047,2500,2500s27.453-158.281,37.594-180.797
		c10.143-22.516,44.906-56.234,65-47.188C2622.688,2281.061,2620.516,2329.438,2610.391,2351.969z"/>
	<path fill="#FFAFCA" d="M2389.609,2648.031c10.141-22.518,90.279-157.078,110.391-148.031s-27.453,158.281-37.594,180.797
		c-10.143,22.516-44.906,56.234-65,47.188C2377.312,2718.939,2379.484,2670.562,2389.609,2648.031z"/>
	<path fill="#FFAFCA" d="M2682.734,2473.375c-23.096,8.766-174.922,47.234-182.734,26.625s131.328-92.5,154.422-101.266
		c23.094-8.75,71.516-8.018,79.328,12.594C2741.562,2431.953,2705.828,2464.625,2682.734,2473.375z"/>
	<path fill="#FFAFCA" d="M2317.266,2526.625c23.096-8.766,174.922-47.234,182.734-26.625s-131.328,92.5-154.422,101.266
		c-23.094,8.768-71.516,8.018-79.328-12.607C2258.438,2568.047,2294.172,2535.375,2317.266,2526.625z"/>
	<path fill="#FFAFCA" d="M2648.031,2610.391C2625.516,2600.25,2490.953,2520.109,2500,2500s158.281,27.453,180.797,37.594
		c22.516,10.143,56.234,44.906,47.188,65C2718.939,2622.688,2670.562,2620.516,2648.031,2610.391z"/>
	<path fill="#FFAFCA" d="M2351.969,2389.609c22.518,10.141,157.078,90.279,148.031,110.391s-158.281-27.453-180.797-37.594
		c-22.516-10.143-56.234-44.906-47.188-65C2281.061,2377.312,2329.438,2379.484,2351.969,2389.609z"/>
	<path fill="#FFAFCA" d="M2526.625,2682.734c-8.766-23.096-47.234-174.922-26.625-182.734s92.5,131.328,101.266,154.422
		c8.75,23.094,8.018,71.516-12.594,79.328C2568.047,2741.562,2535.375,2705.828,2526.625,2682.734z"/>
	<path fill="#FFAFCA" d="M2473.375,2317.266c8.766,23.096,47.234,174.922,26.625,182.734s-92.5-131.328-101.266-154.422
		c-8.768-23.094-8.018-71.516,12.607-79.328S2464.625,2294.172,2473.375,2317.266z"/>
</g>
<g>
	<path fill="#FFC5D8" d="M2539.922,2319.703c0,24.688-17.875,180.297-39.922,180.297s-39.922-155.609-39.922-180.297
		S2477.953,2250,2500,2250S2539.922,2295.016,2539.922,2319.703z"/>
	<path fill="#FFC5D8" d="M2460.078,2680.297c0-24.688,17.875-180.297,39.922-180.297s39.922,155.609,39.922,180.297
		S2522.047,2750,2500,2750S2460.078,2704.984,2460.078,2680.297z"/>
	<path fill="#FFC5D8" d="M2655.719,2400.734C2638.25,2418.188,2515.594,2515.594,2500,2500s81.812-138.25,99.266-155.719
		c17.455-17.469,61.924-36.656,77.518-21.062C2692.359,2338.812,2673.172,2383.266,2655.719,2400.734z"/>
	<path fill="#FFC5D8" d="M2344.281,2599.266c17.469-17.451,140.125-114.857,155.719-99.266s-81.812,138.25-99.266,155.719
		c-17.455,17.469-61.924,36.656-77.518,21.062C2307.641,2661.188,2326.828,2616.734,2344.281,2599.266z"/>
	<path fill="#FFC5D8" d="M2680.297,2539.922c-24.688,0-180.297-17.875-180.297-39.922s155.609-39.922,180.297-39.922
		S2750,2477.953,2750,2500S2704.984,2539.922,2680.297,2539.922z"/>
	<path fill="#FFC5D8" d="M2319.703,2460.078c24.688,0,180.297,17.875,180.297,39.922s-155.609,39.922-180.297,39.922
		S2250,2522.047,2250,2500S2295.016,2460.078,2319.703,2460.078z"/>
	<path fill="#FFC5D8" d="M2599.266,2655.719C2581.812,2638.25,2484.406,2515.594,2500,2500s138.25,81.812,155.719,99.266
		c17.469,17.455,36.656,61.924,21.062,77.518C2661.188,2692.359,2616.734,2673.172,2599.266,2655.719z"/>
	<path fill="#FFC5D8" d="M2400.734,2344.281c17.451,17.469,114.857,140.125,99.266,155.719s-138.25-81.812-155.719-99.266
		c-17.469-17.455-36.643-61.924-21.062-77.518S2383.266,2326.828,2400.734,2344.281z"/>
</g>
<circle fill="#FFB2CC" cx="2500" cy="2500" r="90.422"/>
<circle fill="#FFDAB9" cx="2500" cy="2500" r="44.469"/>
</svg>
