<?xml version="1.0" encoding="utf-8"?>
<!-- Generator: Adobe Illustrator 16.0.0, SVG Export Plug-In . SVG Version: 6.00 Build 0)  -->
<!DOCTYPE svg PUBLIC "-//W3C//DTD SVG 1.1//EN" "http://www.w3.org/Graphics/SVG/1.1/DTD/svg11.dtd">
<svg version="1.1" id="Layer_1" xmlns="http://www.w3.org/2000/svg" xmlns:xlink="http://www.w3.org/1999/xlink" x="0px" y="0px"
	 width="42px" height="42px" viewBox="0 0 42 42" enable-background="new 0 0 42 42" xml:space="preserve">
<g>
	<circle fill="#FFFFFF" stroke="#000000" stroke-width="2" stroke-miterlimit="10" cx="21" cy="21" r="20"/>
	<ellipse fill="#FEDEDE" cx="19.901" cy="21.884" rx="17.901" ry="18.116"/>
	<g>
		<g id="refresh">
			<path fill="#010202" d="M28.502,14.884c-1.754-1.875-4.254-3-7.002-3c-5.499,0-10,4.5-10,10c0,5.501,4.501,10,10,10
				c4.624,0,8.501-3.249,9.624-7.5h-2.622c-1,2.874-3.75,5-7.001,5c-4.126,0-7.5-3.376-7.5-7.5c0-4.125,3.374-7.5,7.5-7.5
				c2.124,0,3.876,0.875,5.249,2.25l-3.999,4H31.5v-8.75L28.502,14.884z"/>
		</g>
	</g>
</g>
</svg>
