<?xml version="1.0" encoding="utf-8"?>
<!-- Generator: Adobe Illustrator 16.0.0, SVG Export Plug-In . SVG Version: 6.00 Build 0)  -->
<!DOCTYPE svg PUBLIC "-//W3C//DTD SVG 1.1//EN" "http://www.w3.org/Graphics/SVG/1.1/DTD/svg11.dtd">
<svg version="1.1" id="Capa_1" xmlns="http://www.w3.org/2000/svg" xmlns:xlink="http://www.w3.org/1999/xlink" x="0px" y="0px"
	 width="400px" height="324.602px" viewBox="0 37.699 400 324.602" enable-background="new 0 37.699 400 324.602"
	 xml:space="preserve">
<g>
	<g>
		<g>
			<path d="M370.357,37.699H95.891c-16.468,0-29.642,13.541-29.642,29.643v170.536c0,16.467,13.54,29.642,29.642,29.642H285.09
				l42.817,43.183c1.829,1.83,4.025,2.928,6.587,2.928c5.123,0,9.515-4.025,9.515-9.515v-36.596h26.349
				c16.468,0,29.643-13.54,29.643-29.642V67.341C400,50.873,386.46,37.699,370.357,37.699z M137.976,184.447
				c-15.004,0-27.447-12.442-27.447-27.447c0-15.004,12.442-27.446,27.447-27.446s27.447,12.442,27.447,27.446
				C165.423,172.004,153.346,184.447,137.976,184.447z M234.223,184.447c-15.004,0-27.447-12.442-27.447-27.447
				c0-15.004,12.443-27.446,27.447-27.446s27.446,12.442,27.446,27.446C261.669,172.004,249.227,184.447,234.223,184.447z
				 M330.103,184.447c-15.004,0-27.446-12.442-27.446-27.447c0-15.004,12.442-27.446,27.446-27.446s27.446,12.442,27.446,27.446
				C357.549,172.004,345.106,184.447,330.103,184.447z"/>
			<path d="M49.415,238.608v-58.187H19.407c-10.613,0-19.396,8.783-19.396,19.396v111.982c-0.366,11.346,8.417,20.128,19.396,20.128
				h17.2v24.153c0,3.293,2.928,6.221,6.221,6.221c1.83,0,3.293-0.731,4.392-1.83l28.179-28.178h124.424
				c10.613,0,19.396-8.783,19.396-19.396v-27.812H95.891C70.274,285.084,49.415,264.225,49.415,238.608z"/>
		</g>
	</g>
</g>
</svg>
