<?xml version="1.0" encoding="utf-8"?>
<!-- Generator: Adobe Illustrator 16.0.0, SVG Export Plug-In . SVG Version: 6.00 Build 0)  -->
<!DOCTYPE svg PUBLIC "-//W3C//DTD SVG 1.1//EN" "http://www.w3.org/Graphics/SVG/1.1/DTD/svg11.dtd">
<svg version="1.1" id="Capa_1" xmlns="http://www.w3.org/2000/svg" xmlns:xlink="http://www.w3.org/1999/xlink" x="0px" y="0px"
	 width="400px" height="241.069px" viewBox="0 79.464 400 241.069" enable-background="new 0 79.464 400 241.069"
	 xml:space="preserve">
<g>
	<g>
		<path d="M394.672,223.494l-0.216-0.316c-1.634-2.395-1.638-5.495-0.009-7.899l0.23-0.341c7.099-10.476,7.039-23.974-0.152-34.39
			c-1.658-2.401-1.673-5.514-0.034-7.932l0.21-0.309c7.077-10.443,7.037-23.912-0.101-34.313l-13.422-19.559l-66.132,37.452
			c-11.396-31.014-34.996-56.181-64.947-69.656c10.476,8.431,19.751,18.449,27.426,29.874c22.5,33.495,27.16,72.832,12.785,107.925
			c-13.543,33.062-43.746,57.062-78.823,62.638c-5.04,0.801-10.038,1.196-14.961,1.196c-26.04,0.001-50.012-11.045-67.345-31.454
			c-21.369-25.165-25.226-63.125-9.379-92.314c14.827-27.312,42.902-42.091,71.53-37.644c16.191,2.514,31.299,12.315,40.412,26.22
			c8.492,12.958,11.082,28.044,7.297,42.483c-3.816,14.546-14.164,26.302-27.004,30.675c-15.869,5.408-33.863-1.439-40.959-15.59
			l20.944-10.503c1.797,3.581,7.848,5.483,12.458,3.914c5.408-1.842,10.077-7.511,11.896-14.442
			c2.082-7.94,0.58-16.355-4.229-23.695c-5.537-8.449-14.662-14.398-24.409-15.911c-18.71-2.905-37.3,7.17-47.343,25.668
			c-11.157,20.551-8.362,48.296,6.646,65.97c15.414,18.149,36.994,26.064,60.769,22.285c27.053-4.3,50.356-22.838,60.819-48.379
			c11.364-27.742,7.517-59.08-10.553-85.979c-19.917-29.648-52.868-47.932-89.006-49.706c-38.935,10.165-70.385,39.05-84.115,76.422
			l-66.132-37.451L5.4,137.992c-7.137,10.401-7.176,23.87-0.102,34.311l0.212,0.315c1.638,2.416,1.623,5.527-0.036,7.93
			c-7.191,10.414-7.251,23.912-0.155,34.384l0.236,0.349c1.626,2.401,1.622,5.501-0.012,7.896l-0.215,0.315
			c-7.086,10.391-7.106,23.832-0.051,34.241l13.489,19.905l66.187-37.482c17.215,46.859,62.29,80.377,115.046,80.377
			c52.756,0,97.83-33.518,115.046-80.377l66.187,37.482l13.489-19.905C401.777,247.325,401.758,233.884,394.672,223.494z"/>
	</g>
</g>
</svg>
