<?xml version="1.0" encoding="utf-8"?>
<!-- Generator: Adobe Illustrator 16.0.0, SVG Export Plug-In . SVG Version: 6.00 Build 0)  -->
<!DOCTYPE svg PUBLIC "-//W3C//DTD SVG 1.1//EN" "http://www.w3.org/Graphics/SVG/1.1/DTD/svg11.dtd">
<svg version="1.1" id="Layer_1" xmlns="http://www.w3.org/2000/svg" xmlns:xlink="http://www.w3.org/1999/xlink" x="0px" y="0px"
	 width="42px" height="42px" viewBox="0 0 42 42" enable-background="new 0 0 42 42" xml:space="preserve">
<g>
	<circle fill="#FFFFFF" stroke="#000000" stroke-width="2" stroke-miterlimit="10" cx="21" cy="21" r="20"/>
	<ellipse fill="#EEEEEE" cx="19.901" cy="21.884" rx="17.901" ry="18.116"/>
	<path d="M29.09,19.908c0.314-0.307,0.427-0.758,0.291-1.176c-0.137-0.419-0.491-0.718-0.927-0.781l-3.874-0.563
		c-0.165-0.024-0.309-0.127-0.382-0.277l-1.731-3.51c-0.195-0.395-0.59-0.64-1.029-0.64s-0.834,0.245-1.029,0.64l-1.732,3.511
		c-0.074,0.149-0.217,0.253-0.382,0.277l-3.874,0.563c-0.436,0.063-0.791,0.362-0.927,0.781c-0.136,0.418-0.024,0.869,0.291,1.176
		l2.803,2.732c0.12,0.116,0.174,0.284,0.146,0.448l-0.661,3.858c-0.059,0.34,0.03,0.67,0.25,0.931
		c0.341,0.406,0.938,0.529,1.415,0.279l3.464-1.822c0.145-0.075,0.328-0.075,0.472,0l3.465,1.822
		c0.168,0.088,0.348,0.134,0.533,0.134c0.339,0,0.659-0.151,0.881-0.413c0.22-0.261,0.309-0.592,0.25-0.931l-0.661-3.858
		c-0.029-0.164,0.026-0.332,0.146-0.448L29.09,19.908z"/>
</g>
</svg>
