<?xml version="1.0" encoding="utf-8"?>
<!-- Generator: Adobe Illustrator 16.0.0, SVG Export Plug-In . SVG Version: 6.00 Build 0)  -->
<!DOCTYPE svg PUBLIC "-//W3C//DTD SVG 1.1//EN" "http://www.w3.org/Graphics/SVG/1.1/DTD/svg11.dtd">
<svg version="1.1" id="Layer_1" xmlns="http://www.w3.org/2000/svg" xmlns:xlink="http://www.w3.org/1999/xlink" x="0px" y="0px"
	 width="400.002px" height="305.595px" viewBox="0 47.203 400.002 305.595" enable-background="new 0 47.203 400.002 305.595"
	 xml:space="preserve">
<g>
	<g>
		<g>
			<path d="M61.188,47.204c-0.011,0-0.023,0-0.034,0c-3.783,0-7.341,1.475-10.028,4.155c-2.716,2.71-4.213,6.318-4.213,10.159
				v214.635c0,7.869,6.429,14.287,14.332,14.309c33.317,0.08,89.137,7.023,127.645,47.322V113.163c0-2.668-0.682-5.174-1.968-7.249
				C155.316,55.016,94.581,47.282,61.188,47.204z"/>
			<path d="M353.088,276.153V61.517c0-3.841-1.496-7.449-4.213-10.159c-2.688-2.68-6.248-4.155-10.025-4.155
				c-0.014,0-0.023,0-0.035,0c-33.393,0.079-94.127,7.812-125.732,58.711c-1.287,2.074-1.967,4.581-1.967,7.249v224.619
				c38.508-40.297,94.326-47.242,127.645-47.32C346.661,290.438,353.088,284.021,353.088,276.153z"/>
			<path d="M385.688,96.702h-10.377v179.451c0,20.096-16.373,36.479-36.5,36.529c-28.262,0.066-74.855,5.596-107.855,36.826
				c57.074-13.973,117.242-4.889,151.529,2.926c4.281,0.977,8.705-0.032,12.139-2.768c3.418-2.729,5.379-6.805,5.379-11.18V111.013
				C400,103.122,393.581,96.702,385.688,96.702z"/>
			<path d="M24.689,276.153V96.702H14.311C6.421,96.702,0,103.122,0,111.013v227.471c0,4.378,1.961,8.453,5.379,11.181
				c3.428,2.731,7.848,3.744,12.136,2.769c34.29-7.813,94.458-16.896,151.531-2.925c-33-31.23-79.597-36.758-107.856-36.823
				C41.064,312.635,24.689,296.249,24.689,276.153z"/>
		</g>
	</g>
</g>
</svg>
