<?xml version="1.0" encoding="utf-8"?>
<!-- Generator: Adobe Illustrator 21.1.0, SVG Export Plug-In . SVG Version: 6.00 Build 0)  -->
<svg version="1.1" id="Layer_1" xmlns="http://www.w3.org/2000/svg" xmlns:xlink="http://www.w3.org/1999/xlink" x="0px" y="0px"
	 viewBox="0 0 108.1 105.4" style="enable-background:new 0 0 108.1 105.4;" xml:space="preserve">
<style type="text/css">
	.st0{fill:#FFFFFF;stroke:#222222;stroke-width:3.5;stroke-miterlimit:10;}
	.st1{fill:#E8FFF2;}
	.st2{enable-background:new    ;}
</style>
<path class="st0" d="M93.8,103.9H14.3c-7.1,0-12.8-5.6-12.8-12.5V14c0-6.9,5.7-12.5,12.8-12.5h79.4c7.1,0,12.8,5.6,12.8,12.5v77.3
	C106.6,98.3,100.9,103.9,93.8,103.9z"/>
<path class="st1" d="M90.3,102H13.8C8,102,3.4,97.3,3.4,91.6v-75c0-5.8,4.7-10.4,10.4-10.4h76.5c5.8,0,10.4,4.7,10.4,10.4v74.9
	C100.7,97.3,96.1,102,90.3,102z"/>
<g class="st2">
	<path d="M40.6,38.8c0.6,0,1.2,0.2,1.6,0.7c2.8,3.7,6.5,6.1,10.3,7.9c0.5,0.2,0.7,0.6,0.7,1c0,0.2,0,0.3-0.1,0.5
		c-0.2,0.4-0.6,0.6-1,0.6c-0.2,0-0.3,0-0.5-0.1c-4.1-2-8.3-5.2-10.7-8.4c-0.1-0.2-0.2-0.3-0.3-0.3s-0.2,0.1-0.3,0.2
		c-2.4,3.4-6.5,6.6-10.2,8.3c-0.3,0.1-0.5,0.2-0.8,0.2c-0.4,0-0.7-0.2-0.9-0.5c-0.1-0.2-0.1-0.4-0.1-0.5c0-0.4,0.2-0.8,0.8-1
		c3.4-1.6,7-4,9.9-8C39.4,39,40,38.8,40.6,38.8z M51.9,59.9c0.5,0,0.7,0.4,0.7,0.9s-0.3,1-0.7,1H29.5c-0.5,0-0.7-0.4-0.7-1
		c0-0.5,0.3-0.9,0.7-0.9h10v-4.6H33c-0.5,0-0.7-0.4-0.7-0.9s0.3-0.9,0.7-0.9h6.5v-3.8H34c-0.5,0-0.7-0.4-0.7-0.9s0.3-0.9,0.7-0.9
		h13.2c0.5,0,0.8,0.3,0.8,0.9s-0.3,0.9-0.8,0.9h-5.7v3.8h6.9c0.5,0,0.7,0.3,0.7,0.9c0,0.5-0.2,0.9-0.7,0.9h-6.9v4.6H51.9z"/>
	<path d="M68.3,48.8c0.5,0,0.7,0.4,0.7,0.9s-0.3,0.9-0.7,0.9H55.6c-0.5,0-0.7-0.4-0.7-0.9s0.3-0.9,0.7-0.9h7.3
		c0.8-1.5,1.4-3,1.8-4.3c0.1-0.4,0.4-0.7,0.9-0.7c0.1,0,0.2,0,0.3,0c0.5,0.1,0.8,0.4,0.8,0.8c0,0.1,0,0.2-0.1,0.3
		c-0.5,1.3-1.1,2.6-1.7,3.7h3.4V48.8z M67.9,41.6c0.5,0,0.7,0.4,0.7,0.9s-0.2,0.9-0.7,0.9H56.3c-0.5,0-0.7-0.4-0.7-0.9
		s0.3-0.9,0.7-0.9h4.6v-2.2c0-0.5,0.4-0.7,1-0.7s1.1,0.2,1.1,0.7v2.2H67.9z M67.5,59.8c0,1.5-0.8,2.2-2.4,2.2h-6.2
		c-1.5,0-2.4-0.6-2.4-2.2v-5c0-1.5,0.8-2.2,2.4-2.2h6.2c1.6,0,2.4,0.6,2.4,2.2V59.8z M58.4,43.9c0.4,0,0.6,0.2,0.8,0.5
		c0.4,0.8,0.9,1.8,1.1,2.8c0,0.1,0.1,0.2,0.1,0.3c0,0.4-0.3,0.7-0.7,0.8c-0.1,0-0.2,0.1-0.3,0.1c-0.4,0-0.7-0.2-0.8-0.6
		c-0.2-0.8-0.6-1.8-1-2.6c-0.1-0.2-0.1-0.3-0.1-0.4c0-0.3,0.2-0.6,0.6-0.8C58.1,43.9,58.3,43.9,58.4,43.9z M64.6,60.2
		c0.5,0,0.9-0.2,0.9-0.7v-4.3c0-0.5-0.3-0.8-0.9-0.8h-5.2c-0.5,0-0.9,0.2-0.9,0.8v4.3c0,0.5,0.3,0.7,0.9,0.7H64.6z M69.9,41.8
		c0-1.5,0.7-2.2,2.4-2.2h4.9c1.4,0,2.2,0.8,2.2,1.8c0,0.3-0.1,0.7-0.2,1c-0.7,1.9-1.8,3.9-2.9,5.5c-0.1,0.2-0.2,0.4-0.2,0.5
		s0.1,0.3,0.2,0.4c1.8,1.8,3.2,4.1,3.2,6.9c0,2.7-1.2,3.9-3.6,3.9c-0.8,0-1.9-0.1-2.5-0.2c-0.5-0.1-0.7-0.4-0.7-0.9
		c0-0.1,0-0.2,0-0.3c0.1-0.5,0.4-0.8,0.8-0.8c0.1,0,0.2,0,0.2,0c0.5,0.1,1.3,0.2,1.9,0.2c1.3,0,1.8-0.5,1.8-2.1c0-2.1-1.4-4.2-3.1-6
		c-0.3-0.3-0.5-0.8-0.5-1.2s0.1-0.7,0.4-1.1c1.1-1.5,2.2-3.5,2.7-5.3c0.1-0.2,0.1-0.3,0.1-0.4c0-0.3-0.2-0.4-0.6-0.4h-3.8
		c-0.5,0-0.8,0.2-0.8,0.7v20c0,0.5-0.4,0.8-1,0.8s-1-0.3-1-0.8L69.9,41.8L69.9,41.8z"/>
</g>
</svg>
