<?xml version="1.0" encoding="utf-8"?>
<!-- Generator: Adobe Illustrator 21.1.0, SVG Export Plug-In . SVG Version: 6.00 Build 0)  -->
<svg version="1.1" id="Layer_1" xmlns="http://www.w3.org/2000/svg" xmlns:xlink="http://www.w3.org/1999/xlink" x="0px" y="0px"
	 viewBox="0 0 108.1 105.4" style="enable-background:new 0 0 108.1 105.4;" xml:space="preserve">
<style type="text/css">
	.st0{fill:#FFFFFF;stroke:#222222;stroke-width:3.5;stroke-miterlimit:10;}
	.st1{fill:#EEEEEE;}
</style>
<path class="st0" d="M93.8,103.9H14.3c-7.1,0-12.8-5.6-12.8-12.5V14c0-6.9,5.7-12.5,12.8-12.5h79.4c7.1,0,12.8,5.6,12.8,12.5v77.3
	C106.6,98.3,100.9,103.9,93.8,103.9z"/>
<path class="st1" d="M90.3,102H13.8c-5.8,0-10.4-4.7-10.4-10.4V16.6c0-5.8,4.7-10.4,10.4-10.4h76.5c5.8,0,10.4,4.7,10.4,10.4v74.9
	C100.7,97.3,96.1,102,90.3,102z"/>
<g>
	<path d="M52.7,57.9c0.1,0,0.2-0.1,0.3-0.1c0.3,0,0.6,0.2,0.7,0.6c0,0.1,0,0.2,0,0.3c0,0.4-0.2,0.7-0.7,0.9
		c-3.1,0.9-6.9,1.7-10.2,2.1c-0.1,0-0.1,0-0.2,0c-0.5,0-0.8-0.3-0.9-0.9c0-0.1,0-0.1,0-0.2c0-0.5,0.3-0.8,0.8-0.9
		c0.3,0,0.5-0.1,0.8-0.1V47.8c0-1.6,0.7-2.2,2.2-2.2h4.7c1.5,0,2.2,0.6,2.2,2.2V58L52.7,57.9z M50.7,44.1c0,0.5-0.3,0.7-0.9,0.7
		c-0.6,0-1-0.2-1-0.7v-1.4h-6.2c-0.5,0-0.7-0.3-0.7-0.9c0-0.5,0.3-0.9,0.7-0.9h6.2v-1.4c0-0.5,0.3-0.8,0.9-0.8c0.6,0,1,0.3,1,0.8V41
		H57v-1.4c0-0.5,0.3-0.8,1-0.8c0.6,0,1,0.3,1,0.8V41h6.5c0.5,0,0.7,0.3,0.7,0.9c0,0.5-0.3,0.9-0.7,0.9h-6.5v1.1c0,0.5-0.3,0.8-1,0.8
		c-0.6,0-1-0.2-1-0.8v-1.1h-6.2V44.1z M50.6,49.9V48c0-0.5-0.3-0.7-0.8-0.7h-3.6c-0.5,0-0.8,0.2-0.8,0.7v1.8H50.6z M45.4,54.2h5.2
		v-2.7h-5.2V54.2z M45.4,59.3c1.8-0.3,3.5-0.6,5.2-0.9v-2.6h-5.2V59.3z M54.1,50.5c-0.5,0-0.8-0.3-0.8-0.9c0-0.5,0.3-0.9,0.8-0.9
		h3.3c0.1-0.8,0.1-1.7,0.1-2.7c0-0.5,0.4-0.8,1-0.8c0.7,0,1,0.3,1,0.8c0,1,0,1.9-0.1,2.7H63c1.6,0,2.4,0.7,2.4,2.2
		c-0.1,4.1-0.6,7.7-1.1,9.4c-0.5,1.6-1.2,2.1-3.1,2.1c-0.7,0-1.6,0-2.3-0.2c-0.3-0.1-0.7-0.4-0.7-0.9c0-0.1,0-0.2,0-0.3
		c0.1-0.5,0.4-0.8,0.7-0.8c0.1,0,0.1,0,0.2,0c0.6,0.1,1.3,0.2,1.8,0.2c0.8,0,1.2-0.2,1.5-1.1c0.4-1.5,0.9-4.8,1-8.3
		c0-0.6-0.3-0.7-0.8-0.7h-3.4c-0.3,3-0.9,5.1-1.7,7c-0.8,1.8-2.2,3.7-3.5,4.8c-0.3,0.2-0.6,0.4-0.9,0.4c-0.2,0-0.5-0.1-0.6-0.3
		c-0.2-0.2-0.3-0.4-0.3-0.7c0-0.3,0.1-0.6,0.4-0.8c1.2-1.1,2.4-2.6,3.2-4.2c0.8-1.7,1.3-3.6,1.5-6.2H54.1z"/>
</g>
</svg>
