<?xml version="1.0" encoding="utf-8"?>
<!-- Generator: Adobe Illustrator 21.1.0, SVG Export Plug-In . SVG Version: 6.00 Build 0)  -->
<svg version="1.1" id="Layer_1" xmlns="http://www.w3.org/2000/svg" xmlns:xlink="http://www.w3.org/1999/xlink" x="0px" y="0px"
	 viewBox="0 0 108.1 105.4" style="enable-background:new 0 0 108.1 105.4;" xml:space="preserve">
<style type="text/css">
	.st0{fill:#FFFFFF;stroke:#222222;stroke-width:3.5;stroke-miterlimit:10;}
	.st1{fill:#EEEEEE;}
</style>
<path class="st0" d="M93.8,103.9H14.3c-7.1,0-12.8-5.6-12.8-12.5V14c0-6.9,5.7-12.5,12.8-12.5h79.4c7.1,0,12.8,5.6,12.8,12.5v77.3
	C106.6,98.3,100.9,103.9,93.8,103.9z"/>
<path class="st1" d="M90.3,102H13.8c-5.8,0-10.4-4.7-10.4-10.4V16.6c0-5.8,4.7-10.4,10.4-10.4h76.5c5.8,0,10.4,4.7,10.4,10.4v74.9
	C100.7,97.3,96.1,102,90.3,102z"/>
<g>
	<path d="M42.6,43.2c-0.5,0-0.7-0.4-0.7-0.9s0.3-0.9,0.7-0.9h10.2v-1.9c0-0.5,0.4-0.7,1-0.7s1,0.3,1,0.7v1.9h10.8
		c0.5,0,0.7,0.4,0.7,0.9s-0.3,0.9-0.7,0.9H54.7v2h7c1.6,0,2.4,0.6,2.4,2.1v5.3c0,1.5-0.7,2.1-2.4,2.1h-5.6c1.3,1.2,3,2.5,4.6,3.3
		c1.7,0.9,3.6,1.6,5.2,2.1c0.6,0.2,0.8,0.4,0.8,0.9c0,0.1,0,0.3-0.1,0.4C66.4,61.8,66,62,65.6,62c-0.1,0-0.3,0-0.4-0.1
		c-1.6-0.5-4-1.5-5.7-2.5c-1.7-1-3.8-2.8-5.1-4.3c0.2,0.8,0.3,1.6,0.3,2.3v4.8c0,0.5-0.4,0.7-1,0.7s-1-0.3-1-0.7v-4.8
		c0-0.6,0.1-1.5,0.3-2.3c-1.3,1.6-3.3,3.3-4.6,4.2c-1.8,1.1-3.8,2.1-5.3,2.6C42.9,62,42.7,62,42.5,62c-0.4,0-0.7-0.2-0.9-0.6
		c-0.1-0.2-0.1-0.3-0.1-0.5c0-0.1,0-0.3,0.1-0.4c0.1-0.3,0.3-0.4,0.7-0.5c1.4-0.4,3.2-1.1,4.9-2.2c1.5-0.9,3-2.1,4.1-3.1h-5
		c-1.6,0-2.4-0.6-2.4-2.1v-5.3c0-1.5,0.7-2.1,2.4-2.1h6.5v-2H42.6z M52.8,47h-6c-0.6,0-0.9,0.2-0.9,0.8v1.4h6.9V47z M45.9,50.8v1.4
		c0,0.6,0.3,0.8,0.9,0.8h6v-2.2H45.9z M62.1,49.2v-1.4c0-0.6-0.3-0.8-0.9-0.8h-6.5v2.2H62.1z M54.7,53h6.5c0.6,0,0.9-0.2,0.9-0.8
		v-1.4h-7.5V53z"/>
</g>
</svg>
