<?xml version="1.0" encoding="utf-8"?>
<!-- Generator: Adobe Illustrator 21.1.0, SVG Export Plug-In . SVG Version: 6.00 Build 0)  -->
<svg version="1.1" id="Layer_1" xmlns="http://www.w3.org/2000/svg" xmlns:xlink="http://www.w3.org/1999/xlink" x="0px" y="0px"
	 viewBox="0 0 108.1 105.4" style="enable-background:new 0 0 108.1 105.4;" xml:space="preserve">
<style type="text/css">
	.st0{fill:#FFFFFF;stroke:#222222;stroke-width:3.5;stroke-miterlimit:10;}
	.st1{fill:#EEEEEE;}
</style>
<path class="st0" d="M93.8,103.9H14.3c-7.1,0-12.8-5.6-12.8-12.5V14c0-6.9,5.7-12.5,12.8-12.5h79.4c7.1,0,12.8,5.6,12.8,12.5v77.3
	C106.6,98.3,100.9,103.9,93.8,103.9z"/>
<path class="st1" d="M90.3,102H13.8c-5.8,0-10.4-4.7-10.4-10.4V16.6c0-5.8,4.7-10.4,10.4-10.4h76.5c5.8,0,10.4,4.7,10.4,10.4v74.9
	C100.7,97.3,96.1,102,90.3,102z"/>
<g>
	<path d="M24.6,52.5c0.3,0.2,0.4,0.4,0.4,0.7c0,0.2-0.1,0.4-0.2,0.5c-0.2,0.3-0.4,0.4-0.8,0.4c-0.2,0-0.4-0.1-0.6-0.2
		c-1.2-0.8-3-1.8-4.6-2.4c-0.3-0.1-0.5-0.3-0.5-0.6c0-0.2,0-0.3,0.1-0.5c0.2-0.3,0.4-0.5,0.7-0.5c0.1,0,0.3,0,0.4,0.1
		C21.3,50.6,23.2,51.6,24.6,52.5z M34.8,49.5c0,0.1,0,0.2,0,0.3c-1,3.4-2.9,6.2-5.6,8.2c-2.4,1.7-6,2.9-9.3,3.1c0,0-0.1,0-0.1,0
		c-0.5,0-0.9-0.3-0.9-0.8c0-0.1,0-0.1,0-0.1c0-0.4,0.3-0.7,0.8-0.8c3-0.2,6.4-1.2,8.5-2.8c2.3-1.7,4-4.1,4.9-7.2
		c0.1-0.4,0.4-0.7,0.8-0.7c0.1,0,0.2,0,0.3,0C34.5,48.9,34.8,49.1,34.8,49.5z M26.5,48.2c0,0.2,0,0.3-0.1,0.5
		c-0.2,0.3-0.5,0.5-0.8,0.5c-0.2,0-0.3,0-0.5-0.1c-1.4-0.9-3.1-1.8-4.5-2.3c-0.3-0.1-0.5-0.4-0.5-0.6c0-0.2,0-0.3,0.1-0.5
		c0.2-0.3,0.4-0.5,0.8-0.5c0.1,0,0.3,0,0.4,0.1c1.4,0.5,3.1,1.4,4.6,2.3C26.3,47.7,26.5,47.9,26.5,48.2z"/>
	<path d="M41.3,60.9c0,0.5-0.4,0.8-0.9,0.8c-0.6,0-0.9-0.2-0.9-0.8V45.3c0-0.5,0.3-0.8,0.9-0.8c0.5,0,0.9,0.2,0.9,0.8v5.1
		c3.1,0.8,6.9,2.1,10,3.6c0.4,0.2,0.6,0.5,0.6,0.8c0,0.1,0,0.3-0.1,0.4c-0.1,0.3-0.5,0.6-0.8,0.6c-0.1,0-0.3,0-0.4-0.1
		c-2.7-1.3-6.2-2.7-9.2-3.6V60.9z"/>
	<path d="M70.6,58.2c0,1.5-0.8,2.2-2.2,2.2H57.7c-1.4,0-2.2-0.7-2.2-2.2v-10c0-1.5,0.8-2.2,2.2-2.2h10.7c1.4,0,2.2,0.8,2.2,2.2V58.2
		z M67.8,58.8c0.8,0,1-0.2,1-0.9v-9.3c0-0.7-0.2-0.9-1-0.9h-9.5c-0.8,0-1,0.2-1,0.9v9.3c0,0.7,0.2,0.9,1,0.9H67.8z"/>
	<path d="M90.4,48.5c0,0.1,0,0.2,0,0.4c-0.8,3.4-2.8,6.6-5.6,8.7c-2.5,1.8-6.3,3-9.4,3.1c0,0,0,0,0,0c-0.5,0-0.9-0.3-1-0.8
		c0,0,0-0.1,0-0.1c0-0.5,0.3-0.9,0.8-0.9c3-0.1,6.5-1.3,8.5-2.8c2.4-1.8,4.2-4.7,4.9-7.7c0.1-0.5,0.4-0.8,0.8-0.8c0.1,0,0.2,0,0.3,0
		C90.1,47.8,90.4,48.1,90.4,48.5z M80.6,50c0.2,0.2,0.2,0.4,0.2,0.6c0,0.2-0.1,0.5-0.3,0.7c-0.2,0.2-0.4,0.3-0.6,0.3
		s-0.5-0.1-0.8-0.4c-1.1-1.3-2.8-2.7-4.3-3.7c-0.2-0.2-0.3-0.4-0.3-0.6c0-0.2,0.1-0.4,0.2-0.6c0.2-0.2,0.4-0.3,0.7-0.3
		c0.2,0,0.4,0.1,0.6,0.2C77.5,47.1,79.4,48.6,80.6,50z"/>
</g>
</svg>
