<?xml version="1.0" encoding="utf-8"?>
<!-- Generator: Adobe Illustrator 21.1.0, SVG Export Plug-In . SVG Version: 6.00 Build 0)  -->
<svg version="1.1" id="Layer_1" xmlns="http://www.w3.org/2000/svg" xmlns:xlink="http://www.w3.org/1999/xlink" x="0px" y="0px"
	 viewBox="0 0 108.1 105.4" style="enable-background:new 0 0 108.1 105.4;" xml:space="preserve">
<style type="text/css">
	.st0{fill:#FFFFFF;stroke:#222222;stroke-width:3.5;stroke-miterlimit:10;}
	.st1{fill:#EEEEEE;}
</style>
<path class="st0" d="M93.8,103.9H14.3c-7.1,0-12.8-5.6-12.8-12.5V14c0-6.9,5.7-12.5,12.8-12.5h79.4c7.1,0,12.8,5.6,12.8,12.5v77.3
	C106.6,98.3,100.9,103.9,93.8,103.9z"/>
<path class="st1" d="M90.3,102H13.8c-5.8,0-10.4-4.7-10.4-10.4V16.6c0-5.8,4.7-10.4,10.4-10.4h76.5c5.8,0,10.4,4.7,10.4,10.4v74.9
	C100.7,97.3,96.1,102,90.3,102z"/>
<g>
	<path d="M40.9,46.5c-0.2,2.8-0.8,5.1-1.7,7.3c-1.4,3.1-3.7,5.7-6.8,7.5c-0.2,0.1-0.5,0.2-0.7,0.2c-0.4,0-0.7-0.2-0.9-0.5
		c-0.1-0.2-0.2-0.4-0.2-0.6c0-0.4,0.2-0.8,0.6-1c2.8-1.6,4.9-3.9,6.1-6.7c0.8-1.8,1.2-3.8,1.4-6.2h-6.4c-0.7,0-1-0.3-1-1s0.3-1,1-1
		l6.5,0c0.1-1.4,0.1-2.5,0.1-3.8c0-0.7,0.4-1,1.1-1c0.7,0,1.2,0.4,1.2,1c0,1.3-0.1,2.4-0.1,3.7l7.3,0c1.9,0,2.9,1,2.9,2.7
		c-0.1,3.8-0.4,7-0.7,9.4c-0.6,3.5-1.8,4.6-4.3,4.6c-1.3,0-2.7-0.2-3.7-0.5c-0.5-0.2-0.7-0.5-0.7-1c0-0.1,0-0.2,0-0.3
		c0.1-0.5,0.5-0.8,0.9-0.8c0.1,0,0.2,0,0.4,0.1c0.8,0.2,1.9,0.4,2.8,0.4c1.4,0,1.9-0.4,2.4-3c0.4-2.2,0.6-5.1,0.7-8.3
		c0,0,0-0.1,0-0.1c0-0.9-0.3-1-1.3-1H40.9z M49,39.6c0.3,0,0.5,0.1,0.7,0.3c0.7,0.9,1.4,1.8,2,2.7c0.1,0.2,0.2,0.4,0.2,0.5
		c0,0.3-0.1,0.6-0.4,0.8c-0.1,0.1-0.3,0.2-0.5,0.2c-0.3,0-0.7-0.2-0.9-0.4c-0.5-0.9-1.2-1.8-1.9-2.6C48,40.8,48,40.7,48,40.5
		c0-0.3,0.2-0.5,0.4-0.7C48.6,39.6,48.8,39.6,49,39.6z M51.8,38.2c0.3,0,0.6,0.1,0.8,0.3c0.7,0.8,1.3,1.7,1.8,2.5
		c0.1,0.2,0.2,0.4,0.2,0.6c0,0.3-0.2,0.6-0.4,0.8c-0.2,0.1-0.3,0.2-0.5,0.2c-0.3,0-0.6-0.2-0.8-0.5c-0.5-0.8-1.1-1.8-1.7-2.5
		c-0.2-0.2-0.2-0.4-0.2-0.5c0-0.3,0.2-0.6,0.4-0.7C51.4,38.2,51.6,38.2,51.8,38.2z"/>
	<path d="M69.5,60.8c0,0.6-0.5,1-1.2,1c-0.7,0-1.2-0.3-1.2-1V49c-3.2,1.8-6.5,3.3-9.5,4.3c-0.2,0.1-0.4,0.1-0.6,0.1
		c-0.5,0-0.8-0.2-1-0.7c0-0.1-0.1-0.3-0.1-0.4c0-0.4,0.3-0.9,0.8-1c3.1-1,6.7-2.6,10.2-4.8c2.9-1.8,5.1-3.6,7.2-6
		c0.2-0.3,0.6-0.4,0.9-0.4c0.3,0,0.5,0.1,0.8,0.3c0.3,0.2,0.5,0.5,0.5,0.9c0,0.2-0.1,0.5-0.3,0.7c-1.6,1.8-4,3.8-6.7,5.7V60.8z"/>
</g>
</svg>
