<?xml version="1.0" encoding="utf-8"?>
<!-- Generator: Adobe Illustrator 21.1.0, SVG Export Plug-In . SVG Version: 6.00 Build 0)  -->
<svg version="1.1" id="Layer_1" xmlns="http://www.w3.org/2000/svg" xmlns:xlink="http://www.w3.org/1999/xlink" x="0px" y="0px"
	 viewBox="0 0 108.1 105.4" style="enable-background:new 0 0 108.1 105.4;" xml:space="preserve">
<style type="text/css">
	.st0{fill:#FFFFFF;stroke:#222222;stroke-width:3.5;stroke-miterlimit:10;}
	.st1{fill:#EEEEEE;}
</style>
<path class="st0" d="M93.8,103.9H14.3c-7.1,0-12.8-5.6-12.8-12.5V14c0-6.9,5.7-12.5,12.8-12.5h79.4c7.1,0,12.8,5.6,12.8,12.5v77.3
	C106.6,98.3,100.9,103.9,93.8,103.9z"/>
<path class="st1" d="M90.3,102H13.8c-5.8,0-10.4-4.7-10.4-10.4V16.6c0-5.8,4.7-10.4,10.4-10.4h76.5c5.8,0,10.4,4.7,10.4,10.4v74.9
	C100.7,97.3,96.1,102,90.3,102z"/>
<g>
	<path d="M45.3,55.2c-0.5,0-0.8-0.4-0.8-0.9c0-0.5,0.3-0.9,0.8-0.9h7.5v-2.7c0-0.5,0.4-0.8,1-0.8c0.6,0,1.1,0.3,1.1,0.8v2.7h7.9
		c0.5,0,0.8,0.4,0.8,0.9s-0.3,0.9-0.8,0.9h-7.9V60h10.6c0.5,0,0.8,0.4,0.8,0.9c0,0.6-0.3,1-0.8,1H42.7c-0.5,0-0.8-0.4-0.8-0.9
		s0.3-0.9,0.8-0.9h10v-4.8H45.3z M52.9,41.8c-0.9,1.9-2,3.8-3.2,5.6c3.5-0.1,6.9-0.3,10.3-0.7c-0.8-0.8-1.6-1.6-2.4-2.2
		c-0.2-0.2-0.3-0.3-0.3-0.5s0.1-0.4,0.3-0.6c0.2-0.2,0.5-0.3,0.7-0.3c0.2,0,0.4,0.1,0.6,0.2c1.8,1.4,4.1,3.8,5.3,5.4
		c0.2,0.2,0.2,0.4,0.2,0.6c0,0.3-0.1,0.5-0.4,0.8c-0.2,0.2-0.5,0.3-0.7,0.3c-0.3,0-0.6-0.1-0.7-0.4c-0.4-0.5-0.8-1.1-1.3-1.7
		C56,49,49.7,49.3,44.1,49.4c-0.5,0-0.9-0.4-0.9-1s0.3-1,0.9-1c1.1,0,2.2,0,3.4,0c1.3-1.8,2.4-3.7,3.3-5.7h-7.5
		c-0.5,0-0.8-0.4-0.8-0.9c0-0.6,0.3-0.9,0.8-0.9H65c0.5,0,0.8,0.4,0.8,0.9c0,0.5-0.3,0.9-0.8,0.9H52.9z"/>
</g>
</svg>
