<?xml version="1.0" encoding="utf-8"?>
<!-- Generator: Adobe Illustrator 21.1.0, SVG Export Plug-In . SVG Version: 6.00 Build 0)  -->
<svg version="1.1" id="Layer_1" xmlns="http://www.w3.org/2000/svg" xmlns:xlink="http://www.w3.org/1999/xlink" x="0px" y="0px"
	 viewBox="0 0 108.1 105.4" style="enable-background:new 0 0 108.1 105.4;" xml:space="preserve">
<style type="text/css">
	.st0{fill:#FFFFFF;stroke:#222222;stroke-width:3.5;stroke-miterlimit:10;}
	.st1{fill:#EEEEEE;}
</style>
<path class="st0" d="M93.8,103.9H14.3c-7.1,0-12.8-5.6-12.8-12.5V14c0-6.9,5.7-12.5,12.8-12.5h79.4c7.1,0,12.8,5.6,12.8,12.5v77.3
	C106.6,98.3,100.9,103.9,93.8,103.9z"/>
<path class="st1" d="M90.3,102H13.8c-5.8,0-10.4-4.7-10.4-10.4V16.6c0-5.8,4.7-10.4,10.4-10.4h76.5c5.8,0,10.4,4.7,10.4,10.4v74.9
	C100.7,97.3,96.1,102,90.3,102z"/>
<g>
	<path d="M36.9,44.5c0.1-1.4,0.2-3,0.2-4.7c0-0.7,0.3-1,1.1-1c0.7,0,1.1,0.3,1.1,1c0,1.7-0.1,3.2-0.1,4.7h5.3c1.6,0,2.5,0.8,2.5,2.4
		l-0.1,12.5c0,0.7,0.2,0.9,0.6,0.9c0.3,0,0.6,0.1,1,0.1c0.5,0,1,0,1.3-0.1c0.6-0.1,0.8-0.3,1-1c0.2-0.8,0.4-2.1,0.4-3.6
		c0-0.5,0.5-0.8,1-0.8c0,0,0,0,0.1,0c0.6,0,1,0.3,1,0.9c0,1.9-0.3,3.8-0.7,4.8c-0.4,1-1,1.5-2.1,1.7c-0.5,0.1-1.2,0.2-2,0.2
		c-0.8,0-1.6-0.1-2.2-0.2c-1.2-0.2-1.6-0.8-1.6-2.1c0-0.1,0-0.1,0-0.1l0.1-12.7c0-0.6-0.3-0.8-0.9-0.8h-4.9c-0.4,4.1-1.2,7-2.6,9.3
		c-1.6,2.9-4.1,5.1-6.3,6.3c-0.3,0.1-0.5,0.2-0.7,0.2c-0.3,0-0.7-0.2-0.9-0.5c-0.1-0.2-0.2-0.4-0.2-0.7c0-0.4,0.2-0.7,0.6-0.9
		c2.1-1.1,4.2-2.9,5.7-5.5c1.1-1.9,1.9-4.6,2.3-8.3h-6.6c-0.5,0-0.8-0.5-0.8-1c0-0.5,0.3-1,0.8-1H36.9z"/>
	<path d="M58,62.1c0,0.5-0.5,0.8-1.1,0.8c-0.6,0-1-0.3-1-0.8V41.5c0-1.4,0.7-2,2.2-2h5.5c1.5,0,2.2,0.5,2.2,1.9v5.8
		c0,1.4-0.7,1.9-2.2,1.9H58V62.1z M63.9,41.8c0-0.5-0.3-0.7-0.8-0.7h-4.4c-0.5,0-0.7,0.2-0.7,0.7v1.6h5.9V41.8z M63.1,47.5
		c0.5,0,0.8-0.2,0.8-0.7V45H58v2.5H63.1z M70.1,49.1c-1.5,0-2.2-0.5-2.2-1.9v-5.8c0-1.4,0.7-1.9,2.2-1.9h5.8c1.5,0,2.2,0.6,2.2,2
		v18.3c0,2-1,2.7-3.2,2.7c-1.1,0-2.2-0.1-3-0.3c-0.6-0.1-0.8-0.4-0.8-0.9c0-0.1,0-0.2,0-0.2c0.1-0.5,0.4-0.8,0.9-0.8
		c0.1,0,0.2,0,0.3,0c0.7,0.2,1.6,0.3,2.4,0.3c1.2,0,1.5-0.2,1.5-1.2V49.1H70.1z M76,41.8c0-0.5-0.2-0.7-0.7-0.7h-4.7
		c-0.5,0-0.8,0.2-0.8,0.7v1.7H76V41.8z M76,45h-6.2v1.8c0,0.5,0.3,0.7,0.8,0.7H76V45z"/>
</g>
</svg>
