<?xml version="1.0" encoding="utf-8"?>
<!-- Generator: Adobe Illustrator 21.1.0, SVG Export Plug-In . SVG Version: 6.00 Build 0)  -->
<svg version="1.1" id="Layer_1" xmlns="http://www.w3.org/2000/svg" xmlns:xlink="http://www.w3.org/1999/xlink" x="0px" y="0px"
	 viewBox="0 0 108.1 105.4" style="enable-background:new 0 0 108.1 105.4;" xml:space="preserve">
<style type="text/css">
	.st0{fill:#FFFFFF;stroke:#222222;stroke-width:3.5;stroke-miterlimit:10;}
	.st1{fill:#EEEEEE;}
</style>
<path class="st0" d="M93.8,103.9H14.3c-7.1,0-12.8-5.6-12.8-12.5V14c0-6.9,5.7-12.5,12.8-12.5h79.4c7.1,0,12.8,5.6,12.8,12.5v77.3
	C106.6,98.3,100.9,103.9,93.8,103.9z"/>
<path class="st1" d="M90.3,102H13.8c-5.8,0-10.4-4.7-10.4-10.4V16.6c0-5.8,4.7-10.4,10.4-10.4h76.5c5.8,0,10.4,4.7,10.4,10.4v74.9
	C100.7,97.3,96.1,102,90.3,102z"/>
<g>
	<path d="M30.4,60c-0.5,0-0.7-0.4-0.7-0.9c0-0.5,0.3-0.9,0.7-0.9h22.8c0.5,0,0.7,0.3,0.7,0.8c0,0.5-0.2,0.9-0.7,0.9H30.4z
		 M48.4,46.1c1.5,0,2.2,0.6,2.2,1.9v7c0,1.4-0.7,1.9-2.2,1.9H35.2c-1.5,0-2.2-0.6-2.2-1.9v-7c0-1.4,0.7-1.9,2.2-1.9h5.5v-1.7h-9.8
		c-0.5,0-0.7-0.4-0.7-0.9c0-0.5,0.3-0.9,0.7-0.9h9.8v-1.5c0-0.4,0.4-0.7,1-0.7c0.6,0,1,0.2,1,0.7v1.5h10.2c0.5,0,0.7,0.4,0.7,0.9
		c0,0.5-0.2,0.9-0.7,0.9H42.5v1.7H48.4z M38,60.5c0.3,0,0.6,0.1,0.8,0.3c0.2,0.2,0.2,0.4,0.2,0.6c0,0.3-0.2,0.6-0.6,0.8
		c-1.8,1.1-4.5,2.1-7.2,2.5c-0.1,0-0.1,0-0.2,0c-0.4,0-0.8-0.2-0.9-0.8c0-0.1,0-0.2,0-0.3c0-0.4,0.3-0.8,0.7-0.8
		c2.6-0.4,5-1.4,6.5-2.2C37.6,60.6,37.8,60.5,38,60.5z M48.5,49.2v-1c0-0.5-0.2-0.6-0.7-0.6H35.7c-0.5,0-0.7,0.2-0.7,0.6v1H48.5z
		 M48.5,52.2v-1.6H35v1.6H48.5z M35,54.7c0,0.5,0.2,0.6,0.7,0.6h12.1c0.5,0,0.7-0.1,0.7-0.6v-1H35V54.7z M53.7,63.8
		c0,0.1,0,0.1,0,0.2c-0.1,0.5-0.5,0.8-1,0.8c-0.1,0-0.1,0-0.2,0c-2.4-0.4-5.4-1.2-7.6-2.5c-0.4-0.2-0.6-0.5-0.6-0.8
		c0-0.2,0.1-0.4,0.3-0.6c0.2-0.2,0.5-0.4,0.8-0.4c0.2,0,0.5,0.1,0.7,0.2c2.3,1.2,4.9,1.8,6.8,2.2C53.3,63,53.7,63.3,53.7,63.8z"/>
	<path d="M61.4,51.1c0,0.2-0.1,0.4-0.2,0.6c-0.2,0.3-0.5,0.4-0.8,0.4c-0.3,0-0.5-0.1-0.7-0.3c-1-0.9-2.3-1.9-3.4-2.5
		c-0.2-0.1-0.4-0.4-0.4-0.7c0-0.2,0.1-0.4,0.2-0.6c0.2-0.3,0.5-0.4,0.8-0.4c0.2,0,0.4,0.1,0.5,0.1c1.2,0.6,2.5,1.7,3.6,2.6
		C61.2,50.5,61.4,50.8,61.4,51.1z M61.8,56.2c0,0.1,0,0.3-0.1,0.4c-0.9,2.3-2.1,5.3-3.6,7.4c-0.2,0.3-0.5,0.5-0.9,0.5
		c-0.2,0-0.5-0.1-0.7-0.2c-0.3-0.2-0.5-0.5-0.5-0.8c0-0.2,0.1-0.4,0.2-0.6c1.3-2,2.7-4.7,3.5-6.9c0.1-0.4,0.5-0.6,0.9-0.6
		c0.1,0,0.3,0,0.4,0.1C61.5,55.5,61.8,55.9,61.8,56.2z M62.5,44.8c0,0.2-0.1,0.5-0.3,0.7c-0.2,0.2-0.5,0.3-0.7,0.3
		c-0.3,0-0.6-0.1-0.9-0.4c-0.9-0.8-2.1-2-3.2-2.7c-0.2-0.2-0.3-0.4-0.3-0.7c0-0.2,0.1-0.4,0.2-0.6c0.2-0.2,0.5-0.4,0.8-0.4
		c0.2,0,0.4,0.1,0.6,0.2c1,0.6,2.4,1.9,3.4,2.8C62.4,44.2,62.5,44.5,62.5,44.8z M79.5,62.3c0.5,0,0.7,0.4,0.7,0.9
		c0,0.5-0.3,0.9-0.7,0.9H62.7c-0.5,0-0.7-0.4-0.7-0.9c0-0.5,0.3-0.9,0.7-0.9h5.1c-0.3-0.7-0.7-1.5-1-2.1c-0.1-0.2-0.2-0.4-0.2-0.6
		c0-0.3,0.2-0.5,0.5-0.7c0.2-0.1,0.4-0.1,0.5-0.1c0.3,0,0.5,0.2,0.7,0.5c0.6,0.9,1,2.1,1.4,3h3.1c0.5-1,0.9-2,1.1-2.7
		c0.2-0.5,0.5-0.7,0.9-0.7c0.1,0,0.2,0,0.3,0.1c0.5,0.1,0.7,0.4,0.7,0.8c0,0.1,0,0.2-0.1,0.4c-0.3,0.7-0.6,1.5-1.1,2.3H79.5z
		 M70.4,41.2c1.1,0,1.6,0.4,2,1.1c0.3,0.6,0.7,1.2,1.2,1.9c0.9-0.8,1.6-1.6,2.1-2.3c0.2-0.3,0.4-0.4,0.7-0.4c0.2,0,0.4,0.1,0.6,0.2
		c0.3,0.2,0.4,0.4,0.4,0.7c0,0.2-0.1,0.3-0.2,0.5c-0.6,0.8-1.5,1.7-2.5,2.6c0.4,0.4,0.8,0.9,1.3,1.3c0.9-0.7,1.8-1.7,2.3-2.3
		c0.2-0.2,0.4-0.3,0.7-0.3c0.2,0,0.4,0.1,0.6,0.2c0.3,0.2,0.5,0.5,0.5,0.8c0,0.2-0.1,0.3-0.2,0.5c-0.8,0.9-1.6,1.6-2.6,2.3
		c1,0.8,2.1,1.5,3.2,2.1c0.3,0.2,0.5,0.5,0.5,0.9c0,0.2-0.1,0.3-0.1,0.5c-0.2,0.3-0.5,0.5-0.9,0.5c-0.2,0-0.4-0.1-0.6-0.2
		c-3.4-1.9-6.5-4.9-8.4-8.2c-1.6,3.3-4.3,6.2-7.5,8.2c-0.2,0.1-0.3,0.2-0.5,0.2c-0.3,0-0.6-0.2-0.8-0.5c-0.1-0.2-0.2-0.3-0.2-0.5
		c0-0.3,0.2-0.6,0.5-0.8c1.1-0.6,2.2-1.5,3.1-2.3c-0.8-0.9-1.6-1.7-2.2-2.2c-0.2-0.2-0.3-0.4-0.3-0.6s0.1-0.4,0.2-0.6
		c0.2-0.2,0.5-0.3,0.7-0.3c0.2,0,0.5,0.1,0.6,0.2c0.6,0.5,1.4,1.2,2.2,2.2c0.9-1,1.7-2.1,2.2-3.1c0.1-0.1,0.1-0.2,0.1-0.2
		c0-0.1-0.1-0.2-0.3-0.2h-3.7c-0.5,0-0.7-0.3-0.7-0.8c0-0.5,0.2-0.9,0.7-0.9H70.4z M75.8,52c1.5,0,2.2,0.6,2.2,1.9v2.5
		c0,1.4-0.6,2-2.2,2h-9.3c-1.5,0-2.1-0.6-2.1-2v-2.5c0-1.3,0.7-1.9,2.1-1.9H75.8z M75.3,56.8c0.5,0,0.7-0.1,0.7-0.6v-2
		c0-0.4-0.2-0.6-0.7-0.6H67c-0.5,0-0.7,0.1-0.7,0.6v2c0,0.5,0.2,0.6,0.7,0.6H75.3z M68.5,50.1c-0.4,0-0.7-0.4-0.7-0.9
		c0-0.4,0.3-0.8,0.7-0.8H74c0.4,0,0.7,0.4,0.7,0.8c0,0.5-0.3,0.9-0.7,0.9H68.5z"/>
</g>
</svg>
