<?xml version="1.0" encoding="utf-8"?>
<!-- Generator: Adobe Illustrator 21.1.0, SVG Export Plug-In . SVG Version: 6.00 Build 0)  -->
<svg version="1.1" id="Layer_1" xmlns="http://www.w3.org/2000/svg" xmlns:xlink="http://www.w3.org/1999/xlink" x="0px" y="0px"
	 viewBox="0 0 108.1 105.4" style="enable-background:new 0 0 108.1 105.4;" xml:space="preserve">
<style type="text/css">
	.st0{fill:#FFFFFF;stroke:#222222;stroke-width:3.5;stroke-miterlimit:10;}
	.st1{fill:#EEEEEE;}
	.st2{enable-background:new    ;}
</style>
<path class="st0" d="M93.8,103.9H14.3c-7.1,0-12.8-5.6-12.8-12.5V14c0-6.9,5.7-12.5,12.8-12.5h79.4c7.1,0,12.8,5.6,12.8,12.5v77.3
	C106.6,98.3,100.9,103.9,93.8,103.9z"/>
<path class="st1" d="M90.3,102H13.8C8,102,3.4,97.3,3.4,91.6v-75c0-5.8,4.7-10.4,10.4-10.4h76.5c5.8,0,10.4,4.7,10.4,10.4v74.9
	C100.7,97.3,96.1,102,90.3,102z"/>
<g class="st2">
	<path d="M31.5,51.4c0-1.1,0.1-2.3,0.2-3.5c-0.5,1-1.2,2-1.9,2.8c-0.2,0.3-0.6,0.4-0.9,0.4c-0.2,0-0.5-0.1-0.7-0.2
		c-0.3-0.2-0.4-0.5-0.4-0.8c0-0.2,0.1-0.4,0.3-0.6c2.6-2.8,4.3-6.1,5.4-10c0.1-0.4,0.5-0.6,0.9-0.6c0.1,0,0.3,0,0.4,0.1
		c0.5,0.1,0.8,0.4,0.8,0.8c0,0.1,0,0.2-0.1,0.3c-0.5,1.8-1.2,3.5-2.1,5.1v16.9c0,0.5-0.4,0.7-1,0.7c-0.6,0-1-0.2-1-0.7V51.4z
		 M52.6,46.2c0.5,0,0.7,0.4,0.7,0.9s-0.3,0.9-0.7,0.9h-1.6v3.9c0,1.5-0.7,2.2-2.3,2.2h-5.4c-0.2,1-0.5,1.9-0.8,2.7
		c-1.1,2.6-2.9,4.4-5.2,5.7c-0.2,0.1-0.5,0.2-0.7,0.2c-0.3,0-0.7-0.1-0.9-0.4c-0.1-0.2-0.2-0.4-0.2-0.6c0-0.3,0.2-0.7,0.5-0.8
		c2.1-1.1,3.8-2.7,4.6-4.8c0.2-0.6,0.5-1.2,0.6-2h-4.8c-0.5,0-0.8-0.3-0.8-0.9c0-0.6,0.3-0.9,0.8-0.9h5.1c0.2-1.1,0.3-2.4,0.3-4
		c0-0.1,0-0.2,0-0.3h-6.4c-0.5,0-0.7-0.4-0.7-0.9c0-0.5,0.3-0.9,0.7-0.9h6.5c0-1.1,0-2.3,0-3.4c0-0.2,0-0.4,0-0.6h-4.8
		c-0.5,0-0.8-0.3-0.8-0.9c0-0.6,0.3-0.9,0.8-0.9h11.5c1.6,0,2.3,0.7,2.3,2.2v3.6H52.6z M44,48.1c0,0.2,0,0.3,0,0.5
		c-0.1,1.5-0.2,2.7-0.3,3.8h4.7c0.6,0,0.7-0.3,0.7-0.8v-3.5H44z M49.1,43c0-0.6-0.1-0.8-0.7-0.8h-4.3c0,1.4,0,2.7,0,4h5.1V43z"/>
	<path d="M65.7,56.1c0.2-0.1,0.5-0.1,0.7-0.2c0.1,0,0.2-0.1,0.3-0.1c0.3,0,0.6,0.3,0.7,0.7c0,0.1,0,0.2,0,0.3c0,0.4-0.2,0.8-0.6,0.9
		c-3.2,1.1-7.4,2.2-10.9,3c-0.1,0-0.1,0-0.2,0c-0.5,0-0.8-0.3-1-0.8c0-0.1,0-0.2,0-0.3c0-0.4,0.3-0.8,0.7-0.9
		c0.4-0.1,0.8-0.2,1.2-0.2V42.2c0-1.6,0.7-2.2,2.2-2.2h4.7c1.5,0,2.2,0.6,2.2,2.2V56.1z M63.8,45.8v-3.2c0-0.5-0.3-0.7-0.8-0.7h-3.6
		c-0.5,0-0.8,0.2-0.8,0.7v3.2H63.8z M58.5,51.4h5.2v-3.8h-5.2V51.4z M58.5,58c1.8-0.4,3.5-0.8,5.2-1.3v-3.5h-5.2V58z M70.8,44.4
		c0.1-1.5,0.1-3.1,0.1-4.8c0-0.5,0.5-0.8,1-0.8c0.6,0,1.1,0.3,1.1,0.8c0,1.7,0,3.2-0.1,4.8h3.7c1.8,0,2.5,0.6,2.5,2.3
		c0,5.8-0.5,10.4-1.2,13c-0.4,1.6-1.5,2.3-3.4,2.3c-0.9,0-2-0.1-2.8-0.3c-0.5-0.1-0.7-0.4-0.7-0.9c0-0.1,0-0.2,0-0.2
		c0.1-0.5,0.5-0.8,0.8-0.8c0.1,0,0.1,0,0.2,0c0.7,0.2,1.6,0.3,2.3,0.3c1,0,1.4-0.3,1.6-1.2c0.6-2.2,1.1-6.6,1.1-11.8
		c0-0.6-0.3-0.7-0.9-0.7h-3.3c-0.2,3-0.6,5.8-1.5,8.4c-1,3-2.8,5.6-5.1,7.6c-0.3,0.2-0.6,0.3-0.9,0.3s-0.6-0.1-0.8-0.4
		c-0.2-0.2-0.3-0.5-0.3-0.7c0-0.3,0.2-0.6,0.5-0.8c2.3-1.7,3.8-4,4.8-6.8c0.8-2.2,1.2-4.8,1.3-7.6h-3.3c-0.5,0-0.8-0.4-0.8-1
		c0-0.5,0.3-0.9,0.8-0.9H70.8z"/>
</g>
</svg>
