<?xml version="1.0" encoding="utf-8"?>
<!-- Generator: Adobe Illustrator 21.1.0, SVG Export Plug-In . SVG Version: 6.00 Build 0)  -->
<svg version="1.1" id="Layer_1" xmlns="http://www.w3.org/2000/svg" xmlns:xlink="http://www.w3.org/1999/xlink" x="0px" y="0px"
	 viewBox="0 0 108.1 105.4" style="enable-background:new 0 0 108.1 105.4;" xml:space="preserve">
<style type="text/css">
	.st0{fill:#FFFFFF;stroke:#222222;stroke-width:3.5;stroke-miterlimit:10;}
	.st1{fill:#EEEEEE;}
</style>
<path class="st0" d="M93.8,103.9H14.3c-7.1,0-12.8-5.6-12.8-12.5V14c0-6.9,5.7-12.5,12.8-12.5h79.4c7.1,0,12.8,5.6,12.8,12.5v77.3
	C106.6,98.3,100.9,103.9,93.8,103.9z"/>
<path class="st1" d="M90.3,102H13.8c-5.8,0-10.4-4.7-10.4-10.4V16.6c0-5.8,4.7-10.4,10.4-10.4h76.5c5.8,0,10.4,4.7,10.4,10.4v74.9
	C100.7,97.3,96.1,102,90.3,102z"/>
<g>
	<path d="M30,44.8c0-1.6,0.7-2.2,2.3-2.2h2.7c1.6,0,2.3,0.6,2.3,2.2v12.9c0,1.6-0.7,2.2-2.3,2.2h-2.7c-1.6,0-2.3-0.6-2.3-2.2V44.8z
		 M32,57.4c0,0.5,0.3,0.6,0.7,0.6h1.9c0.4,0,0.7-0.1,0.7-0.6V45.1c0-0.5-0.3-0.6-0.7-0.6h-1.9c-0.5,0-0.7,0.1-0.7,0.6V57.4z
		 M46.4,48.1c0,1.4-0.1,2.9-0.2,4.3h7.2c0.5,0,0.8,0.4,0.8,0.9c0,0.5-0.3,0.9-0.8,0.9h-6.7c1.3,3.9,4,6.4,7.2,8.1
		c0.3,0.2,0.5,0.5,0.5,0.9c0,0.2-0.1,0.4-0.2,0.6c-0.2,0.4-0.6,0.5-0.9,0.5c-0.2,0-0.4-0.1-0.6-0.2c-3.3-1.9-5.8-4.6-7.2-8.5
		c-0.4,1.2-1,2.4-1.6,3.4c-1.7,2.5-3.9,4-6.1,5.1c-0.3,0.1-0.5,0.2-0.7,0.2c-0.4,0-0.7-0.2-0.9-0.5c-0.1-0.2-0.2-0.4-0.2-0.5
		c0-0.4,0.2-0.7,0.7-0.9c2-0.9,4-2.2,5.5-4.3c0.9-1.1,1.4-2.4,1.8-4h-5.2c-0.6,0-0.9-0.4-0.9-1c0-0.5,0.3-0.9,0.8-0.9h5.6
		c0.2-1.4,0.2-2.9,0.2-4.3h-5.2c-0.5,0-0.8-0.4-0.8-0.9c0-0.6,0.3-0.9,0.8-0.9h7.3c1.1-1.6,2-3.3,2.5-4.7c0.2-0.4,0.5-0.6,0.9-0.6
		c0.1,0,0.3,0,0.4,0.1c0.5,0.1,0.7,0.4,0.7,0.8c0,0.2-0.1,0.3-0.1,0.5c-0.6,1.2-1.4,2.6-2.4,4h4.1c0.5,0,0.8,0.3,0.8,0.9
		c0,0.6-0.3,0.9-0.8,0.9H46.4z M41.1,41c0.3,0,0.6,0.1,0.9,0.4c0.6,0.8,1.3,1.9,1.8,2.8c0.1,0.2,0.1,0.3,0.1,0.5
		c0,0.3-0.2,0.6-0.6,0.8c-0.2,0.1-0.3,0.1-0.5,0.1c-0.3,0-0.7-0.2-0.8-0.5c-0.5-1-1.1-2-1.6-2.8C40.1,42.2,40,42,40,41.8
		c0-0.3,0.2-0.5,0.5-0.7C40.7,41,40.9,41,41.1,41z"/>
	<path d="M60.6,43.2c0-0.5,0.5-0.8,1-0.8c0.6,0,1,0.3,1,0.8v5.6l5.2-1.4v-6c0-0.4,0.5-0.7,1.1-0.7c0.6,0,1,0.3,1,0.7v5.5l5.7-1.6
		c0.3-0.1,0.6-0.1,0.8-0.1c1.1,0,1.9,0.8,1.9,2.3c0,0.1,0,0.1,0,0.1c-0.1,2.8-0.3,5.1-0.8,7c-0.4,1.6-1.2,2.4-3.2,2.4
		c-0.7,0-1.6-0.1-2.2-0.2c-0.5-0.1-0.7-0.4-0.7-0.9c0-0.1,0-0.2,0-0.3c0.1-0.5,0.4-0.7,0.8-0.7c0.1,0,0.2,0,0.2,0
		c0.4,0.1,1.1,0.2,1.6,0.2c0.9,0,1.4-0.3,1.6-1.3c0.3-1.4,0.6-3.5,0.6-5.7c0-0.6-0.1-0.8-0.5-0.8c-0.1,0-0.2,0-0.4,0.1L70,48.8v8.9
		c0,0.5-0.5,0.7-1,0.7c-0.6,0-1.1-0.3-1.1-0.7v-8.3l-5.2,1.4v9.5c0,1.2,0.4,1.6,1.9,1.8c1,0.1,2.7,0.2,5.2,0.2
		c2.6,0,4.2-0.1,5.3-0.2c1.4-0.2,2.2-0.5,2.5-1.2c0.3-0.7,0.5-1.7,0.6-2.7c0.1-0.5,0.4-0.8,1-0.8c0,0,0.1,0,0.1,0
		c0.6,0.1,1,0.4,1,0.8c0,0,0,0.1,0,0.1c-0.1,1.3-0.4,2.7-0.8,3.6c-0.6,1.2-1.6,1.7-3.8,2c-1.4,0.2-3.3,0.3-5.9,0.3
		c-2.8,0-4.7-0.1-6.1-0.2c-2.1-0.2-3.1-1.1-3.1-3.2v-9.4l-3.5,1c-0.1,0-0.2,0.1-0.3,0.1c-0.4,0-0.7-0.3-0.8-0.8c0-0.1,0-0.2,0-0.3
		c0-0.4,0.2-0.7,0.6-0.8l4-1.1V43.2z"/>
</g>
</svg>
