<?xml version="1.0" encoding="utf-8"?>
<!-- Generator: Adobe Illustrator 21.1.0, SVG Export Plug-In . SVG Version: 6.00 Build 0)  -->
<svg version="1.1" id="Layer_1" xmlns="http://www.w3.org/2000/svg" xmlns:xlink="http://www.w3.org/1999/xlink" x="0px" y="0px"
	 viewBox="0 0 108.1 105.4" style="enable-background:new 0 0 108.1 105.4;" xml:space="preserve">
<style type="text/css">
	.st0{fill:#FFFFFF;stroke:#222222;stroke-width:3.5;stroke-miterlimit:10;}
	.st1{fill:#EEEEEE;}
</style>
<path class="st0" d="M93.8,103.9H14.3c-7.1,0-12.8-5.6-12.8-12.5V14c0-6.9,5.7-12.5,12.8-12.5h79.4c7.1,0,12.8,5.6,12.8,12.5v77.3
	C106.6,98.3,100.9,103.9,93.8,103.9z"/>
<path class="st1" d="M90.3,102H13.8c-5.8,0-10.4-4.7-10.4-10.4V16.6c0-5.8,4.7-10.4,10.4-10.4h76.5c5.8,0,10.4,4.7,10.4,10.4v74.9
	C100.7,97.3,96.1,102,90.3,102z"/>
<g>
	<path d="M42,46.5c2,6.3,5.7,10.9,10.6,13.6c0.4,0.2,0.6,0.5,0.6,0.9c0,0.2-0.1,0.5-0.2,0.7c-0.2,0.4-0.6,0.5-0.9,0.5
		c-0.2,0-0.4-0.1-0.6-0.2c-5-3-8.8-7.8-10.7-14c-0.6,2.4-1.5,4.6-2.6,6.4c-1.9,3-4.6,5.8-7.9,7.7c-0.2,0.1-0.5,0.2-0.7,0.2
		c-0.3,0-0.7-0.2-0.9-0.5c-0.1-0.2-0.2-0.4-0.2-0.6c0-0.4,0.2-0.8,0.6-1c2.9-1.6,5.4-3.7,7.4-6.9c1.2-2,2-4.2,2.5-6.8h-9.3
		c-0.5,0-0.8-0.5-0.8-1c0-0.5,0.3-1,0.8-1h9.6c0.2-1.4,0.2-3,0.3-4.7c0-0.7,0.5-0.9,1.1-0.9c0.7,0,1.1,0.3,1.1,0.9
		c0,1.7-0.1,3.3-0.3,4.7h10.6c0.5,0,0.8,0.4,0.8,1c0,0.5-0.3,1-0.8,1H42z M39.2,55.4c0.3,0,0.6,0.1,0.8,0.4c1.1,1.1,2.3,2.5,3.1,3.9
		c0.1,0.2,0.2,0.4,0.2,0.7c0,0.3-0.2,0.6-0.4,0.8c-0.2,0.1-0.5,0.2-0.7,0.2c-0.4,0-0.7-0.2-0.9-0.5c-0.7-1.1-1.9-2.7-3-3.7
		c-0.2-0.2-0.3-0.4-0.3-0.6c0-0.3,0.2-0.6,0.4-0.8C38.7,55.5,39,55.4,39.2,55.4z"/>
	<path d="M56.1,52c-0.6,0-0.9-0.6-0.9-1.1c0-0.6,0.3-1.1,0.9-1.1h22.4c0.6,0,0.9,0.5,0.9,1.1c0,0.5-0.3,1.1-0.9,1.1H56.1z"/>
</g>
</svg>
