<?xml version="1.0" encoding="utf-8"?>
<!-- Generator: Adobe Illustrator 21.1.0, SVG Export Plug-In . SVG Version: 6.00 Build 0)  -->
<svg version="1.1" id="Layer_1" xmlns="http://www.w3.org/2000/svg" xmlns:xlink="http://www.w3.org/1999/xlink" x="0px" y="0px"
	 viewBox="0 0 108.1 105.4" style="enable-background:new 0 0 108.1 105.4;" xml:space="preserve">
<style type="text/css">
	.st0{fill:#FFFFFF;stroke:#222222;stroke-width:3.5;stroke-miterlimit:10;}
	.st1{fill:#EEEEEE;}
</style>
<path class="st0" d="M93.8,103.9H14.3c-7.1,0-12.8-5.6-12.8-12.5V14c0-6.9,5.7-12.5,12.8-12.5h79.4c7.1,0,12.8,5.6,12.8,12.5v77.3
	C106.6,98.3,100.9,103.9,93.8,103.9z"/>
<path class="st1" d="M90.3,102H13.8c-5.8,0-10.4-4.7-10.4-10.4V16.6c0-5.8,4.7-10.4,10.4-10.4h76.5c5.8,0,10.4,4.7,10.4,10.4v74.9
	C100.7,97.3,96.1,102,90.3,102z"/>
<g>
	<path d="M49.8,46.2c1.2,0,1.9,0.6,1.9,1.5c0,0.4-0.1,0.8-0.4,1.2c-1.8,3.5-4.5,6.4-7.8,8.6c-0.2,0.1-0.4,0.2-0.6,0.2
		c-0.3,0-0.7-0.2-0.9-0.5c-0.1-0.2-0.2-0.4-0.2-0.6c0-0.3,0.2-0.6,0.5-0.8c3-1.9,5.6-4.4,7-7.2c0.1-0.2,0.1-0.3,0.1-0.4
		c0-0.2-0.1-0.2-0.5-0.2h-5.4c-0.5,0-0.8-0.3-0.8-0.9c0-0.6,0.3-0.9,0.8-0.9H49.8z M42.7,61.9c-0.5,0-0.8-0.4-0.8-1
		c0-0.5,0.3-0.9,0.8-0.9h22.5c0.5,0,0.8,0.4,0.8,0.9c0,0.6-0.3,1-0.8,1H42.7z M53.1,44.7c0-0.4,0.4-0.7,1-0.7c0.2,0,0.3,0.1,0.4,0.2
		c1.8-0.6,3.7-1.6,4.9-2.4c0.1-0.1,0.2-0.2,0.2-0.3c0-0.1-0.1-0.1-0.4-0.1h-13c-0.5,0-0.8-0.4-0.8-0.9c0-0.5,0.3-0.9,0.8-0.9h14.5
		c1.1,0,1.8,0.6,1.8,1.4c0,0.5-0.3,1-0.8,1.4c-1.5,1.1-3.5,2.1-5.4,2.8c0.6,1.5,1.4,2.9,2.4,4.2c1.7-1.2,3.5-2.6,4.7-4
		c0.2-0.2,0.5-0.4,0.7-0.4c0.2,0,0.5,0.1,0.7,0.3c0.3,0.2,0.4,0.5,0.4,0.7c0,0.2-0.1,0.5-0.3,0.7c-1.4,1.4-3.3,2.9-5.1,4.1
		c1.7,2,3.8,3.7,6.1,4.9c0.4,0.2,0.6,0.5,0.6,0.9c0,0.2-0.1,0.4-0.2,0.6c-0.2,0.3-0.6,0.6-1,0.6c-0.2,0-0.3-0.1-0.5-0.1
		c-4.3-2.3-8.1-6.7-9.9-11.7c0.2,1.1,0.3,2.4,0.3,3.5v6.7c0,1.6-1,2.3-3.1,2.3c-0.8,0-1.6-0.1-2.3-0.2c-0.5-0.1-0.7-0.4-0.7-0.8
		c0-0.1,0-0.2,0-0.3c0.1-0.5,0.3-0.7,0.7-0.7c0.1,0,0.2,0,0.2,0c0.7,0.1,1.2,0.2,1.8,0.2c1.1,0,1.4-0.2,1.4-1V44.7z"/>
</g>
</svg>
