<?xml version="1.0" encoding="utf-8"?>
<!-- Generator: Adobe Illustrator 21.1.0, SVG Export Plug-In . SVG Version: 6.00 Build 0)  -->
<svg version="1.1" id="Layer_1" xmlns="http://www.w3.org/2000/svg" xmlns:xlink="http://www.w3.org/1999/xlink" x="0px" y="0px"
	 viewBox="0 0 108.1 105.4" style="enable-background:new 0 0 108.1 105.4;" xml:space="preserve">
<style type="text/css">
	.st0{fill:#FFFFFF;stroke:#222222;stroke-width:3.5;stroke-miterlimit:10;}
	.st1{fill:#EEEEEE;}
</style>
<path class="st0" d="M93.8,103.9H14.3c-7.1,0-12.8-5.6-12.8-12.5V14c0-6.9,5.7-12.5,12.8-12.5h79.4c7.1,0,12.8,5.6,12.8,12.5v77.3
	C106.6,98.3,100.9,103.9,93.8,103.9z"/>
<path class="st1" d="M90.3,102H13.8c-5.8,0-10.4-4.7-10.4-10.4V16.6c0-5.8,4.7-10.4,10.4-10.4h76.5c5.8,0,10.4,4.7,10.4,10.4v74.9
	C100.7,97.3,96.1,102,90.3,102z"/>
<g>
	<path d="M44.8,54.1C44.8,54.1,44.8,54.1,44.8,54.1c-0.2,2.1-0.6,4.6-1.3,6.4c-0.2,0.4-0.5,0.6-0.9,0.6c-0.1,0-0.2,0-0.3-0.1
		c-0.4-0.1-0.7-0.4-0.7-0.8c0-0.1,0-0.3,0.1-0.4c0.6-1.4,1-4,1.2-5.9c0.1-0.4,0.5-0.6,0.9-0.6c0,0,0.1,0,0.1,0
		C44.4,53.4,44.8,53.6,44.8,54.1z M46.1,51.7c-1.2,0.1-2.4,0.2-3.5,0.2c0,0,0,0-0.1,0c-0.5,0-0.8-0.3-0.8-0.9c0-0.6,0.3-0.9,0.8-0.9
		c0.2,0,0.4,0,0.6,0c0.3,0,0.6,0,0.8,0c0.6-0.8,1.2-1.6,1.8-2.4c-1.1-1.4-2.4-2.8-3.4-3.8c-0.2-0.2-0.2-0.3-0.2-0.5s0.1-0.5,0.3-0.6
		c0.2-0.2,0.4-0.3,0.7-0.3c0.2,0,0.4,0.1,0.5,0.2c0.2,0.2,0.3,0.3,0.5,0.5c0.8-1.2,1.6-2.6,2.2-3.8c0.1-0.3,0.4-0.4,0.7-0.4
		c0.1,0,0.3,0.1,0.5,0.1c0.3,0.1,0.6,0.4,0.6,0.8c0,0.1,0,0.3-0.1,0.4c-0.7,1.4-1.6,2.9-2.7,4.3c0.5,0.6,1,1.2,1.5,1.8
		c1-1.5,1.9-2.9,2.5-4.1c0.2-0.3,0.4-0.5,0.7-0.5c0.2,0,0.3,0.1,0.5,0.1c0.4,0.2,0.6,0.5,0.6,0.8c0,0.1,0,0.3-0.1,0.4
		c-1.4,2.4-3.4,5.2-5,7.2c1.2-0.1,2.4-0.1,3.6-0.2c-0.2-0.6-0.5-1.2-0.7-1.6c0-0.1-0.1-0.2-0.1-0.2c0-0.3,0.2-0.5,0.5-0.6
		c0.2-0.1,0.3-0.1,0.4-0.1c0.2,0,0.5,0.1,0.6,0.4c0.6,1.2,1.4,3,1.8,4.3c0,0.1,0,0.1,0,0.2c0,0.3-0.3,0.6-0.6,0.7
		c-0.1,0.1-0.3,0.1-0.5,0.1c-0.3,0-0.5-0.1-0.6-0.4c-0.1-0.4-0.2-0.8-0.3-1.2c-0.3,0-0.6,0.1-0.9,0.1c-0.4,0.1-0.9,0.1-1.3,0.1v10.7
		c0,0.4-0.4,0.7-1,0.7c-0.5,0-0.9-0.2-0.9-0.7V51.7z M49.9,53.3c0.4,0,0.7,0.2,0.8,0.6c0.3,1.4,0.7,3.3,0.9,4.8c0,0,0,0.1,0,0.1
		c0,0.4-0.3,0.7-0.8,0.8c-0.1,0-0.1,0-0.1,0c-0.4,0-0.8-0.2-0.8-0.7c-0.1-1.5-0.5-3.4-0.8-4.6c0-0.1,0-0.2,0-0.2
		c0-0.4,0.3-0.6,0.7-0.7C49.7,53.3,49.8,53.3,49.9,53.3z M63.2,43.7c1.6,0,2.3,0.5,2.3,2.1V60c0,1.6-0.7,2.2-2.3,2.2h-8.5
		c-1.6,0-2.3-0.6-2.3-2.2V45.8c0-1.6,0.7-2.2,2.3-2.2h3.2v-4.1c0-0.5,0.3-0.8,0.9-0.8c0.6,0,1,0.2,1,0.8v4.1H63.2z M55.1,45.5
		c-0.5,0-0.8,0.2-0.8,0.7v5.5h3.6v-6.2H55.1z M54.3,53.4v6.2c0,0.6,0.3,0.7,0.8,0.7h2.8v-6.9H54.3z M63.6,51.7v-5.5
		c0-0.6-0.3-0.7-0.8-0.7h-3v6.2H63.6z M62.8,60.4c0.5,0,0.8-0.2,0.8-0.7v-6.2h-3.8v6.9H62.8z"/>
</g>
</svg>
